<svg xmlns="http://www.w3.org/2000/svg" xmlns:xlink="http://www.w3.org/1999/xlink" viewBox="0 0 2394.13 399.02"><defs><style>.cls-1{fill:none;}.cls-2{isolation:isolate;}.cls-3{clip-path:url(#clip-path);}.cls-4{fill:#151e22;}.cls-5{fill:#1b292d;}.cls-6{fill:#222e33;}.cls-7{fill:#2b3740;}.cls-8{fill:#333f48;mix-blend-mode:hard-light;}.cls-9{fill:#8046a7;}.cls-10{fill:#3e85d5;}.cls-11{fill:#46c0d9;}.cls-12{fill:#ff6a00;}.cls-13{fill:#e84180;}.cls-14{fill:#6abb46;}.cls-15{fill:#f6de00;}.cls-16{fill:#d9140a;}.cls-17{fill:#ee8b22;}</style><clipPath id="clip-path" transform="translate(449.57 78.71)"><rect class="cls-1" width="1944.56" height="220.55"/></clipPath></defs><g class="cls-2"><g id="Capa_2" data-name="Capa 2"><g id="Capa_1-2" data-name="Capa 1"><g class="cls-3"><rect class="cls-4" x="598.53" y="97.59" width="299.27" height="199.51"/><rect class="cls-5" x="631.78" y="164.09" width="66.51" height="33.25"/><rect class="cls-6" x="631.78" y="97.6" width="66.51" height="66.49"/><rect class="cls-7" x="598.53" y="97.59" width="33.26" height="66.5"/><path class="cls-7" d="M340.82,80.26a99.76,99.76,0,0,0-92.1-61.38v99.75l50.55-21Z" transform="translate(449.57 78.71)"/><path class="cls-5" d="M340.82,80.26a99.37,99.37,0,0,1,7.66,38.37V77.07Z" transform="translate(449.57 78.71)"/><path class="cls-6" d="M299.27,97.59l-50.55,21h99.76a99.37,99.37,0,0,0-7.66-38.37Z" transform="translate(449.57 78.71)"/><path class="cls-5" d="M381.73,18.88v8.89A66.47,66.47,0,0,1,415,85.37v33.26h33.25V85.37A66.49,66.49,0,0,0,381.73,18.88Z" transform="translate(449.57 78.71)"/><path class="cls-7" d="M348.48,18.88v99.75h33.25V27.77A66.17,66.17,0,0,0,348.48,18.88Z" transform="translate(449.57 78.71)"/><path class="cls-6" d="M381.73,27.77v90.86H415V85.37A66.47,66.47,0,0,0,381.73,27.77Z" transform="translate(449.57 78.71)"/><circle class="cls-7" cx="648.41" cy="247.22" r="49.88"/><circle class="cls-6" cx="648.52" cy="247.22" r="21.6"/><polygon class="cls-5" points="748.16 297.1 798.04 297.1 798.04 197.34 748.16 297.1"/><polygon class="cls-6" points="698.29 297.1 748.16 297.1 698.29 197.34 698.29 297.1"/><polygon class="cls-7" points="698.29 197.34 748.16 297.1 798.04 197.34 698.29 197.34"/><path class="cls-7" d="M348.48,168.51a49.88,49.88,0,0,0,49.87,49.88V118.63A49.87,49.87,0,0,0,348.48,168.51Z" transform="translate(449.57 78.71)"/><polygon class="cls-8" points="847.92 197.34 847.92 197.34 847.92 197.34 847.92 197.34"/><polygon class="cls-8" points="847.92 297.1 847.92 297.1 847.92 297.1 847.92 297.1"/><path class="cls-5" d="M448.23,167.93v-49.3H398.36A49.88,49.88,0,0,1,448.23,167.93Z" transform="translate(449.57 78.71)"/><path class="cls-5" d="M398.36,218.39h49.87v-49.3A49.88,49.88,0,0,1,398.36,218.39Z" transform="translate(449.57 78.71)"/><path class="cls-6" d="M448.23,169.09v-1.16a49.88,49.88,0,0,0-49.87-49.3h0v99.76h0A49.88,49.88,0,0,0,448.23,169.09Z" transform="translate(449.57 78.71)"/><rect class="cls-4" x="1795.59" y="97.59" width="299.27" height="199.51"/><rect class="cls-5" x="1828.84" y="164.09" width="66.51" height="33.25"/><rect class="cls-6" x="1828.84" y="97.6" width="66.51" height="66.49"/><rect class="cls-7" x="1795.59" y="97.59" width="33.26" height="66.5"/><path class="cls-7" d="M1537.89,80.26a99.78,99.78,0,0,0-92.11-61.38v99.75l50.55-21Z" transform="translate(449.57 78.71)"/><path class="cls-5" d="M1537.89,80.26a99.55,99.55,0,0,1,7.65,38.37V77.07Z" transform="translate(449.57 78.71)"/><path class="cls-6" d="M1496.33,97.59l-50.55,21h99.76a99.55,99.55,0,0,0-7.65-38.37Z" transform="translate(449.57 78.71)"/><path class="cls-5" d="M1578.79,18.88v8.89A66.47,66.47,0,0,1,1612,85.37v33.26h33.25V85.37A66.49,66.49,0,0,0,1578.79,18.88Z" transform="translate(449.57 78.71)"/><path class="cls-7" d="M1545.54,18.88v99.75h33.25V27.77A66.17,66.17,0,0,0,1545.54,18.88Z" transform="translate(449.57 78.71)"/><path class="cls-6" d="M1578.79,27.77v90.86H1612V85.37A66.47,66.47,0,0,0,1578.79,27.77Z" transform="translate(449.57 78.71)"/><circle class="cls-7" cx="1845.47" cy="247.22" r="49.88"/><circle class="cls-6" cx="1845.58" cy="247.22" r="21.6"/><polygon class="cls-5" points="1945.23 297.1 1995.11 297.1 1995.11 197.34 1945.23 297.1"/><polygon class="cls-6" points="1895.35 297.1 1945.23 297.1 1895.35 197.34 1895.35 297.1"/><polygon class="cls-7" points="1895.35 197.34 1945.23 297.1 1995.11 197.34 1895.35 197.34"/><path class="cls-7" d="M1545.54,168.51a49.89,49.89,0,0,0,49.87,49.88V118.63A49.88,49.88,0,0,0,1545.54,168.51Z" transform="translate(449.57 78.71)"/><polygon class="cls-8" points="2044.98 197.34 2044.98 197.34 2044.99 197.34 2044.98 197.34"/><polygon class="cls-8" points="2044.98 297.1 2044.99 297.1 2044.98 297.1 2044.98 297.1"/><path class="cls-5" d="M1645.29,167.93v-49.3h-49.87A49.87,49.87,0,0,1,1645.29,167.93Z" transform="translate(449.57 78.71)"/><path class="cls-5" d="M1595.42,218.39h49.87v-49.3A49.87,49.87,0,0,1,1595.42,218.39Z" transform="translate(449.57 78.71)"/><path class="cls-6" d="M1645.29,169.09v-1.16a49.87,49.87,0,0,0-49.87-49.3h0v99.76h0A49.87,49.87,0,0,0,1645.29,169.09Z" transform="translate(449.57 78.71)"/><rect class="cls-4" x="2094.86" width="299.27" height="199.51"/><rect class="cls-5" x="2128.11" y="66.5" width="66.51" height="33.25"/><rect class="cls-6" x="2128.11" y="0.01" width="66.51" height="66.49"/><rect class="cls-7" x="2094.86" width="33.26" height="66.5"/><path class="cls-7" d="M1837.15-17.33a99.77,99.77,0,0,0-92.1-61.38V21l50.54-21Z" transform="translate(449.57 78.71)"/><path class="cls-5" d="M1837.15-17.33A99.36,99.36,0,0,1,1844.8,21V-20.52Z" transform="translate(449.57 78.71)"/><path class="cls-6" d="M1795.59,0l-50.54,21h99.75a99.36,99.36,0,0,0-7.65-38.37Z" transform="translate(449.57 78.71)"/><path class="cls-5" d="M1878.06-78.71v8.89a66.49,66.49,0,0,1,33.25,57.6V21h33.25V-12.22A66.49,66.49,0,0,0,1878.06-78.71Z" transform="translate(449.57 78.71)"/><path class="cls-7" d="M1844.8-78.71V21h33.26V-69.82A66.21,66.21,0,0,0,1844.8-78.71Z" transform="translate(449.57 78.71)"/><path class="cls-6" d="M1878.06-69.82V21h33.25V-12.22A66.49,66.49,0,0,0,1878.06-69.82Z" transform="translate(449.57 78.71)"/><circle class="cls-7" cx="2144.74" cy="149.63" r="49.88"/><circle class="cls-6" cx="2144.85" cy="149.63" r="21.6"/><polygon class="cls-5" points="2244.49 199.51 2294.37 199.51 2294.37 99.75 2244.49 199.51"/><polygon class="cls-6" points="2194.61 199.51 2244.49 199.51 2194.61 99.75 2194.61 199.51"/><polygon class="cls-7" points="2194.61 99.75 2244.49 199.51 2294.37 99.75 2194.61 99.75"/><path class="cls-7" d="M1844.8,70.92a49.89,49.89,0,0,0,49.88,49.88V21A49.88,49.88,0,0,0,1844.8,70.92Z" transform="translate(449.57 78.71)"/><polygon class="cls-8" points="2344.24 99.75 2344.24 99.75 2344.25 99.75 2344.24 99.75"/><polygon class="cls-8" points="2344.24 199.51 2344.25 199.51 2344.24 199.51 2344.24 199.51"/><path class="cls-5" d="M1944.56,70.34V21h-49.87A49.88,49.88,0,0,1,1944.56,70.34Z" transform="translate(449.57 78.71)"/><path class="cls-5" d="M1894.69,120.8h49.87V71.5A49.88,49.88,0,0,1,1894.69,120.8Z" transform="translate(449.57 78.71)"/><path class="cls-6" d="M1944.56,71.5V70.34A49.88,49.88,0,0,0,1894.69,21h0V120.8h0A49.88,49.88,0,0,0,1944.56,71.5Z" transform="translate(449.57 78.71)"/><rect class="cls-4" x="2094.86" y="199.51" width="299.27" height="199.51"/><rect class="cls-5" x="2128.11" y="266.01" width="66.51" height="33.25"/><rect class="cls-6" x="2128.11" y="199.52" width="66.51" height="66.49"/><rect class="cls-7" x="2094.86" y="199.51" width="33.26" height="66.5"/><path class="cls-7" d="M1837.15,182.18a99.77,99.77,0,0,0-92.1-61.38v99.75l50.54-21Z" transform="translate(449.57 78.71)"/><path class="cls-5" d="M1837.15,182.18a99.36,99.36,0,0,1,7.65,38.37V179Z" transform="translate(449.57 78.71)"/><path class="cls-6" d="M1795.59,199.51l-50.54,21h99.75a99.36,99.36,0,0,0-7.65-38.37Z" transform="translate(449.57 78.71)"/><path class="cls-5" d="M1878.06,120.8v8.89a66.49,66.49,0,0,1,33.25,57.6v33.26h33.25V187.29A66.49,66.49,0,0,0,1878.06,120.8Z" transform="translate(449.57 78.71)"/><path class="cls-7" d="M1844.8,120.8v99.75h33.26V129.69A66.31,66.31,0,0,0,1844.8,120.8Z" transform="translate(449.57 78.71)"/><path class="cls-6" d="M1878.06,129.69v90.86h33.25V187.29A66.49,66.49,0,0,0,1878.06,129.69Z" transform="translate(449.57 78.71)"/><circle class="cls-7" cx="2144.74" cy="349.14" r="49.88"/><circle class="cls-6" cx="2144.85" cy="349.14" r="21.6"/><polygon class="cls-5" points="2244.49 399.02 2294.37 399.02 2294.37 299.27 2244.49 399.02"/><polygon class="cls-6" points="2194.61 399.02 2244.49 399.02 2194.61 299.27 2194.61 399.02"/><polygon class="cls-7" points="2194.61 299.27 2244.49 399.02 2294.37 299.27 2194.61 299.27"/><path class="cls-7" d="M1844.8,270.43a49.89,49.89,0,0,0,49.88,49.88V220.55A49.88,49.88,0,0,0,1844.8,270.43Z" transform="translate(449.57 78.71)"/><polygon class="cls-8" points="2344.24 299.27 2344.24 299.27 2344.25 299.27 2344.24 299.27"/><polygon class="cls-8" points="2344.24 399.02 2344.25 399.02 2344.24 399.02 2344.24 399.02"/><path class="cls-5" d="M1944.56,269.85v-49.3h-49.87A49.88,49.88,0,0,1,1944.56,269.85Z" transform="translate(449.57 78.71)"/><path class="cls-5" d="M1894.69,320.31h49.87V271A49.88,49.88,0,0,1,1894.69,320.31Z" transform="translate(449.57 78.71)"/><path class="cls-6" d="M1944.56,271v-1.16a49.88,49.88,0,0,0-49.87-49.3h0v99.76h0A49.88,49.88,0,0,0,1944.56,271Z" transform="translate(449.57 78.71)"/><rect class="cls-4" x="1197.06" y="97.59" width="299.27" height="199.51"/><rect class="cls-5" x="1230.31" y="164.09" width="66.51" height="33.25"/><rect class="cls-6" x="1230.31" y="97.6" width="66.51" height="66.49"/><rect class="cls-7" x="1197.06" y="97.59" width="33.26" height="66.5"/><path class="cls-7" d="M939.35,80.26a99.76,99.76,0,0,0-92.1-61.38v99.75l50.55-21Z" transform="translate(449.57 78.71)"/><path class="cls-5" d="M939.35,80.26A99.37,99.37,0,0,1,947,118.63V77.07Z" transform="translate(449.57 78.71)"/><path class="cls-6" d="M897.8,97.59l-50.55,21H947a99.37,99.37,0,0,0-7.66-38.37Z" transform="translate(449.57 78.71)"/><path class="cls-5" d="M980.26,18.88v8.89a66.47,66.47,0,0,1,33.25,57.6v33.26h33.25V85.37A66.49,66.49,0,0,0,980.26,18.88Z" transform="translate(449.57 78.71)"/><path class="cls-7" d="M947,18.88v99.75h33.25V27.77A66.17,66.17,0,0,0,947,18.88Z" transform="translate(449.57 78.71)"/><path class="cls-6" d="M980.26,27.77v90.86h33.25V85.37A66.47,66.47,0,0,0,980.26,27.77Z" transform="translate(449.57 78.71)"/><circle class="cls-7" cx="1246.94" cy="247.22" r="49.88"/><circle class="cls-6" cx="1247.05" cy="247.22" r="21.6"/><polygon class="cls-5" points="1346.7 297.1 1396.57 297.1 1396.57 197.34 1346.7 297.1"/><polygon class="cls-6" points="1296.82 297.1 1346.7 297.1 1296.82 197.34 1296.82 297.1"/><polygon class="cls-7" points="1296.82 197.34 1346.7 297.1 1396.57 197.34 1296.82 197.34"/><path class="cls-7" d="M947,168.51a49.89,49.89,0,0,0,49.87,49.88V118.63A49.88,49.88,0,0,0,947,168.51Z" transform="translate(449.57 78.71)"/><polygon class="cls-8" points="1446.45 197.34 1446.45 197.34 1446.45 197.34 1446.45 197.34"/><polygon class="cls-8" points="1446.45 297.1 1446.45 297.1 1446.45 297.1 1446.45 297.1"/><path class="cls-5" d="M1046.76,167.93v-49.3H996.89A49.88,49.88,0,0,1,1046.76,167.93Z" transform="translate(449.57 78.71)"/><path class="cls-5" d="M996.89,218.39h49.87v-49.3A49.88,49.88,0,0,1,996.89,218.39Z" transform="translate(449.57 78.71)"/><path class="cls-6" d="M1046.76,169.09v-1.16a49.88,49.88,0,0,0-49.87-49.3h0v99.76h0A49.88,49.88,0,0,0,1046.76,169.09Z" transform="translate(449.57 78.71)"/><rect class="cls-4" x="1496.33" width="299.27" height="199.51"/><rect class="cls-5" x="1529.57" y="66.5" width="66.51" height="33.25"/><rect class="cls-6" x="1529.57" y="0.01" width="66.51" height="66.49"/><rect class="cls-7" x="1496.33" width="33.26" height="66.5"/><path class="cls-7" d="M1238.62-17.33a99.77,99.77,0,0,0-92.1-61.38V21l50.54-21Z" transform="translate(449.57 78.71)"/><path class="cls-5" d="M1238.62-17.33A99.36,99.36,0,0,1,1246.27,21V-20.52Z" transform="translate(449.57 78.71)"/><path class="cls-6" d="M1197.06,0l-50.54,21h99.75a99.36,99.36,0,0,0-7.65-38.37Z" transform="translate(449.57 78.71)"/><path class="cls-5" d="M1279.53-78.71v8.89a66.49,66.49,0,0,1,33.25,57.6V21H1346V-12.22A66.49,66.49,0,0,0,1279.53-78.71Z" transform="translate(449.57 78.71)"/><path class="cls-7" d="M1246.27-78.71V21h33.26V-69.82A66.21,66.21,0,0,0,1246.27-78.71Z" transform="translate(449.57 78.71)"/><path class="cls-6" d="M1279.53-69.82V21h33.25V-12.22A66.49,66.49,0,0,0,1279.53-69.82Z" transform="translate(449.57 78.71)"/><circle class="cls-7" cx="1546.21" cy="149.63" r="49.88"/><circle class="cls-6" cx="1546.32" cy="149.63" r="21.6"/><polygon class="cls-5" points="1645.96 199.51 1695.84 199.51 1695.84 99.75 1645.96 199.51"/><polygon class="cls-6" points="1596.08 199.51 1645.96 199.51 1596.08 99.75 1596.08 199.51"/><polygon class="cls-7" points="1596.08 99.75 1645.96 199.51 1695.84 99.75 1596.08 99.75"/><path class="cls-7" d="M1246.27,70.92a49.89,49.89,0,0,0,49.88,49.88V21A49.88,49.88,0,0,0,1246.27,70.92Z" transform="translate(449.57 78.71)"/><polygon class="cls-8" points="1745.71 99.75 1745.71 99.75 1745.72 99.75 1745.71 99.75"/><polygon class="cls-8" points="1745.71 199.51 1745.72 199.51 1745.71 199.51 1745.71 199.51"/><path class="cls-5" d="M1346,70.34V21h-49.88A49.88,49.88,0,0,1,1346,70.34Z" transform="translate(449.57 78.71)"/><path class="cls-5" d="M1296.15,120.8H1346V71.5A49.88,49.88,0,0,1,1296.15,120.8Z" transform="translate(449.57 78.71)"/><path class="cls-6" d="M1346,71.5V70.34A49.88,49.88,0,0,0,1296.15,21h0V120.8h0A49.88,49.88,0,0,0,1346,71.5Z" transform="translate(449.57 78.71)"/><rect class="cls-4" x="1496.33" y="199.51" width="299.27" height="199.51"/><rect class="cls-5" x="1529.57" y="266.01" width="66.51" height="33.25"/><rect class="cls-6" x="1529.57" y="199.52" width="66.51" height="66.49"/><rect class="cls-7" x="1496.33" y="199.51" width="33.26" height="66.5"/><path class="cls-7" d="M1238.62,182.18a99.77,99.77,0,0,0-92.1-61.38v99.75l50.54-21Z" transform="translate(449.57 78.71)"/><path class="cls-5" d="M1238.62,182.18a99.36,99.36,0,0,1,7.65,38.37V179Z" transform="translate(449.57 78.71)"/><path class="cls-6" d="M1197.06,199.51l-50.54,21h99.75a99.36,99.36,0,0,0-7.65-38.37Z" transform="translate(449.57 78.71)"/><path class="cls-5" d="M1279.53,120.8v8.89a66.49,66.49,0,0,1,33.25,57.6v33.26H1346V187.29A66.49,66.49,0,0,0,1279.53,120.8Z" transform="translate(449.57 78.71)"/><path class="cls-7" d="M1246.27,120.8v99.75h33.26V129.69A66.31,66.31,0,0,0,1246.27,120.8Z" transform="translate(449.57 78.71)"/><path class="cls-6" d="M1279.53,129.69v90.86h33.25V187.29A66.49,66.49,0,0,0,1279.53,129.69Z" transform="translate(449.57 78.71)"/><circle class="cls-7" cx="1546.21" cy="349.14" r="49.88"/><circle class="cls-6" cx="1546.32" cy="349.14" r="21.6"/><polygon class="cls-5" points="1645.96 399.02 1695.84 399.02 1695.84 299.27 1645.96 399.02"/><polygon class="cls-6" points="1596.08 399.02 1645.96 399.02 1596.08 299.27 1596.08 399.02"/><polygon class="cls-7" points="1596.08 299.27 1645.96 399.02 1695.84 299.27 1596.08 299.27"/><path class="cls-7" d="M1246.27,270.43a49.89,49.89,0,0,0,49.88,49.88V220.55A49.88,49.88,0,0,0,1246.27,270.43Z" transform="translate(449.57 78.71)"/><polygon class="cls-8" points="1745.71 299.27 1745.71 299.27 1745.72 299.27 1745.71 299.27"/><polygon class="cls-8" points="1745.71 399.02 1745.72 399.02 1745.71 399.02 1745.71 399.02"/><path class="cls-5" d="M1346,269.85v-49.3h-49.88A49.88,49.88,0,0,1,1346,269.85Z" transform="translate(449.57 78.71)"/><path class="cls-5" d="M1296.15,320.31H1346V271A49.88,49.88,0,0,1,1296.15,320.31Z" transform="translate(449.57 78.71)"/><path class="cls-6" d="M1346,271v-1.16a49.88,49.88,0,0,0-49.88-49.3h0v99.76h0A49.88,49.88,0,0,0,1346,271Z" transform="translate(449.57 78.71)"/><rect class="cls-4" x="897.8" width="299.27" height="199.51"/><rect class="cls-5" x="931.04" y="66.5" width="66.51" height="33.25"/><rect class="cls-6" x="931.04" y="0.01" width="66.51" height="66.49"/><rect class="cls-7" x="897.8" width="33.26" height="66.5"/><path class="cls-7" d="M640.09-17.33A99.78,99.78,0,0,0,548-78.71V21L598.53,0Z" transform="translate(449.57 78.71)"/><path class="cls-5" d="M640.09-17.33A99.36,99.36,0,0,1,647.74,21V-20.52Z" transform="translate(449.57 78.71)"/><path class="cls-6" d="M598.53,0,548,21h99.75a99.36,99.36,0,0,0-7.65-38.37Z" transform="translate(449.57 78.71)"/><path class="cls-5" d="M681-78.71v8.89a66.48,66.48,0,0,1,33.26,57.6V21H747.5V-12.22A66.5,66.5,0,0,0,681-78.71Z" transform="translate(449.57 78.71)"/><path class="cls-7" d="M647.74-78.71V21H681V-69.82A66.15,66.15,0,0,0,647.74-78.71Z" transform="translate(449.57 78.71)"/><path class="cls-6" d="M681-69.82V21h33.26V-12.22A66.48,66.48,0,0,0,681-69.82Z" transform="translate(449.57 78.71)"/><circle class="cls-7" cx="947.67" cy="149.63" r="49.88"/><circle class="cls-6" cx="947.79" cy="149.63" r="21.6"/><polygon class="cls-5" points="1047.43 199.51 1097.31 199.51 1097.31 99.75 1047.43 199.51"/><polygon class="cls-6" points="997.55 199.51 1047.43 199.51 997.55 99.75 997.55 199.51"/><polygon class="cls-7" points="997.55 99.75 1047.43 199.51 1097.31 99.75 997.55 99.75"/><path class="cls-7" d="M647.74,70.92a49.89,49.89,0,0,0,49.88,49.88V21A49.88,49.88,0,0,0,647.74,70.92Z" transform="translate(449.57 78.71)"/><polygon class="cls-8" points="1147.18 99.75 1147.18 99.75 1147.19 99.75 1147.18 99.75"/><polygon class="cls-8" points="1147.18 199.51 1147.19 199.51 1147.18 199.51 1147.18 199.51"/><path class="cls-5" d="M747.5,70.34V21H697.62A49.88,49.88,0,0,1,747.5,70.34Z" transform="translate(449.57 78.71)"/><path class="cls-5" d="M697.62,120.8H747.5V71.5A49.88,49.88,0,0,1,697.62,120.8Z" transform="translate(449.57 78.71)"/><path class="cls-6" d="M747.5,71.5V70.34A49.88,49.88,0,0,0,697.62,21h0V120.8h0A49.88,49.88,0,0,0,747.5,71.5Z" transform="translate(449.57 78.71)"/><rect class="cls-4" x="897.8" y="199.51" width="299.27" height="199.51"/><rect class="cls-5" x="931.04" y="266.01" width="66.51" height="33.25"/><rect class="cls-6" x="931.04" y="199.52" width="66.51" height="66.49"/><rect class="cls-7" x="897.8" y="199.51" width="33.26" height="66.5"/><path class="cls-7" d="M640.09,182.18A99.78,99.78,0,0,0,548,120.8v99.75l50.54-21Z" transform="translate(449.57 78.71)"/><path class="cls-5" d="M640.09,182.18a99.36,99.36,0,0,1,7.65,38.37V179Z" transform="translate(449.57 78.71)"/><path class="cls-6" d="M598.53,199.51l-50.54,21h99.75a99.36,99.36,0,0,0-7.65-38.37Z" transform="translate(449.57 78.71)"/><path class="cls-5" d="M681,120.8v8.89a66.48,66.48,0,0,1,33.26,57.6v33.26H747.5V187.29A66.5,66.5,0,0,0,681,120.8Z" transform="translate(449.57 78.71)"/><path class="cls-7" d="M647.74,120.8v99.75H681V129.69A66.25,66.25,0,0,0,647.74,120.8Z" transform="translate(449.57 78.71)"/><path class="cls-6" d="M681,129.69v90.86h33.26V187.29A66.48,66.48,0,0,0,681,129.69Z" transform="translate(449.57 78.71)"/><circle class="cls-7" cx="947.67" cy="349.14" r="49.88"/><circle class="cls-6" cx="947.79" cy="349.14" r="21.6"/><polygon class="cls-5" points="1047.43 399.02 1097.31 399.02 1097.31 299.27 1047.43 399.02"/><polygon class="cls-6" points="997.55 399.02 1047.43 399.02 997.55 299.27 997.55 399.02"/><polygon class="cls-7" points="997.55 299.27 1047.43 399.02 1097.31 299.27 997.55 299.27"/><path class="cls-7" d="M647.74,270.43a49.89,49.89,0,0,0,49.88,49.88V220.55A49.88,49.88,0,0,0,647.74,270.43Z" transform="translate(449.57 78.71)"/><polygon class="cls-8" points="1147.18 299.27 1147.18 299.27 1147.19 299.27 1147.18 299.27"/><polygon class="cls-8" points="1147.18 399.02 1147.19 399.02 1147.18 399.02 1147.18 399.02"/><path class="cls-5" d="M747.5,269.85v-49.3H697.62A49.88,49.88,0,0,1,747.5,269.85Z" transform="translate(449.57 78.71)"/><path class="cls-5" d="M697.62,320.31H747.5V271A49.88,49.88,0,0,1,697.62,320.31Z" transform="translate(449.57 78.71)"/><path class="cls-6" d="M747.5,271v-1.16a49.88,49.88,0,0,0-49.88-49.3h0v99.76h0A49.88,49.88,0,0,0,747.5,271Z" transform="translate(449.57 78.71)"/><rect class="cls-4" y="97.59" width="299.27" height="199.51"/><rect class="cls-5" x="33.24" y="164.09" width="66.51" height="33.25"/><rect class="cls-6" x="33.25" y="97.6" width="66.51" height="66.49"/><rect class="cls-7" y="97.59" width="33.26" height="66.5"/><path class="cls-7" d="M-257.71,80.26a99.77,99.77,0,0,0-92.1-61.38v99.75l50.54-21Z" transform="translate(449.57 78.71)"/><path class="cls-5" d="M-257.71,80.26a99.36,99.36,0,0,1,7.65,38.37V77.07Z" transform="translate(449.57 78.71)"/><path class="cls-6" d="M-299.27,97.59l-50.54,21h99.75a99.36,99.36,0,0,0-7.65-38.37Z" transform="translate(449.57 78.71)"/><path class="cls-5" d="M-216.8,18.88v8.89a66.49,66.49,0,0,1,33.25,57.6v33.26h33.25V85.37A66.49,66.49,0,0,0-216.8,18.88Z" transform="translate(449.57 78.71)"/><path class="cls-7" d="M-250.06,18.88v99.75h33.26V27.77A66.21,66.21,0,0,0-250.06,18.88Z" transform="translate(449.57 78.71)"/><path class="cls-6" d="M-216.8,27.77v90.86h33.25V85.37A66.49,66.49,0,0,0-216.8,27.77Z" transform="translate(449.57 78.71)"/><circle class="cls-7" cx="49.88" cy="247.22" r="49.88"/><circle class="cls-6" cx="49.99" cy="247.22" r="21.6"/><polygon class="cls-5" points="149.63 297.1 199.51 297.1 199.51 197.34 149.63 297.1"/><polygon class="cls-6" points="99.75 297.1 149.63 297.1 99.75 197.34 99.75 297.1"/><polygon class="cls-7" points="99.75 197.34 149.63 297.1 199.51 197.34 99.75 197.34"/><path class="cls-7" d="M-250.06,168.51a49.89,49.89,0,0,0,49.88,49.88V118.63A49.88,49.88,0,0,0-250.06,168.51Z" transform="translate(449.57 78.71)"/><polygon class="cls-8" points="249.38 197.34 249.38 197.34 249.39 197.34 249.38 197.34"/><polygon class="cls-8" points="249.38 297.1 249.39 297.1 249.38 297.1 249.38 297.1"/><path class="cls-5" d="M-150.3,167.93v-49.3h-49.87A49.88,49.88,0,0,1-150.3,167.93Z" transform="translate(449.57 78.71)"/><path class="cls-5" d="M-200.17,218.39h49.87v-49.3A49.88,49.88,0,0,1-200.17,218.39Z" transform="translate(449.57 78.71)"/><path class="cls-6" d="M-150.3,169.09v-1.16a49.88,49.88,0,0,0-49.87-49.3h0v99.76h0A49.88,49.88,0,0,0-150.3,169.09Z" transform="translate(449.57 78.71)"/><rect class="cls-4" x="299.27" width="299.27" height="199.51"/><rect class="cls-5" x="332.51" y="66.5" width="66.51" height="33.25"/><rect class="cls-6" x="332.51" y="0.01" width="66.51" height="66.49"/><rect class="cls-7" x="299.27" width="33.26" height="66.5"/><path class="cls-7" d="M41.56-17.33a99.78,99.78,0,0,0-92.1-61.38V21L0,0Z" transform="translate(449.57 78.71)"/><path class="cls-5" d="M41.56-17.33A99.36,99.36,0,0,1,49.21,21V-20.52Z" transform="translate(449.57 78.71)"/><path class="cls-6" d="M0,0-50.54,21H49.21a99.36,99.36,0,0,0-7.65-38.37Z" transform="translate(449.57 78.71)"/><path class="cls-5" d="M82.46-78.71v8.89a66.47,66.47,0,0,1,33.25,57.6V21H149V-12.22A66.5,66.5,0,0,0,82.46-78.71Z" transform="translate(449.57 78.71)"/><path class="cls-7" d="M49.21-78.71V21H82.46V-69.82A66.17,66.17,0,0,0,49.21-78.71Z" transform="translate(449.57 78.71)"/><path class="cls-6" d="M82.46-69.82V21h33.25V-12.22A66.47,66.47,0,0,0,82.46-69.82Z" transform="translate(449.57 78.71)"/><circle class="cls-7" cx="349.14" cy="149.63" r="49.88"/><circle class="cls-6" cx="349.25" cy="149.63" r="21.6"/><polygon class="cls-5" points="448.9 199.51 498.78 199.51 498.78 99.75 448.9 199.51"/><polygon class="cls-6" points="399.02 199.51 448.9 199.51 399.02 99.75 399.02 199.51"/><polygon class="cls-7" points="399.02 99.75 448.9 199.51 498.78 99.75 399.02 99.75"/><path class="cls-7" d="M49.21,70.92A49.89,49.89,0,0,0,99.08,120.8V21A49.88,49.88,0,0,0,49.21,70.92Z" transform="translate(449.57 78.71)"/><polygon class="cls-8" points="548.65 99.75 548.65 99.75 548.66 99.75 548.65 99.75"/><polygon class="cls-8" points="548.65 199.51 548.66 199.51 548.65 199.51 548.65 199.51"/><path class="cls-5" d="M149,70.34V21H99.09A49.89,49.89,0,0,1,149,70.34Z" transform="translate(449.57 78.71)"/><path class="cls-5" d="M99.09,120.8H149V71.5A49.89,49.89,0,0,1,99.09,120.8Z" transform="translate(449.57 78.71)"/><path class="cls-6" d="M149,71.5V70.34A49.89,49.89,0,0,0,99.09,21h0V120.8h0A49.89,49.89,0,0,0,149,71.5Z" transform="translate(449.57 78.71)"/><rect class="cls-4" x="299.27" y="199.51" width="299.27" height="199.51"/><rect class="cls-5" x="332.51" y="266.01" width="66.51" height="33.25"/><rect class="cls-6" x="332.51" y="199.52" width="66.51" height="66.49"/><rect class="cls-7" x="299.27" y="199.51" width="33.26" height="66.5"/><path class="cls-7" d="M41.56,182.18a99.78,99.78,0,0,0-92.1-61.38v99.75L0,199.51Z" transform="translate(449.57 78.71)"/><path class="cls-5" d="M41.56,182.18a99.36,99.36,0,0,1,7.65,38.37V179Z" transform="translate(449.57 78.71)"/><path class="cls-6" d="M0,199.51l-50.54,21H49.21a99.36,99.36,0,0,0-7.65-38.37Z" transform="translate(449.57 78.71)"/><path class="cls-5" d="M82.46,120.8v8.89a66.47,66.47,0,0,1,33.25,57.6v33.26H149V187.29A66.5,66.5,0,0,0,82.46,120.8Z" transform="translate(449.57 78.71)"/><path class="cls-7" d="M49.21,120.8v99.75H82.46V129.69A66.28,66.28,0,0,0,49.21,120.8Z" transform="translate(449.57 78.71)"/><path class="cls-6" d="M82.46,129.69v90.86h33.25V187.29A66.47,66.47,0,0,0,82.46,129.69Z" transform="translate(449.57 78.71)"/><circle class="cls-7" cx="349.14" cy="349.14" r="49.88"/><circle class="cls-6" cx="349.25" cy="349.14" r="21.6"/><polygon class="cls-5" points="448.9 399.02 498.78 399.02 498.78 299.27 448.9 399.02"/><polygon class="cls-6" points="399.02 399.02 448.9 399.02 399.02 299.27 399.02 399.02"/><polygon class="cls-7" points="399.02 299.27 448.9 399.02 498.78 299.27 399.02 299.27"/><path class="cls-7" d="M49.21,270.43a49.89,49.89,0,0,0,49.87,49.88V220.55A49.88,49.88,0,0,0,49.21,270.43Z" transform="translate(449.57 78.71)"/><polygon class="cls-8" points="548.65 299.27 548.65 299.27 548.66 299.27 548.65 299.27"/><polygon class="cls-8" points="548.65 399.02 548.66 399.02 548.65 399.02 548.65 399.02"/><path class="cls-5" d="M149,269.85v-49.3H99.09A49.89,49.89,0,0,1,149,269.85Z" transform="translate(449.57 78.71)"/><path class="cls-5" d="M99.09,320.31H149V271A49.89,49.89,0,0,1,99.09,320.31Z" transform="translate(449.57 78.71)"/><path class="cls-6" d="M149,271v-1.16a49.89,49.89,0,0,0-49.88-49.3h0v99.76h0A49.89,49.89,0,0,0,149,271Z" transform="translate(449.57 78.71)"/><rect class="cls-9" x="1795.41" y="97.32" width="33.9" height="66.96"/><rect class="cls-10" x="1396.27" y="69.04" width="33.06" height="66.12" transform="translate(1964.47 -1231.99) rotate(90)"/><rect class="cls-11" x="1379.74" y="18.61" width="66.12" height="66.96" transform="translate(3275.17 182.89) rotate(180)"/><path class="cls-12" d="M1445.86,118.63h100.23a97.61,97.61,0,0,0-7.9-38.57Z" transform="translate(449.57 78.71)"/><path class="cls-11" d="M1579.19,18.61V27.4c21.9,12.93,33.1,37.5,33.1,55.58v35.65h33.1V83C1645.39,57.33,1622.84,18.61,1579.19,18.61Z" transform="translate(449.57 78.71)"/><circle class="cls-13" cx="1846.05" cy="247.36" r="50.01"/><polygon class="cls-9" points="1895.53 197.34 1895.53 297.37 1945.28 297.37 1895.53 197.34"/><polygon class="cls-14" points="1995.03 197.34 1995.03 297.37 1945.28 297.37 1995.03 197.34"/><polygon class="cls-10" points="1895.53 197.34 1995.03 197.34 1945.28 297.37 1895.53 197.34"/><path class="cls-15" d="M1545.46,168.64a50,50,0,0,0,50,50v-100A50,50,0,0,0,1545.46,168.64Z" transform="translate(449.57 78.71)"/><path class="cls-16" d="M1445.86,18.61v100l92.33-38.57C1522.53,43.49,1485.57,18.61,1445.86,18.61Z" transform="translate(449.57 78.71)"/><path class="cls-17" d="M1538.19,80.06a97.61,97.61,0,0,1,7.9,38.57V76.76Z" transform="translate(449.57 78.71)"/><path class="cls-9" d="M1546.09,18.61v100h33.1V27.4A64.17,64.17,0,0,0,1546.09,18.61Z" transform="translate(449.57 78.71)"/><path class="cls-10" d="M1579.19,27.4v91.23h33.1V83C1612.29,64.9,1601.09,40.33,1579.19,27.4Z" transform="translate(449.57 78.71)"/><path class="cls-17" d="M1595.47,118.63v100a50,50,0,0,0,0-100Z" transform="translate(449.57 78.71)"/><path class="cls-12" d="M1595.47,118.63a50,50,0,0,1,50,50v-50Z" transform="translate(449.57 78.71)"/><path class="cls-12" d="M1595.47,218.65h50v-50A50,50,0,0,1,1595.47,218.65Z" transform="translate(449.57 78.71)"/><circle class="cls-9" cx="1846.05" cy="247.36" r="21.63"/></g></g></g></g></svg>