<svg xmlns="http://www.w3.org/2000/svg" viewBox="0 0 299.27 199.51"><defs><style>.cls-1{fill:#151e22;}.cls-2{fill:#1b292d;}.cls-3{fill:#222e33;}.cls-4{fill:#2b3740;}</style></defs><g id="Capa_2" data-name="Capa 2"><g id="Capa_1-2" data-name="Capa 1"><rect class="cls-1" width="299.27" height="199.51"/><rect class="cls-2" x="33.24" y="66.5" width="66.51" height="33.25"/><rect class="cls-3" x="33.25" y="0.01" width="66.51" height="66.49"/><rect class="cls-4" width="33.26" height="66.5"/><path class="cls-4" d="M191.86,61.38A99.79,99.79,0,0,0,99.76,0V99.76L150.3,78.71Z"/><path class="cls-3" d="M150.3,78.71,99.76,99.76h99.75a99.45,99.45,0,0,0-7.65-38.38Z"/><path class="cls-2" d="M232.76,0V8.9A66.44,66.44,0,0,1,266,66.49V99.76h33.26V66.49A66.5,66.5,0,0,0,232.76,0Z"/><path class="cls-4" d="M199.51,0V99.76h33.25V8.9A66.18,66.18,0,0,0,199.51,0Z"/><path class="cls-3" d="M232.76,8.9V99.76H266V66.49A66.44,66.44,0,0,0,232.76,8.9Z"/><circle class="cls-4" cx="49.88" cy="149.63" r="49.88"/><polygon class="cls-2" points="149.63 199.51 199.51 199.51 199.51 99.75 149.63 199.51"/><polygon class="cls-3" points="99.75 199.51 149.63 199.51 99.75 99.75 99.75 199.51"/><polygon class="cls-4" points="99.75 99.75 149.63 199.51 199.51 99.75 99.75 99.75"/><path class="cls-4" d="M199.51,149.63a49.88,49.88,0,0,0,49.87,49.88V99.76A49.87,49.87,0,0,0,199.51,149.63Z"/><path class="cls-3" d="M299.27,150.21v-1.16a49.88,49.88,0,0,0-49.88-49.29h0v99.75h0A49.89,49.89,0,0,0,299.27,150.21Z"/></g></g></svg>