<svg xmlns="http://www.w3.org/2000/svg" xmlns:xlink="http://www.w3.org/1999/xlink" width="1944.56" height="793.14" viewBox="0 0 1944.56 793.14"><defs><clipPath id="a"><rect width="1944.56" height="793.14" transform="translate(-6.975 1639.004)" fill="none"/></clipPath></defs><g transform="translate(33.975 -1863.004)" style="mix-blend-mode:multiply;isolation:isolate"><g transform="translate(-27 224)" clip-path="url(#a)"><rect width="299.266" height="199.51" transform="translate(141.991 1638.443)" fill="#151e22"/><rect width="66.51" height="33.252" transform="translate(175.236 1704.947)" fill="#1b292d"/><rect width="66.51" height="66.494" transform="translate(175.236 1638.453)" fill="#222e33"/><rect width="33.256" height="66.503" transform="translate(141.991 1638.443)" fill="#2b3740"/><path d="M333.848,1699.826a99.781,99.781,0,0,0-92.1-61.383V1738.2l50.545-21.041Z" fill="#2b3740"/><path d="M333.848,1699.826A99.432,99.432,0,0,1,341.5,1738.2v-41.565Z" fill="#1b292d"/><path d="M292.291,1717.158,241.746,1738.2H341.5a99.432,99.432,0,0,0-7.653-38.373Z" fill="#222e33"/><path d="M374.753,1638.443v8.9a66.463,66.463,0,0,1,33.252,57.594V1738.2h33.251v-33.264A66.5,66.5,0,0,0,374.753,1638.443Z" fill="#1b292d"/><path d="M341.5,1638.443V1738.2h33.252v-90.858A66.2,66.2,0,0,0,341.5,1638.443Z" fill="#2b3740"/><path d="M374.753,1647.341V1738.2h33.252v-33.264A66.463,66.463,0,0,0,374.753,1647.341Z" fill="#222e33"/><circle cx="49.878" cy="49.878" r="49.878" transform="translate(141.991 1738.199)" fill="#2b3740"/><circle cx="21.596" cy="21.596" r="21.596" transform="translate(170.382 1766.48)" fill="#222e33"/><path d="M291.624,1837.953H341.5V1738.2Z" fill="#1b292d"/><path d="M241.746,1837.954h49.878L241.746,1738.2Z" fill="#222e33"/><path d="M241.746,1738.2l49.878,99.754L341.5,1738.2Z" fill="#2b3740"/><path d="M341.5,1788.076a49.88,49.88,0,0,0,49.874,49.878V1738.2A49.879,49.879,0,0,0,341.5,1788.076Z" fill="#2b3740"/><path d="M391.375,1738.2Z" fill="#333f48" style="mix-blend-mode:hard-light;isolation:isolate"/><path d="M391.375,1837.954h0Z" fill="#333f48" style="mix-blend-mode:hard-light;isolation:isolate"/><path d="M441.256,1787.5v-49.3H391.383A49.876,49.876,0,0,1,441.256,1787.5Z" fill="#1b292d"/><path d="M391.383,1837.954h49.873v-49.3A49.876,49.876,0,0,1,391.383,1837.954Z" fill="#1b292d"/><path d="M441.256,1788.657V1787.5a49.876,49.876,0,0,0-49.873-49.3h-.008v99.755h.008A49.876,49.876,0,0,0,441.256,1788.657Z" fill="#222e33"/><rect width="299.266" height="199.51" transform="translate(1339.054 1638.443)" fill="#151e22"/><rect width="66.51" height="33.252" transform="translate(1372.299 1704.947)" fill="#1b292d"/><rect width="66.51" height="66.494" transform="translate(1372.299 1638.453)" fill="#222e33"/><rect width="33.256" height="66.503" transform="translate(1339.054 1638.443)" fill="#2b3740"/><path d="M1530.911,1699.826a99.781,99.781,0,0,0-92.1-61.383V1738.2l50.545-21.041Z" fill="#2b3740"/><path d="M1530.911,1699.826a99.432,99.432,0,0,1,7.653,38.373v-41.565Z" fill="#1b292d"/><path d="M1489.354,1717.158l-50.545,21.041h99.755a99.432,99.432,0,0,0-7.653-38.373Z" fill="#222e33"/><path d="M1571.816,1638.443v8.9a66.463,66.463,0,0,1,33.252,57.594V1738.2h33.251v-33.264A66.5,66.5,0,0,0,1571.816,1638.443Z" fill="#1b292d"/><path d="M1538.564,1638.443V1738.2h33.252v-90.858A66.2,66.2,0,0,0,1538.564,1638.443Z" fill="#2b3740"/><path d="M1571.816,1647.341V1738.2h33.252v-33.264A66.463,66.463,0,0,0,1571.816,1647.341Z" fill="#222e33"/><circle cx="49.878" cy="49.878" r="49.878" transform="translate(1339.054 1738.199)" fill="#2b3740"/><circle cx="21.596" cy="21.596" r="21.596" transform="translate(1367.445 1766.48)" fill="#222e33"/><path d="M1488.687,1837.953h49.878V1738.2Z" fill="#1b292d"/><path d="M1438.809,1837.954h49.878l-49.878-99.754Z" fill="#222e33"/><path d="M1438.809,1738.2l49.878,99.754,49.878-99.754Z" fill="#2b3740"/><path d="M1538.564,1788.076a49.88,49.88,0,0,0,49.874,49.878V1738.2A49.879,49.879,0,0,0,1538.564,1788.076Z" fill="#2b3740"/><path d="M1588.438,1738.2Z" fill="#333f48" style="mix-blend-mode:hard-light;isolation:isolate"/><path d="M1588.438,1837.954h0Z" fill="#333f48" style="mix-blend-mode:hard-light;isolation:isolate"/><path d="M1638.319,1787.5v-49.3h-49.873A49.876,49.876,0,0,1,1638.319,1787.5Z" fill="#1b292d"/><path d="M1588.446,1837.954h49.873v-49.3A49.876,49.876,0,0,1,1588.446,1837.954Z" fill="#1b292d"/><path d="M1638.319,1788.657V1787.5a49.876,49.876,0,0,0-49.873-49.3h-.008v99.755h.008A49.876,49.876,0,0,0,1638.319,1788.657Z" fill="#222e33"/><rect width="299.266" height="199.51" transform="translate(1638.319 1540.853)" fill="#151e22"/><rect width="66.51" height="33.252" transform="translate(1671.564 1607.357)" fill="#1b292d"/><rect width="66.51" height="66.494" transform="translate(1671.565 1540.863)" fill="#222e33"/><rect width="33.256" height="66.503" transform="translate(1638.319 1540.853)" fill="#2b3740"/><path d="M1830.177,1602.236a99.78,99.78,0,0,0-92.1-61.383v99.756l50.545-21.041Z" fill="#2b3740"/><path d="M1830.177,1602.236a99.433,99.433,0,0,1,7.653,38.373v-41.565Z" fill="#1b292d"/><path d="M1788.62,1619.568l-50.545,21.041h99.755a99.433,99.433,0,0,0-7.653-38.373Z" fill="#222e33"/><path d="M1871.082,1540.853v8.9a66.462,66.462,0,0,1,33.251,57.594v33.264h33.252v-33.264A66.5,66.5,0,0,0,1871.082,1540.853Z" fill="#1b292d"/><path d="M1837.83,1540.853v99.756h33.252v-90.858A66.2,66.2,0,0,0,1837.83,1540.853Z" fill="#2b3740"/><path d="M1871.082,1549.751v90.858h33.251v-33.264A66.462,66.462,0,0,0,1871.082,1549.751Z" fill="#222e33"/><circle cx="49.878" cy="49.878" r="49.878" transform="translate(1638.319 1640.609)" fill="#2b3740"/><circle cx="21.596" cy="21.596" r="21.596" transform="translate(1666.711 1668.89)" fill="#222e33"/><path d="M1787.952,1740.363h49.878v-99.755Z" fill="#1b292d"/><path d="M1738.075,1740.364h49.878l-49.878-99.755Z" fill="#222e33"/><path d="M1738.075,1640.609l49.878,99.755,49.878-99.755Z" fill="#2b3740"/><path d="M1837.83,1690.486a49.88,49.88,0,0,0,49.874,49.878v-99.755A49.879,49.879,0,0,0,1837.83,1690.486Z" fill="#2b3740"/><path d="M1887.7,1640.609h0Z" fill="#333f48" style="mix-blend-mode:hard-light;isolation:isolate"/><path d="M1887.7,1740.364h0Z" fill="#333f48" style="mix-blend-mode:hard-light;isolation:isolate"/><path d="M1937.585,1689.906v-49.3h-49.874A49.876,49.876,0,0,1,1937.585,1689.906Z" fill="#1b292d"/><path d="M1887.711,1740.364h49.874v-49.3A49.877,49.877,0,0,1,1887.711,1740.364Z" fill="#1b292d"/><path d="M1937.585,1691.067v-1.161a49.876,49.876,0,0,0-49.874-49.3h-.007v99.755h.007A49.877,49.877,0,0,0,1937.585,1691.067Z" fill="#222e33"/><rect width="299.266" height="199.51" transform="translate(1638.319 1740.364)" fill="#151e22"/><rect width="66.51" height="33.252" transform="translate(1671.564 1806.867)" fill="#1b292d"/><rect width="66.51" height="66.494" transform="translate(1671.565 1740.374)" fill="#222e33"/><rect width="33.256" height="66.503" transform="translate(1638.319 1740.364)" fill="#2b3740"/><path d="M1830.177,1801.746a99.781,99.781,0,0,0-92.1-61.382v99.755l50.545-21.04Z" fill="#2b3740"/><path d="M1830.177,1801.746a99.433,99.433,0,0,1,7.653,38.373v-41.565Z" fill="#1b292d"/><path d="M1788.62,1819.079l-50.545,21.04h99.755a99.433,99.433,0,0,0-7.653-38.373Z" fill="#222e33"/><path d="M1871.082,1740.364v8.9a66.463,66.463,0,0,1,33.251,57.595v33.263h33.252v-33.263A66.5,66.5,0,0,0,1871.082,1740.364Z" fill="#1b292d"/><path d="M1837.83,1740.364v99.755h33.252v-90.858A66.212,66.212,0,0,0,1837.83,1740.364Z" fill="#2b3740"/><path d="M1871.082,1749.261v90.858h33.251v-33.263A66.463,66.463,0,0,0,1871.082,1749.261Z" fill="#222e33"/><circle cx="49.878" cy="49.878" r="49.878" transform="translate(1638.319 1840.119)" fill="#2b3740"/><circle cx="21.596" cy="21.596" r="21.596" transform="translate(1666.711 1868.4)" fill="#222e33"/><path d="M1787.952,1939.874h49.878v-99.755Z" fill="#1b292d"/><path d="M1738.075,1939.874h49.878l-49.878-99.755Z" fill="#222e33"/><path d="M1738.075,1840.119l49.878,99.755,49.878-99.755Z" fill="#2b3740"/><path d="M1837.83,1890a49.879,49.879,0,0,0,49.874,49.877v-99.755A49.88,49.88,0,0,0,1837.83,1890Z" fill="#2b3740"/><path d="M1887.7,1840.119h0Z" fill="#333f48" style="mix-blend-mode:hard-light;isolation:isolate"/><path d="M1887.7,1939.874h0Z" fill="#333f48" style="mix-blend-mode:hard-light;isolation:isolate"/><path d="M1937.585,1889.416v-49.3h-49.874A49.877,49.877,0,0,1,1937.585,1889.416Z" fill="#1b292d"/><path d="M1887.711,1939.874h49.874v-49.3A49.876,49.876,0,0,1,1887.711,1939.874Z" fill="#1b292d"/><path d="M1937.585,1890.577v-1.161a49.877,49.877,0,0,0-49.874-49.3h-.007v99.755h.007A49.876,49.876,0,0,0,1937.585,1890.577Z" fill="#222e33"/><rect width="299.266" height="199.51" transform="translate(740.522 1638.443)" fill="#151e22"/><rect width="66.51" height="33.252" transform="translate(773.767 1704.947)" fill="#1b292d"/><rect width="66.51" height="66.494" transform="translate(773.768 1638.453)" fill="#222e33"/><rect width="33.256" height="66.503" transform="translate(740.522 1638.443)" fill="#2b3740"/><path d="M932.38,1699.826a99.782,99.782,0,0,0-92.1-61.383V1738.2l50.545-21.041Z" fill="#2b3740"/><path d="M932.38,1699.826a99.45,99.45,0,0,1,7.653,38.373v-41.565Z" fill="#1b292d"/><path d="M890.822,1717.158,840.277,1738.2h99.756a99.45,99.45,0,0,0-7.653-38.373Z" fill="#222e33"/><path d="M973.284,1638.443v8.9a66.461,66.461,0,0,1,33.252,57.594V1738.2h33.252v-33.264A66.5,66.5,0,0,0,973.284,1638.443Z" fill="#1b292d"/><path d="M940.033,1638.443V1738.2h33.251v-90.858A66.2,66.2,0,0,0,940.033,1638.443Z" fill="#2b3740"/><path d="M973.284,1647.341V1738.2h33.252v-33.264A66.461,66.461,0,0,0,973.284,1647.341Z" fill="#222e33"/><circle cx="49.878" cy="49.878" r="49.878" transform="translate(740.522 1738.199)" fill="#2b3740"/><circle cx="21.596" cy="21.596" r="21.596" transform="translate(768.914 1766.48)" fill="#222e33"/><path d="M890.155,1837.953h49.878V1738.2Z" fill="#1b292d"/><path d="M840.277,1837.954h49.878L840.277,1738.2Z" fill="#222e33"/><path d="M840.277,1738.2l49.878,99.754,49.878-99.754Z" fill="#2b3740"/><path d="M940.033,1788.076a49.879,49.879,0,0,0,49.874,49.878V1738.2A49.879,49.879,0,0,0,940.033,1788.076Z" fill="#2b3740"/><path d="M989.907,1738.2Z" fill="#333f48" style="mix-blend-mode:hard-light;isolation:isolate"/><path d="M989.907,1837.954h0Z" fill="#333f48" style="mix-blend-mode:hard-light;isolation:isolate"/><path d="M1039.788,1787.5v-49.3H989.914A49.877,49.877,0,0,1,1039.788,1787.5Z" fill="#1b292d"/><path d="M989.914,1837.954h49.874v-49.3A49.877,49.877,0,0,1,989.914,1837.954Z" fill="#1b292d"/><path d="M1039.788,1788.657V1787.5a49.877,49.877,0,0,0-49.874-49.3h-.007v99.755h.007A49.877,49.877,0,0,0,1039.788,1788.657Z" fill="#222e33"/><rect width="299.266" height="199.51" transform="translate(1039.788 1540.853)" fill="#151e22"/><rect width="66.51" height="33.252" transform="translate(1073.033 1607.357)" fill="#1b292d"/><rect width="66.51" height="66.494" transform="translate(1073.033 1540.863)" fill="#222e33"/><rect width="33.256" height="66.503" transform="translate(1039.788 1540.853)" fill="#2b3740"/><path d="M1231.646,1602.236a99.781,99.781,0,0,0-92.1-61.383v99.756l50.545-21.041Z" fill="#2b3740"/><path d="M1231.646,1602.236a99.45,99.45,0,0,1,7.652,38.373v-41.565Z" fill="#1b292d"/><path d="M1190.088,1619.568l-50.545,21.041H1239.3a99.45,99.45,0,0,0-7.652-38.373Z" fill="#222e33"/><path d="M1272.55,1540.853v8.9a66.461,66.461,0,0,1,33.252,57.594v33.264h33.252v-33.264A66.5,66.5,0,0,0,1272.55,1540.853Z" fill="#1b292d"/><path d="M1239.3,1540.853v99.756h33.252v-90.858A66.2,66.2,0,0,0,1239.3,1540.853Z" fill="#2b3740"/><path d="M1272.55,1549.751v90.858H1305.8v-33.264A66.461,66.461,0,0,0,1272.55,1549.751Z" fill="#222e33"/><circle cx="49.878" cy="49.878" r="49.878" transform="translate(1039.788 1640.609)" fill="#2b3740"/><circle cx="21.596" cy="21.596" r="21.596" transform="translate(1068.179 1668.89)" fill="#222e33"/><path d="M1189.421,1740.363H1239.3v-99.755Z" fill="#1b292d"/><path d="M1139.543,1740.364h49.878l-49.878-99.755Z" fill="#222e33"/><path d="M1139.543,1640.609l49.878,99.755,49.878-99.755Z" fill="#2b3740"/><path d="M1239.3,1690.486a49.88,49.88,0,0,0,49.874,49.878v-99.755A49.879,49.879,0,0,0,1239.3,1690.486Z" fill="#2b3740"/><path d="M1289.172,1640.609h0Z" fill="#333f48" style="mix-blend-mode:hard-light;isolation:isolate"/><path d="M1289.172,1740.364h0Z" fill="#333f48" style="mix-blend-mode:hard-light;isolation:isolate"/><path d="M1339.054,1689.906v-49.3H1289.18A49.877,49.877,0,0,1,1339.054,1689.906Z" fill="#1b292d"/><path d="M1289.18,1740.364h49.874v-49.3A49.878,49.878,0,0,1,1289.18,1740.364Z" fill="#1b292d"/><path d="M1339.054,1691.067v-1.161a49.877,49.877,0,0,0-49.874-49.3h-.008v99.755h.008A49.878,49.878,0,0,0,1339.054,1691.067Z" fill="#222e33"/><rect width="299.266" height="199.51" transform="translate(1039.788 1740.364)" fill="#151e22"/><rect width="66.51" height="33.252" transform="translate(1073.033 1806.867)" fill="#1b292d"/><rect width="66.51" height="66.494" transform="translate(1073.033 1740.374)" fill="#222e33"/><rect width="33.256" height="66.503" transform="translate(1039.788 1740.364)" fill="#2b3740"/><path d="M1231.646,1801.746a99.782,99.782,0,0,0-92.1-61.382v99.755l50.545-21.04Z" fill="#2b3740"/><path d="M1231.646,1801.746a99.45,99.45,0,0,1,7.652,38.373v-41.565Z" fill="#1b292d"/><path d="M1190.088,1819.079l-50.545,21.04H1239.3a99.45,99.45,0,0,0-7.652-38.373Z" fill="#222e33"/><path d="M1272.55,1740.364v8.9a66.462,66.462,0,0,1,33.252,57.595v33.263h33.252v-33.263A66.5,66.5,0,0,0,1272.55,1740.364Z" fill="#1b292d"/><path d="M1239.3,1740.364v99.755h33.252v-90.858A66.212,66.212,0,0,0,1239.3,1740.364Z" fill="#2b3740"/><path d="M1272.55,1749.261v90.858H1305.8v-33.263A66.462,66.462,0,0,0,1272.55,1749.261Z" fill="#222e33"/><circle cx="49.878" cy="49.878" r="49.878" transform="translate(1039.788 1840.119)" fill="#2b3740"/><circle cx="21.596" cy="21.596" r="21.596" transform="translate(1068.179 1868.4)" fill="#222e33"/><path d="M1189.421,1939.874H1239.3v-99.755Z" fill="#1b292d"/><path d="M1139.543,1939.874h49.878l-49.878-99.755Z" fill="#222e33"/><path d="M1139.543,1840.119l49.878,99.755,49.878-99.755Z" fill="#2b3740"/><path d="M1239.3,1890a49.879,49.879,0,0,0,49.874,49.877v-99.755A49.88,49.88,0,0,0,1239.3,1890Z" fill="#2b3740"/><path d="M1289.172,1840.119h0Z" fill="#333f48" style="mix-blend-mode:hard-light;isolation:isolate"/><path d="M1289.172,1939.874h0Z" fill="#333f48" style="mix-blend-mode:hard-light;isolation:isolate"/><path d="M1339.054,1889.416v-49.3H1289.18A49.878,49.878,0,0,1,1339.054,1889.416Z" fill="#1b292d"/><path d="M1289.18,1939.874h49.874v-49.3A49.877,49.877,0,0,1,1289.18,1939.874Z" fill="#1b292d"/><path d="M1339.054,1890.577v-1.161a49.878,49.878,0,0,0-49.874-49.3h-.008v99.755h.008A49.877,49.877,0,0,0,1339.054,1890.577Z" fill="#222e33"/><rect width="299.266" height="199.51" transform="translate(441.257 1540.853)" fill="#151e22"/><rect width="66.51" height="33.252" transform="translate(474.501 1607.357)" fill="#1b292d"/><rect width="66.51" height="66.494" transform="translate(474.502 1540.863)" fill="#222e33"/><rect width="33.256" height="66.503" transform="translate(441.257 1540.853)" fill="#2b3740"/><path d="M633.114,1602.236a99.78,99.78,0,0,0-92.1-61.383v99.756l50.545-21.041Z" fill="#2b3740"/><path d="M633.114,1602.236a99.433,99.433,0,0,1,7.653,38.373v-41.565Z" fill="#1b292d"/><path d="M591.557,1619.568l-50.545,21.041h99.755a99.433,99.433,0,0,0-7.653-38.373Z" fill="#222e33"/><path d="M674.019,1540.853v8.9a66.462,66.462,0,0,1,33.251,57.594v33.264h33.252v-33.264A66.5,66.5,0,0,0,674.019,1540.853Z" fill="#1b292d"/><path d="M640.767,1540.853v99.756h33.252v-90.858A66.2,66.2,0,0,0,640.767,1540.853Z" fill="#2b3740"/><path d="M674.019,1549.751v90.858H707.27v-33.264A66.462,66.462,0,0,0,674.019,1549.751Z" fill="#222e33"/><circle cx="49.878" cy="49.878" r="49.878" transform="translate(441.256 1640.609)" fill="#2b3740"/><circle cx="21.596" cy="21.596" r="21.596" transform="translate(469.648 1668.89)" fill="#222e33"/><path d="M590.889,1740.363h49.878v-99.755Z" fill="#1b292d"/><path d="M541.012,1740.364h49.878l-49.878-99.755Z" fill="#222e33"/><path d="M541.012,1640.609l49.878,99.755,49.878-99.755Z" fill="#2b3740"/><path d="M640.767,1690.486a49.88,49.88,0,0,0,49.874,49.878v-99.755A49.879,49.879,0,0,0,640.767,1690.486Z" fill="#2b3740"/><path d="M690.641,1640.609h0Z" fill="#333f48" style="mix-blend-mode:hard-light;isolation:isolate"/><path d="M690.641,1740.364h0Z" fill="#333f48" style="mix-blend-mode:hard-light;isolation:isolate"/><path d="M740.522,1689.906v-49.3H690.648A49.876,49.876,0,0,1,740.522,1689.906Z" fill="#1b292d"/><path d="M690.648,1740.364h49.874v-49.3A49.877,49.877,0,0,1,690.648,1740.364Z" fill="#1b292d"/><path d="M740.522,1691.067v-1.161a49.876,49.876,0,0,0-49.874-49.3h-.007v99.755h.007A49.877,49.877,0,0,0,740.522,1691.067Z" fill="#222e33"/><rect width="299.266" height="199.51" transform="translate(441.257 1740.364)" fill="#151e22"/><rect width="66.51" height="33.252" transform="translate(474.501 1806.867)" fill="#1b292d"/><rect width="66.51" height="66.494" transform="translate(474.502 1740.374)" fill="#222e33"/><rect width="33.256" height="66.503" transform="translate(441.257 1740.364)" fill="#2b3740"/><path d="M633.114,1801.746a99.781,99.781,0,0,0-92.1-61.382v99.755l50.545-21.04Z" fill="#2b3740"/><path d="M633.114,1801.746a99.433,99.433,0,0,1,7.653,38.373v-41.565Z" fill="#1b292d"/><path d="M591.557,1819.079l-50.545,21.04h99.755a99.433,99.433,0,0,0-7.653-38.373Z" fill="#222e33"/><path d="M674.019,1740.364v8.9a66.463,66.463,0,0,1,33.251,57.595v33.263h33.252v-33.263A66.5,66.5,0,0,0,674.019,1740.364Z" fill="#1b292d"/><path d="M640.767,1740.364v99.755h33.252v-90.858A66.212,66.212,0,0,0,640.767,1740.364Z" fill="#2b3740"/><path d="M674.019,1749.261v90.858H707.27v-33.263A66.463,66.463,0,0,0,674.019,1749.261Z" fill="#222e33"/><circle cx="49.878" cy="49.878" r="49.878" transform="translate(441.256 1840.119)" fill="#2b3740"/><circle cx="21.596" cy="21.596" r="21.596" transform="translate(469.648 1868.4)" fill="#222e33"/><path d="M590.889,1939.874h49.878v-99.755Z" fill="#1b292d"/><path d="M541.012,1939.874h49.878l-49.878-99.755Z" fill="#222e33"/><path d="M541.012,1840.119l49.878,99.755,49.878-99.755Z" fill="#2b3740"/><path d="M640.767,1890a49.879,49.879,0,0,0,49.874,49.877v-99.755A49.88,49.88,0,0,0,640.767,1890Z" fill="#2b3740"/><path d="M690.641,1840.119h0Z" fill="#333f48" style="mix-blend-mode:hard-light;isolation:isolate"/><path d="M690.641,1939.874h0Z" fill="#333f48" style="mix-blend-mode:hard-light;isolation:isolate"/><path d="M740.522,1889.416v-49.3H690.648A49.877,49.877,0,0,1,740.522,1889.416Z" fill="#1b292d"/><path d="M690.648,1939.874h49.874v-49.3A49.876,49.876,0,0,1,690.648,1939.874Z" fill="#1b292d"/><path d="M740.522,1890.577v-1.161a49.877,49.877,0,0,0-49.874-49.3h-.007v99.755h.007A49.876,49.876,0,0,0,740.522,1890.577Z" fill="#222e33"/><rect width="299.266" height="199.51" transform="translate(-456.541 1638.443)" fill="#151e22"/><rect width="66.51" height="33.252" transform="translate(-423.296 1704.947)" fill="#1b292d"/><rect width="66.51" height="66.494" transform="translate(-423.295 1638.453)" fill="#222e33"/><rect width="33.256" height="66.503" transform="translate(-456.541 1638.443)" fill="#2b3740"/><path d="M-264.683,1699.826a99.781,99.781,0,0,0-92.1-61.383V1738.2l50.544-21.041Z" fill="#2b3740"/><path d="M-264.683,1699.826a99.45,99.45,0,0,1,7.653,38.373v-41.565Z" fill="#1b292d"/><path d="M-306.241,1717.158l-50.544,21.041h99.755a99.45,99.45,0,0,0-7.653-38.373Z" fill="#222e33"/><path d="M-223.778,1638.443v8.9a66.462,66.462,0,0,1,33.251,57.594V1738.2h33.252v-33.264A66.5,66.5,0,0,0-223.778,1638.443Z" fill="#1b292d"/><path d="M-257.03,1638.443V1738.2h33.252v-90.858A66.205,66.205,0,0,0-257.03,1638.443Z" fill="#2b3740"/><path d="M-223.778,1647.341V1738.2h33.251v-33.264A66.462,66.462,0,0,0-223.778,1647.341Z" fill="#222e33"/><circle cx="49.878" cy="49.878" r="49.878" transform="translate(-456.541 1738.199)" fill="#2b3740"/><circle cx="21.596" cy="21.596" r="21.596" transform="translate(-428.149 1766.48)" fill="#222e33"/><path d="M-306.908,1837.953h49.878V1738.2Z" fill="#1b292d"/><path d="M-356.785,1837.954h49.878l-49.878-99.754Z" fill="#222e33"/><path d="M-356.785,1738.2l49.878,99.754,49.878-99.754Z" fill="#2b3740"/><path d="M-257.03,1788.076a49.879,49.879,0,0,0,49.874,49.878V1738.2A49.879,49.879,0,0,0-257.03,1788.076Z" fill="#2b3740"/><path d="M-207.156,1738.2Z" fill="#333f48" style="mix-blend-mode:hard-light;isolation:isolate"/><path d="M-207.156,1837.954h0Z" fill="#333f48" style="mix-blend-mode:hard-light;isolation:isolate"/><path d="M-157.275,1787.5v-49.3h-49.874A49.877,49.877,0,0,1-157.275,1787.5Z" fill="#1b292d"/><path d="M-207.149,1837.954h49.874v-49.3A49.877,49.877,0,0,1-207.149,1837.954Z" fill="#1b292d"/><path d="M-157.275,1788.657V1787.5a49.877,49.877,0,0,0-49.874-49.3h-.007v99.755h.007A49.877,49.877,0,0,0-157.275,1788.657Z" fill="#222e33"/><rect width="299.266" height="199.51" transform="translate(-157.275 1540.853)" fill="#151e22"/><rect width="66.51" height="33.252" transform="translate(-124.03 1607.357)" fill="#1b292d"/><rect width="66.51" height="66.494" transform="translate(-124.03 1540.863)" fill="#222e33"/><rect width="33.256" height="66.503" transform="translate(-157.275 1540.853)" fill="#2b3740"/><path d="M34.583,1602.236a99.78,99.78,0,0,0-92.1-61.383v99.756l50.545-21.041Z" fill="#2b3740"/><path d="M34.583,1602.236a99.451,99.451,0,0,1,7.652,38.373v-41.565Z" fill="#1b292d"/><path d="M-6.975,1619.568l-50.545,21.041H42.235a99.451,99.451,0,0,0-7.652-38.373Z" fill="#222e33"/><path d="M75.487,1540.853v8.9a66.46,66.46,0,0,1,33.252,57.594v33.264h33.252v-33.264A66.5,66.5,0,0,0,75.487,1540.853Z" fill="#1b292d"/><path d="M42.235,1540.853v99.756H75.487v-90.858A66.2,66.2,0,0,0,42.235,1540.853Z" fill="#2b3740"/><path d="M75.487,1549.751v90.858h33.252v-33.264A66.46,66.46,0,0,0,75.487,1549.751Z" fill="#222e33"/><circle cx="49.878" cy="49.878" r="49.878" transform="translate(-157.275 1640.609)" fill="#2b3740"/><circle cx="21.596" cy="21.596" r="21.596" transform="translate(-128.884 1668.89)" fill="#222e33"/><path d="M-7.642,1740.363H42.235v-99.755Z" fill="#1b292d"/><path d="M-57.52,1740.364H-7.642l-49.878-99.755Z" fill="#222e33"/><path d="M-57.52,1640.609l49.878,99.755,49.878-99.755Z" fill="#2b3740"/><path d="M42.235,1690.486a49.88,49.88,0,0,0,49.874,49.878v-99.755A49.879,49.879,0,0,0,42.235,1690.486Z" fill="#2b3740"/><path d="M92.109,1640.609h0Z" fill="#333f48" style="mix-blend-mode:hard-light;isolation:isolate"/><path d="M92.109,1740.364h0Z" fill="#333f48" style="mix-blend-mode:hard-light;isolation:isolate"/><path d="M141.991,1689.906v-49.3H92.117A49.877,49.877,0,0,1,141.991,1689.906Z" fill="#1b292d"/><path d="M92.117,1740.364h49.874v-49.3A49.878,49.878,0,0,1,92.117,1740.364Z" fill="#1b292d"/><path d="M141.991,1691.067v-1.161a49.877,49.877,0,0,0-49.874-49.3h-.008v99.755h.008A49.878,49.878,0,0,0,141.991,1691.067Z" fill="#222e33"/><rect width="299.266" height="199.51" transform="translate(-157.275 1740.364)" fill="#151e22"/><rect width="66.51" height="33.252" transform="translate(-124.03 1806.867)" fill="#1b292d"/><rect width="66.51" height="66.494" transform="translate(-124.03 1740.374)" fill="#222e33"/><rect width="33.256" height="66.503" transform="translate(-157.275 1740.364)" fill="#2b3740"/><path d="M34.583,1801.746a99.781,99.781,0,0,0-92.1-61.382v99.755l50.545-21.04Z" fill="#2b3740"/><path d="M34.583,1801.746a99.451,99.451,0,0,1,7.652,38.373v-41.565Z" fill="#1b292d"/><path d="M-6.975,1819.079l-50.545,21.04H42.235a99.451,99.451,0,0,0-7.652-38.373Z" fill="#222e33"/><path d="M75.487,1740.364v8.9a66.462,66.462,0,0,1,33.252,57.595v33.263h33.252v-33.263A66.5,66.5,0,0,0,75.487,1740.364Z" fill="#1b292d"/><path d="M42.235,1740.364v99.755H75.487v-90.858A66.212,66.212,0,0,0,42.235,1740.364Z" fill="#2b3740"/><path d="M75.487,1749.261v90.858h33.252v-33.263A66.462,66.462,0,0,0,75.487,1749.261Z" fill="#222e33"/><circle cx="49.878" cy="49.878" r="49.878" transform="translate(-157.275 1840.119)" fill="#2b3740"/><circle cx="21.596" cy="21.596" r="21.596" transform="translate(-128.884 1868.4)" fill="#222e33"/><path d="M-7.642,1939.874H42.235v-99.755Z" fill="#1b292d"/><path d="M-57.52,1939.874H-7.642l-49.878-99.755Z" fill="#222e33"/><path d="M-57.52,1840.119l49.878,99.755,49.878-99.755Z" fill="#2b3740"/><path d="M42.235,1890a49.879,49.879,0,0,0,49.874,49.877v-99.755A49.88,49.88,0,0,0,42.235,1890Z" fill="#2b3740"/><path d="M92.109,1840.119h0Z" fill="#333f48" style="mix-blend-mode:hard-light;isolation:isolate"/><path d="M92.109,1939.874h0Z" fill="#333f48" style="mix-blend-mode:hard-light;isolation:isolate"/><path d="M141.991,1889.416v-49.3H92.117A49.878,49.878,0,0,1,141.991,1889.416Z" fill="#1b292d"/><path d="M92.117,1939.874h49.874v-49.3A49.877,49.877,0,0,1,92.117,1939.874Z" fill="#1b292d"/><path d="M141.991,1890.577v-1.161a49.878,49.878,0,0,0-49.874-49.3h-.008v99.755h.008A49.877,49.877,0,0,0,141.991,1890.577Z" fill="#222e33"/><rect width="299.266" height="199.51" transform="translate(141.991 1837.944)" fill="#151e22"/><rect width="66.51" height="33.252" transform="translate(175.236 1904.447)" fill="#1b292d"/><rect width="66.51" height="66.494" transform="translate(175.236 1837.954)" fill="#222e33"/><rect width="33.256" height="66.503" transform="translate(141.991 1837.944)" fill="#2b3740"/><path d="M333.848,1899.326a99.78,99.78,0,0,0-92.1-61.382V1937.7l50.545-21.04Z" fill="#2b3740"/><path d="M333.848,1899.326A99.432,99.432,0,0,1,341.5,1937.7v-41.565Z" fill="#1b292d"/><path d="M292.291,1916.659l-50.545,21.04H341.5a99.432,99.432,0,0,0-7.653-38.373Z" fill="#222e33"/><path d="M374.753,1837.944v8.9a66.464,66.464,0,0,1,33.252,57.6V1937.7h33.251v-33.263A66.5,66.5,0,0,0,374.753,1837.944Z" fill="#1b292d"/><path d="M341.5,1837.944V1937.7h33.252v-90.858A66.212,66.212,0,0,0,341.5,1837.944Z" fill="#2b3740"/><path d="M374.753,1846.841V1937.7h33.252v-33.263A66.464,66.464,0,0,0,374.753,1846.841Z" fill="#222e33"/><circle cx="49.878" cy="49.878" r="49.878" transform="translate(141.991 1937.699)" fill="#2b3740"/><circle cx="21.596" cy="21.596" r="21.596" transform="translate(170.382 1965.981)" fill="#222e33"/><path d="M291.624,2037.454H341.5V1937.7Z" fill="#1b292d"/><path d="M241.746,2037.454h49.878L241.746,1937.7Z" fill="#222e33"/><path d="M241.746,1937.7l49.878,99.754L341.5,1937.7Z" fill="#2b3740"/><path d="M341.5,1987.577a49.879,49.879,0,0,0,49.874,49.877V1937.7A49.88,49.88,0,0,0,341.5,1987.577Z" fill="#2b3740"/><path d="M391.375,1937.7Z" fill="#333f48" style="mix-blend-mode:hard-light;isolation:isolate"/><path d="M391.375,2037.454h0Z" fill="#333f48" style="mix-blend-mode:hard-light;isolation:isolate"/><path d="M441.256,1987v-49.3H391.383A49.877,49.877,0,0,1,441.256,1987Z" fill="#1b292d"/><path d="M391.383,2037.454h49.873v-49.3A49.876,49.876,0,0,1,391.383,2037.454Z" fill="#1b292d"/><path d="M441.256,1988.157V1987a49.877,49.877,0,0,0-49.873-49.3h-.008v99.755h.008A49.876,49.876,0,0,0,441.256,1988.157Z" fill="#222e33"/><rect width="299.266" height="199.51" transform="translate(1339.054 1837.944)" fill="#151e22"/><rect width="66.51" height="33.252" transform="translate(1372.299 1904.447)" fill="#1b292d"/><rect width="66.51" height="66.494" transform="translate(1372.299 1837.954)" fill="#222e33"/><rect width="33.256" height="66.503" transform="translate(1339.054 1837.944)" fill="#2b3740"/><path d="M1530.911,1899.326a99.781,99.781,0,0,0-92.1-61.382V1937.7l50.545-21.04Z" fill="#2b3740"/><path d="M1530.911,1899.326a99.432,99.432,0,0,1,7.653,38.373v-41.565Z" fill="#1b292d"/><path d="M1489.354,1916.659l-50.545,21.04h99.755a99.432,99.432,0,0,0-7.653-38.373Z" fill="#222e33"/><path d="M1571.816,1837.944v8.9a66.464,66.464,0,0,1,33.252,57.6V1937.7h33.251v-33.263A66.5,66.5,0,0,0,1571.816,1837.944Z" fill="#1b292d"/><path d="M1538.564,1837.944V1937.7h33.252v-90.858A66.212,66.212,0,0,0,1538.564,1837.944Z" fill="#2b3740"/><path d="M1571.816,1846.841V1937.7h33.252v-33.263A66.464,66.464,0,0,0,1571.816,1846.841Z" fill="#222e33"/><circle cx="49.878" cy="49.878" r="49.878" transform="translate(1339.054 1937.699)" fill="#2b3740"/><circle cx="21.596" cy="21.596" r="21.596" transform="translate(1367.445 1965.981)" fill="#222e33"/><path d="M1488.687,2037.454h49.878V1937.7Z" fill="#1b292d"/><path d="M1438.809,2037.454h49.878l-49.878-99.754Z" fill="#222e33"/><path d="M1438.809,1937.7l49.878,99.754,49.878-99.754Z" fill="#2b3740"/><path d="M1538.564,1987.577a49.879,49.879,0,0,0,49.874,49.877V1937.7A49.88,49.88,0,0,0,1538.564,1987.577Z" fill="#2b3740"/><path d="M1588.438,1937.7Z" fill="#333f48" style="mix-blend-mode:hard-light;isolation:isolate"/><path d="M1588.438,2037.454h0Z" fill="#333f48" style="mix-blend-mode:hard-light;isolation:isolate"/><path d="M1638.319,1987v-49.3h-49.873A49.876,49.876,0,0,1,1638.319,1987Z" fill="#1b292d"/><path d="M1588.446,2037.454h49.873v-49.3A49.876,49.876,0,0,1,1588.446,2037.454Z" fill="#1b292d"/><path d="M1638.319,1988.157V1987a49.876,49.876,0,0,0-49.873-49.3h-.008v99.755h.008A49.876,49.876,0,0,0,1638.319,1988.157Z" fill="#222e33"/><rect width="299.266" height="199.51" transform="translate(1638.319 1740.354)" fill="#151e22"/><rect width="66.51" height="33.252" transform="translate(1671.564 1806.857)" fill="#1b292d"/><rect width="66.51" height="66.494" transform="translate(1671.565 1740.364)" fill="#222e33"/><rect width="33.256" height="66.503" transform="translate(1638.319 1740.354)" fill="#2b3740"/><path d="M1830.177,1801.736a99.781,99.781,0,0,0-92.1-61.382v99.755l50.545-21.04Z" fill="#2b3740"/><path d="M1830.177,1801.736a99.433,99.433,0,0,1,7.653,38.373v-41.565Z" fill="#1b292d"/><path d="M1788.62,1819.069l-50.545,21.04h99.755a99.433,99.433,0,0,0-7.653-38.373Z" fill="#222e33"/><path d="M1871.082,1740.354v8.9a66.463,66.463,0,0,1,33.251,57.595v33.263h33.252v-33.263A66.5,66.5,0,0,0,1871.082,1740.354Z" fill="#1b292d"/><path d="M1837.83,1740.354v99.755h33.252v-90.858A66.212,66.212,0,0,0,1837.83,1740.354Z" fill="#2b3740"/><path d="M1871.082,1749.251v90.858h33.251v-33.263A66.463,66.463,0,0,0,1871.082,1749.251Z" fill="#222e33"/><circle cx="49.878" cy="49.878" r="49.878" transform="translate(1638.319 1840.109)" fill="#2b3740"/><circle cx="21.596" cy="21.596" r="21.596" transform="translate(1666.711 1868.39)" fill="#222e33"/><path d="M1787.952,1939.864h49.878v-99.755Z" fill="#1b292d"/><path d="M1738.075,1939.864h49.878l-49.878-99.755Z" fill="#222e33"/><path d="M1738.075,1840.109l49.878,99.755,49.878-99.755Z" fill="#2b3740"/><path d="M1837.83,1889.987a49.879,49.879,0,0,0,49.874,49.877v-99.755A49.88,49.88,0,0,0,1837.83,1889.987Z" fill="#2b3740"/><path d="M1887.7,1840.109h0Z" fill="#333f48" style="mix-blend-mode:hard-light;isolation:isolate"/><path d="M1887.7,1939.864h0Z" fill="#333f48" style="mix-blend-mode:hard-light;isolation:isolate"/><path d="M1937.585,1889.406v-49.3h-49.874A49.877,49.877,0,0,1,1937.585,1889.406Z" fill="#1b292d"/><path d="M1887.711,1939.864h49.874v-49.3A49.876,49.876,0,0,1,1887.711,1939.864Z" fill="#1b292d"/><path d="M1937.585,1890.567v-1.161a49.877,49.877,0,0,0-49.874-49.3h-.007v99.755h.007A49.876,49.876,0,0,0,1937.585,1890.567Z" fill="#222e33"/><rect width="299.266" height="199.51" transform="translate(1638.319 1939.864)" fill="#151e22"/><rect width="66.51" height="33.252" transform="translate(1671.564 2006.368)" fill="#1b292d"/><rect width="66.51" height="66.494" transform="translate(1671.565 1939.874)" fill="#222e33"/><rect width="33.256" height="66.503" transform="translate(1638.319 1939.864)" fill="#2b3740"/><path d="M1830.177,2001.247a99.78,99.78,0,0,0-92.1-61.383v99.756l50.545-21.041Z" fill="#2b3740"/><path d="M1830.177,2001.247a99.434,99.434,0,0,1,7.653,38.373v-41.565Z" fill="#1b292d"/><path d="M1788.62,2018.579l-50.545,21.041h99.755a99.434,99.434,0,0,0-7.653-38.373Z" fill="#222e33"/><path d="M1871.082,1939.864v8.9a66.462,66.462,0,0,1,33.251,57.594v33.264h33.252v-33.264A66.5,66.5,0,0,0,1871.082,1939.864Z" fill="#1b292d"/><path d="M1837.83,1939.864v99.756h33.252v-90.858A66.2,66.2,0,0,0,1837.83,1939.864Z" fill="#2b3740"/><path d="M1871.082,1948.762v90.858h33.251v-33.264A66.462,66.462,0,0,0,1871.082,1948.762Z" fill="#222e33"/><circle cx="49.878" cy="49.878" r="49.878" transform="translate(1638.319 2039.62)" fill="#2b3740"/><circle cx="21.596" cy="21.596" r="21.596" transform="translate(1666.711 2067.901)" fill="#222e33"/><path d="M1787.952,2139.374h49.878V2039.62Z" fill="#1b292d"/><path d="M1738.075,2139.375h49.878l-49.878-99.755Z" fill="#222e33"/><path d="M1738.075,2039.62l49.878,99.755,49.878-99.755Z" fill="#2b3740"/><path d="M1837.83,2089.5a49.88,49.88,0,0,0,49.874,49.878V2039.62A49.879,49.879,0,0,0,1837.83,2089.5Z" fill="#2b3740"/><path d="M1887.7,2039.62h0Z" fill="#333f48" style="mix-blend-mode:hard-light;isolation:isolate"/><path d="M1887.7,2139.375h0Z" fill="#333f48" style="mix-blend-mode:hard-light;isolation:isolate"/><path d="M1937.585,2088.917v-49.3h-49.874A49.876,49.876,0,0,1,1937.585,2088.917Z" fill="#1b292d"/><path d="M1887.711,2139.375h49.874v-49.3A49.877,49.877,0,0,1,1887.711,2139.375Z" fill="#1b292d"/><path d="M1937.585,2090.078v-1.161a49.876,49.876,0,0,0-49.874-49.3h-.007v99.755h.007A49.877,49.877,0,0,0,1937.585,2090.078Z" fill="#222e33"/><rect width="299.266" height="199.51" transform="translate(740.522 1837.944)" fill="#151e22"/><rect width="66.51" height="33.252" transform="translate(773.767 1904.447)" fill="#1b292d"/><rect width="66.51" height="66.494" transform="translate(773.768 1837.954)" fill="#222e33"/><rect width="33.256" height="66.503" transform="translate(740.522 1837.944)" fill="#2b3740"/><path d="M932.38,1899.326a99.781,99.781,0,0,0-92.1-61.382V1937.7l50.545-21.04Z" fill="#2b3740"/><path d="M932.38,1899.326a99.45,99.45,0,0,1,7.653,38.373v-41.565Z" fill="#1b292d"/><path d="M890.822,1916.659l-50.545,21.04h99.756a99.45,99.45,0,0,0-7.653-38.373Z" fill="#222e33"/><path d="M973.284,1837.944v8.9a66.462,66.462,0,0,1,33.252,57.6V1937.7h33.252v-33.263A66.5,66.5,0,0,0,973.284,1837.944Z" fill="#1b292d"/><path d="M940.033,1837.944V1937.7h33.251v-90.858A66.211,66.211,0,0,0,940.033,1837.944Z" fill="#2b3740"/><path d="M973.284,1846.841V1937.7h33.252v-33.263A66.462,66.462,0,0,0,973.284,1846.841Z" fill="#222e33"/><circle cx="49.878" cy="49.878" r="49.878" transform="translate(740.522 1937.699)" fill="#2b3740"/><circle cx="21.596" cy="21.596" r="21.596" transform="translate(768.914 1965.981)" fill="#222e33"/><path d="M890.155,2037.454h49.878V1937.7Z" fill="#1b292d"/><path d="M840.277,2037.454h49.878L840.277,1937.7Z" fill="#222e33"/><path d="M840.277,1937.7l49.878,99.754,49.878-99.754Z" fill="#2b3740"/><path d="M940.033,1987.577a49.879,49.879,0,0,0,49.874,49.877V1937.7A49.88,49.88,0,0,0,940.033,1987.577Z" fill="#2b3740"/><path d="M989.907,1937.7Z" fill="#333f48" style="mix-blend-mode:hard-light;isolation:isolate"/><path d="M989.907,2037.454h0Z" fill="#333f48" style="mix-blend-mode:hard-light;isolation:isolate"/><path d="M1039.788,1987v-49.3H989.914A49.877,49.877,0,0,1,1039.788,1987Z" fill="#1b292d"/><path d="M989.914,2037.454h49.874v-49.3A49.877,49.877,0,0,1,989.914,2037.454Z" fill="#1b292d"/><path d="M1039.788,1988.157V1987a49.877,49.877,0,0,0-49.874-49.3h-.007v99.755h.007A49.877,49.877,0,0,0,1039.788,1988.157Z" fill="#222e33"/><rect width="299.266" height="199.51" transform="translate(1039.788 1740.354)" fill="#151e22"/><rect width="66.51" height="33.252" transform="translate(1073.033 1806.857)" fill="#1b292d"/><rect width="66.51" height="66.494" transform="translate(1073.033 1740.364)" fill="#222e33"/><rect width="33.256" height="66.503" transform="translate(1039.788 1740.354)" fill="#2b3740"/><path d="M1231.646,1801.736a99.782,99.782,0,0,0-92.1-61.382v99.755l50.545-21.04Z" fill="#2b3740"/><path d="M1231.646,1801.736a99.45,99.45,0,0,1,7.652,38.373v-41.565Z" fill="#1b292d"/><path d="M1190.088,1819.069l-50.545,21.04H1239.3a99.45,99.45,0,0,0-7.652-38.373Z" fill="#222e33"/><path d="M1272.55,1740.354v8.9a66.462,66.462,0,0,1,33.252,57.595v33.263h33.252v-33.263A66.5,66.5,0,0,0,1272.55,1740.354Z" fill="#1b292d"/><path d="M1239.3,1740.354v99.755h33.252v-90.858A66.212,66.212,0,0,0,1239.3,1740.354Z" fill="#2b3740"/><path d="M1272.55,1749.251v90.858H1305.8v-33.263A66.462,66.462,0,0,0,1272.55,1749.251Z" fill="#222e33"/><circle cx="49.878" cy="49.878" r="49.878" transform="translate(1039.788 1840.109)" fill="#2b3740"/><circle cx="21.596" cy="21.596" r="21.596" transform="translate(1068.179 1868.39)" fill="#222e33"/><path d="M1189.421,1939.864H1239.3v-99.755Z" fill="#1b292d"/><path d="M1139.543,1939.864h49.878l-49.878-99.755Z" fill="#222e33"/><path d="M1139.543,1840.109l49.878,99.755,49.878-99.755Z" fill="#2b3740"/><path d="M1239.3,1889.987a49.879,49.879,0,0,0,49.874,49.877v-99.755A49.88,49.88,0,0,0,1239.3,1889.987Z" fill="#2b3740"/><path d="M1289.172,1840.109h0Z" fill="#333f48" style="mix-blend-mode:hard-light;isolation:isolate"/><path d="M1289.172,1939.864h0Z" fill="#333f48" style="mix-blend-mode:hard-light;isolation:isolate"/><path d="M1339.054,1889.406v-49.3H1289.18A49.878,49.878,0,0,1,1339.054,1889.406Z" fill="#1b292d"/><path d="M1289.18,1939.864h49.874v-49.3A49.877,49.877,0,0,1,1289.18,1939.864Z" fill="#1b292d"/><path d="M1339.054,1890.567v-1.161a49.878,49.878,0,0,0-49.874-49.3h-.008v99.755h.008A49.877,49.877,0,0,0,1339.054,1890.567Z" fill="#222e33"/><rect width="299.266" height="199.51" transform="translate(1039.788 1939.864)" fill="#151e22"/><rect width="66.51" height="33.252" transform="translate(1073.033 2006.368)" fill="#1b292d"/><rect width="66.51" height="66.494" transform="translate(1073.033 1939.874)" fill="#222e33"/><rect width="33.256" height="66.503" transform="translate(1039.788 1939.864)" fill="#2b3740"/><path d="M1231.646,2001.247a99.781,99.781,0,0,0-92.1-61.383v99.756l50.545-21.041Z" fill="#2b3740"/><path d="M1231.646,2001.247a99.451,99.451,0,0,1,7.652,38.373v-41.565Z" fill="#1b292d"/><path d="M1190.088,2018.579l-50.545,21.041H1239.3a99.451,99.451,0,0,0-7.652-38.373Z" fill="#222e33"/><path d="M1272.55,1939.864v8.9a66.461,66.461,0,0,1,33.252,57.594v33.264h33.252v-33.264A66.5,66.5,0,0,0,1272.55,1939.864Z" fill="#1b292d"/><path d="M1239.3,1939.864v99.756h33.252v-90.858A66.2,66.2,0,0,0,1239.3,1939.864Z" fill="#2b3740"/><path d="M1272.55,1948.762v90.858H1305.8v-33.264A66.461,66.461,0,0,0,1272.55,1948.762Z" fill="#222e33"/><circle cx="49.878" cy="49.878" r="49.878" transform="translate(1039.788 2039.62)" fill="#2b3740"/><circle cx="21.596" cy="21.596" r="21.596" transform="translate(1068.179 2067.901)" fill="#222e33"/><path d="M1189.421,2139.374H1239.3V2039.62Z" fill="#1b292d"/><path d="M1139.543,2139.375h49.878l-49.878-99.755Z" fill="#222e33"/><path d="M1139.543,2039.62l49.878,99.755,49.878-99.755Z" fill="#2b3740"/><path d="M1239.3,2089.5a49.88,49.88,0,0,0,49.874,49.878V2039.62A49.879,49.879,0,0,0,1239.3,2089.5Z" fill="#2b3740"/><path d="M1289.172,2039.62h0Z" fill="#333f48" style="mix-blend-mode:hard-light;isolation:isolate"/><path d="M1289.172,2139.375h0Z" fill="#333f48" style="mix-blend-mode:hard-light;isolation:isolate"/><path d="M1339.054,2088.917v-49.3H1289.18A49.877,49.877,0,0,1,1339.054,2088.917Z" fill="#1b292d"/><path d="M1289.18,2139.375h49.874v-49.3A49.878,49.878,0,0,1,1289.18,2139.375Z" fill="#1b292d"/><path d="M1339.054,2090.078v-1.161a49.877,49.877,0,0,0-49.874-49.3h-.008v99.755h.008A49.878,49.878,0,0,0,1339.054,2090.078Z" fill="#222e33"/><rect width="299.266" height="199.51" transform="translate(441.257 1740.354)" fill="#151e22"/><rect width="66.51" height="33.252" transform="translate(474.501 1806.857)" fill="#1b292d"/><rect width="66.51" height="66.494" transform="translate(474.502 1740.364)" fill="#222e33"/><rect width="33.256" height="66.503" transform="translate(441.257 1740.354)" fill="#2b3740"/><path d="M633.114,1801.736a99.781,99.781,0,0,0-92.1-61.382v99.755l50.545-21.04Z" fill="#2b3740"/><path d="M633.114,1801.736a99.433,99.433,0,0,1,7.653,38.373v-41.565Z" fill="#1b292d"/><path d="M591.557,1819.069l-50.545,21.04h99.755a99.433,99.433,0,0,0-7.653-38.373Z" fill="#222e33"/><path d="M674.019,1740.354v8.9a66.463,66.463,0,0,1,33.251,57.595v33.263h33.252v-33.263A66.5,66.5,0,0,0,674.019,1740.354Z" fill="#1b292d"/><path d="M640.767,1740.354v99.755h33.252v-90.858A66.212,66.212,0,0,0,640.767,1740.354Z" fill="#2b3740"/><path d="M674.019,1749.251v90.858H707.27v-33.263A66.463,66.463,0,0,0,674.019,1749.251Z" fill="#222e33"/><circle cx="49.878" cy="49.878" r="49.878" transform="translate(441.256 1840.109)" fill="#2b3740"/><circle cx="21.596" cy="21.596" r="21.596" transform="translate(469.648 1868.39)" fill="#222e33"/><path d="M590.889,1939.864h49.878v-99.755Z" fill="#1b292d"/><path d="M541.012,1939.864h49.878l-49.878-99.755Z" fill="#222e33"/><path d="M541.012,1840.109l49.878,99.755,49.878-99.755Z" fill="#2b3740"/><path d="M640.767,1889.987a49.879,49.879,0,0,0,49.874,49.877v-99.755A49.88,49.88,0,0,0,640.767,1889.987Z" fill="#2b3740"/><path d="M690.641,1840.109h0Z" fill="#333f48" style="mix-blend-mode:hard-light;isolation:isolate"/><path d="M690.641,1939.864h0Z" fill="#333f48" style="mix-blend-mode:hard-light;isolation:isolate"/><path d="M740.522,1889.406v-49.3H690.648A49.877,49.877,0,0,1,740.522,1889.406Z" fill="#1b292d"/><path d="M690.648,1939.864h49.874v-49.3A49.876,49.876,0,0,1,690.648,1939.864Z" fill="#1b292d"/><path d="M740.522,1890.567v-1.161a49.877,49.877,0,0,0-49.874-49.3h-.007v99.755h.007A49.876,49.876,0,0,0,740.522,1890.567Z" fill="#222e33"/><rect width="299.266" height="199.51" transform="translate(441.257 1939.864)" fill="#151e22"/><rect width="66.51" height="33.252" transform="translate(474.501 2006.368)" fill="#1b292d"/><rect width="66.51" height="66.494" transform="translate(474.502 1939.874)" fill="#222e33"/><rect width="33.256" height="66.503" transform="translate(441.257 1939.864)" fill="#2b3740"/><path d="M633.114,2001.247a99.78,99.78,0,0,0-92.1-61.383v99.756l50.545-21.041Z" fill="#2b3740"/><path d="M633.114,2001.247a99.434,99.434,0,0,1,7.653,38.373v-41.565Z" fill="#1b292d"/><path d="M591.557,2018.579l-50.545,21.041h99.755a99.434,99.434,0,0,0-7.653-38.373Z" fill="#222e33"/><path d="M674.019,1939.864v8.9a66.462,66.462,0,0,1,33.251,57.594v33.264h33.252v-33.264A66.5,66.5,0,0,0,674.019,1939.864Z" fill="#1b292d"/><path d="M640.767,1939.864v99.756h33.252v-90.858A66.2,66.2,0,0,0,640.767,1939.864Z" fill="#2b3740"/><path d="M674.019,1948.762v90.858H707.27v-33.264A66.462,66.462,0,0,0,674.019,1948.762Z" fill="#222e33"/><circle cx="49.878" cy="49.878" r="49.878" transform="translate(441.256 2039.62)" fill="#2b3740"/><circle cx="21.596" cy="21.596" r="21.596" transform="translate(469.648 2067.901)" fill="#222e33"/><path d="M590.889,2139.374h49.878V2039.62Z" fill="#1b292d"/><path d="M541.012,2139.375h49.878l-49.878-99.755Z" fill="#222e33"/><path d="M541.012,2039.62l49.878,99.755,49.878-99.755Z" fill="#2b3740"/><path d="M640.767,2089.5a49.88,49.88,0,0,0,49.874,49.878V2039.62A49.879,49.879,0,0,0,640.767,2089.5Z" fill="#2b3740"/><path d="M690.641,2039.62h0Z" fill="#333f48" style="mix-blend-mode:hard-light;isolation:isolate"/><path d="M690.641,2139.375h0Z" fill="#333f48" style="mix-blend-mode:hard-light;isolation:isolate"/><path d="M740.522,2088.917v-49.3H690.648A49.876,49.876,0,0,1,740.522,2088.917Z" fill="#1b292d"/><path d="M690.648,2139.375h49.874v-49.3A49.877,49.877,0,0,1,690.648,2139.375Z" fill="#1b292d"/><path d="M740.522,2090.078v-1.161a49.876,49.876,0,0,0-49.874-49.3h-.007v99.755h.007A49.877,49.877,0,0,0,740.522,2090.078Z" fill="#222e33"/><rect width="299.266" height="199.51" transform="translate(-456.541 1837.944)" fill="#151e22"/><rect width="66.51" height="33.252" transform="translate(-423.296 1904.447)" fill="#1b292d"/><rect width="66.51" height="66.494" transform="translate(-423.295 1837.954)" fill="#222e33"/><rect width="33.256" height="66.503" transform="translate(-456.541 1837.944)" fill="#2b3740"/><path d="M-264.683,1899.326a99.78,99.78,0,0,0-92.1-61.382V1937.7l50.544-21.04Z" fill="#2b3740"/><path d="M-264.683,1899.326a99.45,99.45,0,0,1,7.653,38.373v-41.565Z" fill="#1b292d"/><path d="M-306.241,1916.659l-50.544,21.04h99.755a99.45,99.45,0,0,0-7.653-38.373Z" fill="#222e33"/><path d="M-223.778,1837.944v8.9a66.463,66.463,0,0,1,33.251,57.6V1937.7h33.252v-33.263A66.5,66.5,0,0,0-223.778,1837.944Z" fill="#1b292d"/><path d="M-257.03,1837.944V1937.7h33.252v-90.858A66.215,66.215,0,0,0-257.03,1837.944Z" fill="#2b3740"/><path d="M-223.778,1846.841V1937.7h33.251v-33.263A66.463,66.463,0,0,0-223.778,1846.841Z" fill="#222e33"/><circle cx="49.878" cy="49.878" r="49.878" transform="translate(-456.541 1937.699)" fill="#2b3740"/><circle cx="21.596" cy="21.596" r="21.596" transform="translate(-428.149 1965.981)" fill="#222e33"/><path d="M-306.908,2037.454h49.878V1937.7Z" fill="#1b292d"/><path d="M-356.785,2037.454h49.878l-49.878-99.754Z" fill="#222e33"/><path d="M-356.785,1937.7l49.878,99.754,49.878-99.754Z" fill="#2b3740"/><path d="M-257.03,1987.577a49.879,49.879,0,0,0,49.874,49.877V1937.7A49.88,49.88,0,0,0-257.03,1987.577Z" fill="#2b3740"/><path d="M-207.156,1937.7Z" fill="#333f48" style="mix-blend-mode:hard-light;isolation:isolate"/><path d="M-207.156,2037.454h0Z" fill="#333f48" style="mix-blend-mode:hard-light;isolation:isolate"/><path d="M-157.275,1987v-49.3h-49.874A49.877,49.877,0,0,1-157.275,1987Z" fill="#1b292d"/><path d="M-207.149,2037.454h49.874v-49.3A49.877,49.877,0,0,1-207.149,2037.454Z" fill="#1b292d"/><path d="M-157.275,1988.157V1987a49.877,49.877,0,0,0-49.874-49.3h-.007v99.755h.007A49.877,49.877,0,0,0-157.275,1988.157Z" fill="#222e33"/><rect width="299.266" height="199.51" transform="translate(-157.275 1740.354)" fill="#151e22"/><rect width="66.51" height="33.252" transform="translate(-124.03 1806.857)" fill="#1b292d"/><rect width="66.51" height="66.494" transform="translate(-124.03 1740.364)" fill="#222e33"/><rect width="33.256" height="66.503" transform="translate(-157.275 1740.354)" fill="#2b3740"/><path d="M34.583,1801.736a99.781,99.781,0,0,0-92.1-61.382v99.755l50.545-21.04Z" fill="#2b3740"/><path d="M34.583,1801.736a99.451,99.451,0,0,1,7.652,38.373v-41.565Z" fill="#1b292d"/><path d="M-6.975,1819.069l-50.545,21.04H42.235a99.451,99.451,0,0,0-7.652-38.373Z" fill="#222e33"/><path d="M75.487,1740.354v8.9a66.462,66.462,0,0,1,33.252,57.595v33.263h33.252v-33.263A66.5,66.5,0,0,0,75.487,1740.354Z" fill="#1b292d"/><path d="M42.235,1740.354v99.755H75.487v-90.858A66.212,66.212,0,0,0,42.235,1740.354Z" fill="#2b3740"/><path d="M75.487,1749.251v90.858h33.252v-33.263A66.462,66.462,0,0,0,75.487,1749.251Z" fill="#222e33"/><circle cx="49.878" cy="49.878" r="49.878" transform="translate(-157.275 1840.109)" fill="#2b3740"/><circle cx="21.596" cy="21.596" r="21.596" transform="translate(-128.884 1868.39)" fill="#222e33"/><path d="M-7.642,1939.864H42.235v-99.755Z" fill="#1b292d"/><path d="M-57.52,1939.864H-7.642l-49.878-99.755Z" fill="#222e33"/><path d="M-57.52,1840.109l49.878,99.755,49.878-99.755Z" fill="#2b3740"/><path d="M42.235,1889.987a49.879,49.879,0,0,0,49.874,49.877v-99.755A49.88,49.88,0,0,0,42.235,1889.987Z" fill="#2b3740"/><path d="M92.109,1840.109h0Z" fill="#333f48" style="mix-blend-mode:hard-light;isolation:isolate"/><path d="M92.109,1939.864h0Z" fill="#333f48" style="mix-blend-mode:hard-light;isolation:isolate"/><path d="M141.991,1889.406v-49.3H92.117A49.878,49.878,0,0,1,141.991,1889.406Z" fill="#1b292d"/><path d="M92.117,1939.864h49.874v-49.3A49.877,49.877,0,0,1,92.117,1939.864Z" fill="#1b292d"/><path d="M141.991,1890.567v-1.161a49.878,49.878,0,0,0-49.874-49.3h-.008v99.755h.008A49.877,49.877,0,0,0,141.991,1890.567Z" fill="#222e33"/><rect width="299.266" height="199.51" transform="translate(-157.275 1939.864)" fill="#151e22"/><rect width="66.51" height="33.252" transform="translate(-124.03 2006.368)" fill="#1b292d"/><rect width="66.51" height="66.494" transform="translate(-124.03 1939.874)" fill="#222e33"/><rect width="33.256" height="66.503" transform="translate(-157.275 1939.864)" fill="#2b3740"/><path d="M34.583,2001.247a99.78,99.78,0,0,0-92.1-61.383v99.756l50.545-21.041Z" fill="#2b3740"/><path d="M34.583,2001.247a99.451,99.451,0,0,1,7.652,38.373v-41.565Z" fill="#1b292d"/><path d="M-6.975,2018.579-57.52,2039.62H42.235a99.451,99.451,0,0,0-7.652-38.373Z" fill="#222e33"/><path d="M75.487,1939.864v8.9a66.46,66.46,0,0,1,33.252,57.594v33.264h33.252v-33.264A66.5,66.5,0,0,0,75.487,1939.864Z" fill="#1b292d"/><path d="M42.235,1939.864v99.756H75.487v-90.858A66.2,66.2,0,0,0,42.235,1939.864Z" fill="#2b3740"/><path d="M75.487,1948.762v90.858h33.252v-33.264A66.46,66.46,0,0,0,75.487,1948.762Z" fill="#222e33"/><circle cx="49.878" cy="49.878" r="49.878" transform="translate(-157.275 2039.62)" fill="#2b3740"/><circle cx="21.596" cy="21.596" r="21.596" transform="translate(-128.884 2067.901)" fill="#222e33"/><path d="M-7.642,2139.374H42.235V2039.62Z" fill="#1b292d"/><path d="M-57.52,2139.375H-7.642L-57.52,2039.62Z" fill="#222e33"/><path d="M-57.52,2039.62l49.878,99.755,49.878-99.755Z" fill="#2b3740"/><path d="M42.235,2089.5a49.88,49.88,0,0,0,49.874,49.878V2039.62A49.879,49.879,0,0,0,42.235,2089.5Z" fill="#2b3740"/><path d="M92.109,2039.62h0Z" fill="#333f48" style="mix-blend-mode:hard-light;isolation:isolate"/><path d="M92.109,2139.375h0Z" fill="#333f48" style="mix-blend-mode:hard-light;isolation:isolate"/><path d="M141.991,2088.917v-49.3H92.117A49.877,49.877,0,0,1,141.991,2088.917Z" fill="#1b292d"/><path d="M92.117,2139.375h49.874v-49.3A49.878,49.878,0,0,1,92.117,2139.375Z" fill="#1b292d"/><path d="M141.991,2090.078v-1.161a49.877,49.877,0,0,0-49.874-49.3h-.008v99.755h.008A49.878,49.878,0,0,0,141.991,2090.078Z" fill="#222e33"/><rect width="299.266" height="199.51" transform="translate(141.991 2035.692)" fill="#151e22"/><rect width="66.51" height="33.252" transform="translate(175.236 2102.195)" fill="#1b292d"/><rect width="66.51" height="66.494" transform="translate(175.236 2035.702)" fill="#222e33"/><rect width="33.256" height="66.503" transform="translate(141.991 2035.692)" fill="#2b3740"/><path d="M333.848,2097.074a99.781,99.781,0,0,0-92.1-61.382v99.755l50.545-21.04Z" fill="#2b3740"/><path d="M333.848,2097.074a99.432,99.432,0,0,1,7.653,38.373v-41.565Z" fill="#1b292d"/><path d="M292.291,2114.407l-50.545,21.04H341.5a99.432,99.432,0,0,0-7.653-38.373Z" fill="#222e33"/><path d="M374.753,2035.692v8.9a66.464,66.464,0,0,1,33.252,57.6v33.263h33.251v-33.263A66.5,66.5,0,0,0,374.753,2035.692Z" fill="#1b292d"/><path d="M341.5,2035.692v99.755h33.252v-90.858A66.2,66.2,0,0,0,341.5,2035.692Z" fill="#2b3740"/><path d="M374.753,2044.589v90.858h33.252v-33.263A66.464,66.464,0,0,0,374.753,2044.589Z" fill="#222e33"/><circle cx="49.878" cy="49.878" r="49.878" transform="translate(141.991 2135.447)" fill="#2b3740"/><circle cx="21.596" cy="21.596" r="21.596" transform="translate(170.382 2163.728)" fill="#222e33"/><path d="M291.624,2235.2H341.5v-99.755Z" fill="#1b292d"/><path d="M241.746,2235.2h49.878l-49.878-99.755Z" fill="#222e33"/><path d="M241.746,2135.447l49.878,99.755,49.878-99.755Z" fill="#2b3740"/><path d="M341.5,2185.325a49.879,49.879,0,0,0,49.874,49.877v-99.755A49.879,49.879,0,0,0,341.5,2185.325Z" fill="#2b3740"/><path d="M391.375,2135.447h0Z" fill="#333f48" style="mix-blend-mode:hard-light;isolation:isolate"/><path d="M391.375,2235.2h0Z" fill="#333f48" style="mix-blend-mode:hard-light;isolation:isolate"/><path d="M441.256,2184.744v-49.3H391.383A49.876,49.876,0,0,1,441.256,2184.744Z" fill="#1b292d"/><path d="M391.383,2235.2h49.873v-49.3A49.876,49.876,0,0,1,391.383,2235.2Z" fill="#1b292d"/><path d="M441.256,2185.905v-1.161a49.876,49.876,0,0,0-49.873-49.3h-.008V2235.2h.008A49.876,49.876,0,0,0,441.256,2185.905Z" fill="#222e33"/><rect width="299.266" height="199.51" transform="translate(1339.054 2035.692)" fill="#151e22"/><rect width="66.51" height="33.252" transform="translate(1372.299 2102.195)" fill="#1b292d"/><rect width="66.51" height="66.494" transform="translate(1372.299 2035.702)" fill="#222e33"/><rect width="33.256" height="66.503" transform="translate(1339.054 2035.692)" fill="#2b3740"/><path d="M1530.911,2097.074a99.781,99.781,0,0,0-92.1-61.382v99.755l50.545-21.04Z" fill="#2b3740"/><path d="M1530.911,2097.074a99.433,99.433,0,0,1,7.653,38.373v-41.565Z" fill="#1b292d"/><path d="M1489.354,2114.407l-50.545,21.04h99.755a99.433,99.433,0,0,0-7.653-38.373Z" fill="#222e33"/><path d="M1571.816,2035.692v8.9a66.464,66.464,0,0,1,33.252,57.6v33.263h33.251v-33.263A66.5,66.5,0,0,0,1571.816,2035.692Z" fill="#1b292d"/><path d="M1538.564,2035.692v99.755h33.252v-90.858A66.2,66.2,0,0,0,1538.564,2035.692Z" fill="#2b3740"/><path d="M1571.816,2044.589v90.858h33.252v-33.263A66.464,66.464,0,0,0,1571.816,2044.589Z" fill="#222e33"/><circle cx="49.878" cy="49.878" r="49.878" transform="translate(1339.054 2135.447)" fill="#2b3740"/><circle cx="21.596" cy="21.596" r="21.596" transform="translate(1367.445 2163.728)" fill="#222e33"/><path d="M1488.687,2235.2h49.878v-99.755Z" fill="#1b292d"/><path d="M1438.809,2235.2h49.878l-49.878-99.755Z" fill="#222e33"/><path d="M1438.809,2135.447l49.878,99.755,49.878-99.755Z" fill="#2b3740"/><path d="M1538.564,2185.325a49.879,49.879,0,0,0,49.874,49.877v-99.755A49.879,49.879,0,0,0,1538.564,2185.325Z" fill="#2b3740"/><path d="M1588.438,2135.447h0Z" fill="#333f48" style="mix-blend-mode:hard-light;isolation:isolate"/><path d="M1588.438,2235.2h0Z" fill="#333f48" style="mix-blend-mode:hard-light;isolation:isolate"/><path d="M1638.319,2184.744v-49.3h-49.873A49.876,49.876,0,0,1,1638.319,2184.744Z" fill="#1b292d"/><path d="M1588.446,2235.2h49.873v-49.3A49.876,49.876,0,0,1,1588.446,2235.2Z" fill="#1b292d"/><path d="M1638.319,2185.905v-1.161a49.876,49.876,0,0,0-49.873-49.3h-.008V2235.2h.008A49.876,49.876,0,0,0,1638.319,2185.905Z" fill="#222e33"/><rect width="299.266" height="199.51" transform="translate(1638.319 1938.102)" fill="#151e22"/><rect width="66.51" height="33.252" transform="translate(1671.564 2004.605)" fill="#1b292d"/><rect width="66.51" height="66.494" transform="translate(1671.565 1938.112)" fill="#222e33"/><rect width="33.256" height="66.503" transform="translate(1638.319 1938.102)" fill="#2b3740"/><path d="M1830.177,1999.484a99.78,99.78,0,0,0-92.1-61.382v99.755l50.545-21.041Z" fill="#2b3740"/><path d="M1830.177,1999.484a99.433,99.433,0,0,1,7.653,38.373v-41.565Z" fill="#1b292d"/><path d="M1788.62,2016.816l-50.545,21.041h99.755a99.433,99.433,0,0,0-7.653-38.373Z" fill="#222e33"/><path d="M1871.082,1938.1v8.9a66.462,66.462,0,0,1,33.251,57.594v33.264h33.252v-33.264A66.5,66.5,0,0,0,1871.082,1938.1Z" fill="#1b292d"/><path d="M1837.83,1938.1v99.755h33.252V1947A66.2,66.2,0,0,0,1837.83,1938.1Z" fill="#2b3740"/><path d="M1871.082,1947v90.858h33.251v-33.264A66.462,66.462,0,0,0,1871.082,1947Z" fill="#222e33"/><circle cx="49.878" cy="49.878" r="49.878" transform="translate(1638.319 2037.857)" fill="#2b3740"/><circle cx="21.596" cy="21.596" r="21.596" transform="translate(1666.711 2066.138)" fill="#222e33"/><path d="M1787.952,2137.611h49.878v-99.755Z" fill="#1b292d"/><path d="M1738.075,2137.612h49.878l-49.878-99.754Z" fill="#222e33"/><path d="M1738.075,2037.857l49.878,99.754,49.878-99.754Z" fill="#2b3740"/><path d="M1837.83,2087.734a49.88,49.88,0,0,0,49.874,49.878v-99.755A49.879,49.879,0,0,0,1837.83,2087.734Z" fill="#2b3740"/><path d="M1887.7,2037.857Z" fill="#333f48" style="mix-blend-mode:hard-light;isolation:isolate"/><path d="M1887.7,2137.612h0Z" fill="#333f48" style="mix-blend-mode:hard-light;isolation:isolate"/><path d="M1937.585,2087.154v-49.3h-49.874A49.876,49.876,0,0,1,1937.585,2087.154Z" fill="#1b292d"/><path d="M1887.711,2137.612h49.874v-49.3A49.876,49.876,0,0,1,1887.711,2137.612Z" fill="#1b292d"/><path d="M1937.585,2088.315v-1.161a49.876,49.876,0,0,0-49.874-49.3h-.007v99.755h.007A49.876,49.876,0,0,0,1937.585,2088.315Z" fill="#222e33"/><rect width="299.266" height="199.51" transform="translate(1638.319 2137.612)" fill="#151e22"/><rect width="66.51" height="33.252" transform="translate(1671.564 2204.115)" fill="#1b292d"/><rect width="66.51" height="66.494" transform="translate(1671.565 2137.622)" fill="#222e33"/><rect width="33.256" height="66.503" transform="translate(1638.319 2137.612)" fill="#2b3740"/><path d="M1830.177,2198.994a99.781,99.781,0,0,0-92.1-61.382v99.755l50.545-21.04Z" fill="#2b3740"/><path d="M1830.177,2198.994a99.434,99.434,0,0,1,7.653,38.373V2195.8Z" fill="#1b292d"/><path d="M1788.62,2216.327l-50.545,21.04h99.755a99.434,99.434,0,0,0-7.653-38.373Z" fill="#222e33"/><path d="M1871.082,2137.612v8.9a66.46,66.46,0,0,1,33.251,57.594v33.263h33.252V2204.1A66.5,66.5,0,0,0,1871.082,2137.612Z" fill="#1b292d"/><path d="M1837.83,2137.612v99.755h33.252V2146.51A66.2,66.2,0,0,0,1837.83,2137.612Z" fill="#2b3740"/><path d="M1871.082,2146.51v90.857h33.251V2204.1A66.46,66.46,0,0,0,1871.082,2146.51Z" fill="#222e33"/><circle cx="49.878" cy="49.878" r="49.878" transform="translate(1638.319 2237.367)" fill="#2b3740"/><circle cx="21.596" cy="21.596" r="21.596" transform="translate(1666.711 2265.649)" fill="#222e33"/><path d="M1787.952,2337.122h49.878v-99.755Z" fill="#1b292d"/><path d="M1738.075,2337.123h49.878l-49.878-99.754Z" fill="#222e33"/><path d="M1738.075,2237.367l49.878,99.754,49.878-99.754Z" fill="#2b3740"/><path d="M1837.83,2287.245a49.879,49.879,0,0,0,49.874,49.877v-99.755A49.88,49.88,0,0,0,1837.83,2287.245Z" fill="#2b3740"/><path d="M1887.7,2237.367h0Z" fill="#333f48" style="mix-blend-mode:hard-light;isolation:isolate"/><path d="M1887.7,2337.123h0Z" fill="#333f48" style="mix-blend-mode:hard-light;isolation:isolate"/><path d="M1937.585,2286.665v-49.3h-49.874A49.877,49.877,0,0,1,1937.585,2286.665Z" fill="#1b292d"/><path d="M1887.711,2337.123h49.874v-49.3A49.877,49.877,0,0,1,1887.711,2337.123Z" fill="#1b292d"/><path d="M1937.585,2287.825v-1.16a49.877,49.877,0,0,0-49.874-49.3h-.007v99.755h.007A49.877,49.877,0,0,0,1937.585,2287.825Z" fill="#222e33"/><rect width="299.266" height="199.51" transform="translate(740.522 2035.692)" fill="#151e22"/><rect width="66.51" height="33.252" transform="translate(773.767 2102.195)" fill="#1b292d"/><rect width="66.51" height="66.494" transform="translate(773.768 2035.702)" fill="#222e33"/><rect width="33.256" height="66.503" transform="translate(740.522 2035.692)" fill="#2b3740"/><path d="M932.38,2097.074a99.781,99.781,0,0,0-92.1-61.382v99.755l50.545-21.04Z" fill="#2b3740"/><path d="M932.38,2097.074a99.451,99.451,0,0,1,7.653,38.373v-41.565Z" fill="#1b292d"/><path d="M890.822,2114.407l-50.545,21.04h99.756a99.451,99.451,0,0,0-7.653-38.373Z" fill="#222e33"/><path d="M973.284,2035.692v8.9a66.462,66.462,0,0,1,33.252,57.6v33.263h33.252v-33.263A66.5,66.5,0,0,0,973.284,2035.692Z" fill="#1b292d"/><path d="M940.033,2035.692v99.755h33.251v-90.858A66.2,66.2,0,0,0,940.033,2035.692Z" fill="#2b3740"/><path d="M973.284,2044.589v90.858h33.252v-33.263A66.462,66.462,0,0,0,973.284,2044.589Z" fill="#222e33"/><circle cx="49.878" cy="49.878" r="49.878" transform="translate(740.522 2135.447)" fill="#2b3740"/><circle cx="21.596" cy="21.596" r="21.596" transform="translate(768.914 2163.728)" fill="#222e33"/><path d="M890.155,2235.2h49.878v-99.755Z" fill="#1b292d"/><path d="M840.277,2235.2h49.878l-49.878-99.755Z" fill="#222e33"/><path d="M840.277,2135.447l49.878,99.755,49.878-99.755Z" fill="#2b3740"/><path d="M940.033,2185.325a49.879,49.879,0,0,0,49.874,49.877v-99.755A49.879,49.879,0,0,0,940.033,2185.325Z" fill="#2b3740"/><path d="M989.907,2135.447h0Z" fill="#333f48" style="mix-blend-mode:hard-light;isolation:isolate"/><path d="M989.907,2235.2h0Z" fill="#333f48" style="mix-blend-mode:hard-light;isolation:isolate"/><path d="M1039.788,2184.744v-49.3H989.914A49.877,49.877,0,0,1,1039.788,2184.744Z" fill="#1b292d"/><path d="M989.914,2235.2h49.874v-49.3A49.877,49.877,0,0,1,989.914,2235.2Z" fill="#1b292d"/><path d="M1039.788,2185.905v-1.161a49.877,49.877,0,0,0-49.874-49.3h-.007V2235.2h.007A49.877,49.877,0,0,0,1039.788,2185.905Z" fill="#222e33"/><rect width="299.266" height="199.51" transform="translate(1039.788 1938.102)" fill="#151e22"/><rect width="66.51" height="33.252" transform="translate(1073.033 2004.605)" fill="#1b292d"/><rect width="66.51" height="66.494" transform="translate(1073.033 1938.112)" fill="#222e33"/><rect width="33.256" height="66.503" transform="translate(1039.788 1938.102)" fill="#2b3740"/><path d="M1231.646,1999.484a99.782,99.782,0,0,0-92.1-61.382v99.755l50.545-21.041Z" fill="#2b3740"/><path d="M1231.646,1999.484a99.45,99.45,0,0,1,7.652,38.373v-41.565Z" fill="#1b292d"/><path d="M1190.088,2016.816l-50.545,21.041H1239.3a99.45,99.45,0,0,0-7.652-38.373Z" fill="#222e33"/><path d="M1272.55,1938.1v8.9a66.46,66.46,0,0,1,33.252,57.594v33.264h33.252v-33.264A66.5,66.5,0,0,0,1272.55,1938.1Z" fill="#1b292d"/><path d="M1239.3,1938.1v99.755h33.252V1947A66.2,66.2,0,0,0,1239.3,1938.1Z" fill="#2b3740"/><path d="M1272.55,1947v90.858H1305.8v-33.264A66.46,66.46,0,0,0,1272.55,1947Z" fill="#222e33"/><circle cx="49.878" cy="49.878" r="49.878" transform="translate(1039.788 2037.857)" fill="#2b3740"/><circle cx="21.596" cy="21.596" r="21.596" transform="translate(1068.179 2066.138)" fill="#222e33"/><path d="M1189.421,2137.611H1239.3v-99.755Z" fill="#1b292d"/><path d="M1139.543,2137.612h49.878l-49.878-99.754Z" fill="#222e33"/><path d="M1139.543,2037.857l49.878,99.754,49.878-99.754Z" fill="#2b3740"/><path d="M1239.3,2087.734a49.88,49.88,0,0,0,49.874,49.878v-99.755A49.879,49.879,0,0,0,1239.3,2087.734Z" fill="#2b3740"/><path d="M1289.172,2037.857Z" fill="#333f48" style="mix-blend-mode:hard-light;isolation:isolate"/><path d="M1289.172,2137.612h0Z" fill="#333f48" style="mix-blend-mode:hard-light;isolation:isolate"/><path d="M1339.054,2087.154v-49.3H1289.18A49.877,49.877,0,0,1,1339.054,2087.154Z" fill="#1b292d"/><path d="M1289.18,2137.612h49.874v-49.3A49.877,49.877,0,0,1,1289.18,2137.612Z" fill="#1b292d"/><path d="M1339.054,2088.315v-1.161a49.877,49.877,0,0,0-49.874-49.3h-.008v99.755h.008A49.877,49.877,0,0,0,1339.054,2088.315Z" fill="#222e33"/><rect width="299.266" height="199.51" transform="translate(1039.788 2137.612)" fill="#151e22"/><rect width="66.51" height="33.252" transform="translate(1073.033 2204.115)" fill="#1b292d"/><rect width="66.51" height="66.494" transform="translate(1073.033 2137.622)" fill="#222e33"/><rect width="33.256" height="66.503" transform="translate(1039.788 2137.612)" fill="#2b3740"/><path d="M1231.646,2198.994a99.782,99.782,0,0,0-92.1-61.382v99.755l50.545-21.04Z" fill="#2b3740"/><path d="M1231.646,2198.994a99.451,99.451,0,0,1,7.652,38.373V2195.8Z" fill="#1b292d"/><path d="M1190.088,2216.327l-50.545,21.04H1239.3a99.451,99.451,0,0,0-7.652-38.373Z" fill="#222e33"/><path d="M1272.55,2137.612v8.9A66.459,66.459,0,0,1,1305.8,2204.1v33.263h33.252V2204.1A66.5,66.5,0,0,0,1272.55,2137.612Z" fill="#1b292d"/><path d="M1239.3,2137.612v99.755h33.252V2146.51A66.2,66.2,0,0,0,1239.3,2137.612Z" fill="#2b3740"/><path d="M1272.55,2146.51v90.857H1305.8V2204.1A66.459,66.459,0,0,0,1272.55,2146.51Z" fill="#222e33"/><circle cx="49.878" cy="49.878" r="49.878" transform="translate(1039.788 2237.367)" fill="#2b3740"/><circle cx="21.596" cy="21.596" r="21.596" transform="translate(1068.179 2265.649)" fill="#222e33"/><path d="M1189.421,2337.122H1239.3v-99.755Z" fill="#1b292d"/><path d="M1139.543,2337.123h49.878l-49.878-99.754Z" fill="#222e33"/><path d="M1139.543,2237.367l49.878,99.754,49.878-99.754Z" fill="#2b3740"/><path d="M1239.3,2287.245a49.879,49.879,0,0,0,49.874,49.877v-99.755A49.88,49.88,0,0,0,1239.3,2287.245Z" fill="#2b3740"/><path d="M1289.172,2237.367h0Z" fill="#333f48" style="mix-blend-mode:hard-light;isolation:isolate"/><path d="M1289.172,2337.123h0Z" fill="#333f48" style="mix-blend-mode:hard-light;isolation:isolate"/><path d="M1339.054,2286.665v-49.3H1289.18A49.878,49.878,0,0,1,1339.054,2286.665Z" fill="#1b292d"/><path d="M1289.18,2337.123h49.874v-49.3A49.878,49.878,0,0,1,1289.18,2337.123Z" fill="#1b292d"/><path d="M1339.054,2287.825v-1.16a49.878,49.878,0,0,0-49.874-49.3h-.008v99.755h.008A49.878,49.878,0,0,0,1339.054,2287.825Z" fill="#222e33"/><rect width="299.266" height="199.51" transform="translate(441.257 1938.102)" fill="#151e22"/><rect width="66.51" height="33.252" transform="translate(474.501 2004.605)" fill="#1b292d"/><rect width="66.51" height="66.494" transform="translate(474.502 1938.112)" fill="#222e33"/><rect width="33.256" height="66.503" transform="translate(441.257 1938.102)" fill="#2b3740"/><path d="M633.114,1999.484a99.78,99.78,0,0,0-92.1-61.382v99.755l50.545-21.041Z" fill="#2b3740"/><path d="M633.114,1999.484a99.433,99.433,0,0,1,7.653,38.373v-41.565Z" fill="#1b292d"/><path d="M591.557,2016.816l-50.545,21.041h99.755a99.433,99.433,0,0,0-7.653-38.373Z" fill="#222e33"/><path d="M674.019,1938.1v8.9a66.461,66.461,0,0,1,33.251,57.594v33.264h33.252v-33.264A66.5,66.5,0,0,0,674.019,1938.1Z" fill="#1b292d"/><path d="M640.767,1938.1v99.755h33.252V1947A66.2,66.2,0,0,0,640.767,1938.1Z" fill="#2b3740"/><path d="M674.019,1947v90.858H707.27v-33.264A66.461,66.461,0,0,0,674.019,1947Z" fill="#222e33"/><circle cx="49.878" cy="49.878" r="49.878" transform="translate(441.256 2037.857)" fill="#2b3740"/><circle cx="21.596" cy="21.596" r="21.596" transform="translate(469.648 2066.138)" fill="#222e33"/><path d="M590.889,2137.611h49.878v-99.755Z" fill="#1b292d"/><path d="M541.012,2137.612h49.878l-49.878-99.754Z" fill="#222e33"/><path d="M541.012,2037.857l49.878,99.754,49.878-99.754Z" fill="#2b3740"/><path d="M640.767,2087.734a49.88,49.88,0,0,0,49.874,49.878v-99.755A49.879,49.879,0,0,0,640.767,2087.734Z" fill="#2b3740"/><path d="M690.641,2037.857Z" fill="#333f48" style="mix-blend-mode:hard-light;isolation:isolate"/><path d="M690.641,2137.612h0Z" fill="#333f48" style="mix-blend-mode:hard-light;isolation:isolate"/><path d="M740.522,2087.154v-49.3H690.648A49.876,49.876,0,0,1,740.522,2087.154Z" fill="#1b292d"/><path d="M690.648,2137.612h49.874v-49.3A49.876,49.876,0,0,1,690.648,2137.612Z" fill="#1b292d"/><path d="M740.522,2088.315v-1.161a49.876,49.876,0,0,0-49.874-49.3h-.007v99.755h.007A49.876,49.876,0,0,0,740.522,2088.315Z" fill="#222e33"/><rect width="299.266" height="199.51" transform="translate(441.257 2137.612)" fill="#151e22"/><rect width="66.51" height="33.252" transform="translate(474.501 2204.115)" fill="#1b292d"/><rect width="66.51" height="66.494" transform="translate(474.502 2137.622)" fill="#222e33"/><rect width="33.256" height="66.503" transform="translate(441.257 2137.612)" fill="#2b3740"/><path d="M633.114,2198.994a99.78,99.78,0,0,0-92.1-61.382v99.755l50.545-21.04Z" fill="#2b3740"/><path d="M633.114,2198.994a99.434,99.434,0,0,1,7.653,38.373V2195.8Z" fill="#1b292d"/><path d="M591.557,2216.327l-50.545,21.04h99.755a99.434,99.434,0,0,0-7.653-38.373Z" fill="#222e33"/><path d="M674.019,2137.612v8.9A66.46,66.46,0,0,1,707.27,2204.1v33.263h33.252V2204.1A66.5,66.5,0,0,0,674.019,2137.612Z" fill="#1b292d"/><path d="M640.767,2137.612v99.755h33.252V2146.51A66.2,66.2,0,0,0,640.767,2137.612Z" fill="#2b3740"/><path d="M674.019,2146.51v90.857H707.27V2204.1A66.46,66.46,0,0,0,674.019,2146.51Z" fill="#222e33"/><circle cx="49.878" cy="49.878" r="49.878" transform="translate(441.256 2237.367)" fill="#2b3740"/><circle cx="21.596" cy="21.596" r="21.596" transform="translate(469.648 2265.649)" fill="#222e33"/><path d="M590.889,2337.122h49.878v-99.755Z" fill="#1b292d"/><path d="M541.012,2337.123h49.878l-49.878-99.754Z" fill="#222e33"/><path d="M541.012,2237.367l49.878,99.754,49.878-99.754Z" fill="#2b3740"/><path d="M640.767,2287.245a49.879,49.879,0,0,0,49.874,49.877v-99.755A49.88,49.88,0,0,0,640.767,2287.245Z" fill="#2b3740"/><path d="M690.641,2237.367h0Z" fill="#333f48" style="mix-blend-mode:hard-light;isolation:isolate"/><path d="M690.641,2337.123h0Z" fill="#333f48" style="mix-blend-mode:hard-light;isolation:isolate"/><path d="M740.522,2286.665v-49.3H690.648A49.877,49.877,0,0,1,740.522,2286.665Z" fill="#1b292d"/><path d="M690.648,2337.123h49.874v-49.3A49.877,49.877,0,0,1,690.648,2337.123Z" fill="#1b292d"/><path d="M740.522,2287.825v-1.16a49.877,49.877,0,0,0-49.874-49.3h-.007v99.755h.007A49.877,49.877,0,0,0,740.522,2287.825Z" fill="#222e33"/><rect width="299.266" height="199.51" transform="translate(-456.541 2035.692)" fill="#151e22"/><rect width="66.51" height="33.252" transform="translate(-423.296 2102.195)" fill="#1b292d"/><rect width="66.51" height="66.494" transform="translate(-423.295 2035.702)" fill="#222e33"/><rect width="33.256" height="66.503" transform="translate(-456.541 2035.692)" fill="#2b3740"/><path d="M-264.683,2097.074a99.78,99.78,0,0,0-92.1-61.382v99.755l50.544-21.04Z" fill="#2b3740"/><path d="M-264.683,2097.074a99.451,99.451,0,0,1,7.653,38.373v-41.565Z" fill="#1b292d"/><path d="M-306.241,2114.407l-50.544,21.04h99.755a99.451,99.451,0,0,0-7.653-38.373Z" fill="#222e33"/><path d="M-223.778,2035.692v8.9a66.463,66.463,0,0,1,33.251,57.6v33.263h33.252v-33.263A66.5,66.5,0,0,0-223.778,2035.692Z" fill="#1b292d"/><path d="M-257.03,2035.692v99.755h33.252v-90.858A66.2,66.2,0,0,0-257.03,2035.692Z" fill="#2b3740"/><path d="M-223.778,2044.589v90.858h33.251v-33.263A66.463,66.463,0,0,0-223.778,2044.589Z" fill="#222e33"/><circle cx="49.878" cy="49.878" r="49.878" transform="translate(-456.541 2135.447)" fill="#2b3740"/><circle cx="21.596" cy="21.596" r="21.596" transform="translate(-428.149 2163.728)" fill="#222e33"/><path d="M-306.908,2235.2h49.878v-99.755Z" fill="#1b292d"/><path d="M-356.785,2235.2h49.878l-49.878-99.755Z" fill="#222e33"/><path d="M-356.785,2135.447l49.878,99.755,49.878-99.755Z" fill="#2b3740"/><path d="M-257.03,2185.325a49.879,49.879,0,0,0,49.874,49.877v-99.755A49.879,49.879,0,0,0-257.03,2185.325Z" fill="#2b3740"/><path d="M-207.156,2135.447h0Z" fill="#333f48" style="mix-blend-mode:hard-light;isolation:isolate"/><path d="M-207.156,2235.2h0Z" fill="#333f48" style="mix-blend-mode:hard-light;isolation:isolate"/><path d="M-157.275,2184.744v-49.3h-49.874A49.877,49.877,0,0,1-157.275,2184.744Z" fill="#1b292d"/><path d="M-207.149,2235.2h49.874v-49.3A49.877,49.877,0,0,1-207.149,2235.2Z" fill="#1b292d"/><path d="M-157.275,2185.905v-1.161a49.877,49.877,0,0,0-49.874-49.3h-.007V2235.2h.007A49.877,49.877,0,0,0-157.275,2185.905Z" fill="#222e33"/><rect width="299.266" height="199.51" transform="translate(-157.275 1938.102)" fill="#151e22"/><rect width="66.51" height="33.252" transform="translate(-124.03 2004.605)" fill="#1b292d"/><rect width="66.51" height="66.494" transform="translate(-124.03 1938.112)" fill="#222e33"/><rect width="33.256" height="66.503" transform="translate(-157.275 1938.102)" fill="#2b3740"/><path d="M34.583,1999.484a99.781,99.781,0,0,0-92.1-61.382v99.755l50.545-21.041Z" fill="#2b3740"/><path d="M34.583,1999.484a99.451,99.451,0,0,1,7.652,38.373v-41.565Z" fill="#1b292d"/><path d="M-6.975,2016.816l-50.545,21.041H42.235a99.451,99.451,0,0,0-7.652-38.373Z" fill="#222e33"/><path d="M75.487,1938.1v8.9a66.46,66.46,0,0,1,33.252,57.594v33.264h33.252v-33.264A66.5,66.5,0,0,0,75.487,1938.1Z" fill="#1b292d"/><path d="M42.235,1938.1v99.755H75.487V1947A66.2,66.2,0,0,0,42.235,1938.1Z" fill="#2b3740"/><path d="M75.487,1947v90.858h33.252v-33.264A66.46,66.46,0,0,0,75.487,1947Z" fill="#222e33"/><circle cx="49.878" cy="49.878" r="49.878" transform="translate(-157.275 2037.857)" fill="#2b3740"/><circle cx="21.596" cy="21.596" r="21.596" transform="translate(-128.884 2066.138)" fill="#222e33"/><path d="M-7.642,2137.611H42.235v-99.755Z" fill="#1b292d"/><path d="M-57.52,2137.612H-7.642l-49.878-99.754Z" fill="#222e33"/><path d="M-57.52,2037.857l49.878,99.754,49.878-99.754Z" fill="#2b3740"/><path d="M42.235,2087.734a49.88,49.88,0,0,0,49.874,49.878v-99.755A49.879,49.879,0,0,0,42.235,2087.734Z" fill="#2b3740"/><path d="M92.109,2037.857Z" fill="#333f48" style="mix-blend-mode:hard-light;isolation:isolate"/><path d="M92.109,2137.612h0Z" fill="#333f48" style="mix-blend-mode:hard-light;isolation:isolate"/><path d="M141.991,2087.154v-49.3H92.117A49.877,49.877,0,0,1,141.991,2087.154Z" fill="#1b292d"/><path d="M92.117,2137.612h49.874v-49.3A49.877,49.877,0,0,1,92.117,2137.612Z" fill="#1b292d"/><path d="M141.991,2088.315v-1.161a49.877,49.877,0,0,0-49.874-49.3h-.008v99.755h.008A49.877,49.877,0,0,0,141.991,2088.315Z" fill="#222e33"/><rect width="299.266" height="199.51" transform="translate(-157.275 2137.612)" fill="#151e22"/><rect width="66.51" height="33.252" transform="translate(-124.03 2204.115)" fill="#1b292d"/><rect width="66.51" height="66.494" transform="translate(-124.03 2137.622)" fill="#222e33"/><rect width="33.256" height="66.503" transform="translate(-157.275 2137.612)" fill="#2b3740"/><path d="M34.583,2198.994a99.781,99.781,0,0,0-92.1-61.382v99.755l50.545-21.04Z" fill="#2b3740"/><path d="M34.583,2198.994a99.451,99.451,0,0,1,7.652,38.373V2195.8Z" fill="#1b292d"/><path d="M-6.975,2216.327l-50.545,21.04H42.235a99.451,99.451,0,0,0-7.652-38.373Z" fill="#222e33"/><path d="M75.487,2137.612v8.9a66.459,66.459,0,0,1,33.252,57.594v33.263h33.252V2204.1A66.5,66.5,0,0,0,75.487,2137.612Z" fill="#1b292d"/><path d="M42.235,2137.612v99.755H75.487V2146.51A66.2,66.2,0,0,0,42.235,2137.612Z" fill="#2b3740"/><path d="M75.487,2146.51v90.857h33.252V2204.1A66.459,66.459,0,0,0,75.487,2146.51Z" fill="#222e33"/><circle cx="49.878" cy="49.878" r="49.878" transform="translate(-157.275 2237.367)" fill="#2b3740"/><circle cx="21.596" cy="21.596" r="21.596" transform="translate(-128.884 2265.649)" fill="#222e33"/><path d="M-7.642,2337.122H42.235v-99.755Z" fill="#1b292d"/><path d="M-57.52,2337.123H-7.642l-49.878-99.754Z" fill="#222e33"/><path d="M-57.52,2237.367l49.878,99.754,49.878-99.754Z" fill="#2b3740"/><path d="M42.235,2287.245a49.879,49.879,0,0,0,49.874,49.877v-99.755A49.88,49.88,0,0,0,42.235,2287.245Z" fill="#2b3740"/><path d="M92.109,2237.367h0Z" fill="#333f48" style="mix-blend-mode:hard-light;isolation:isolate"/><path d="M92.109,2337.123h0Z" fill="#333f48" style="mix-blend-mode:hard-light;isolation:isolate"/><path d="M141.991,2286.665v-49.3H92.117A49.878,49.878,0,0,1,141.991,2286.665Z" fill="#1b292d"/><path d="M92.117,2337.123h49.874v-49.3A49.878,49.878,0,0,1,92.117,2337.123Z" fill="#1b292d"/><path d="M141.991,2287.825v-1.16a49.878,49.878,0,0,0-49.874-49.3h-.008v99.755h.008A49.878,49.878,0,0,0,141.991,2287.825Z" fill="#222e33"/><rect width="299.266" height="199.51" transform="translate(141.991 2235.202)" fill="#151e22"/><rect width="66.51" height="33.252" transform="translate(175.236 2301.706)" fill="#1b292d"/><rect width="66.51" height="66.494" transform="translate(175.236 2235.212)" fill="#222e33"/><rect width="33.256" height="66.503" transform="translate(141.991 2235.202)" fill="#2b3740"/><path d="M333.848,2296.584a99.781,99.781,0,0,0-92.1-61.382v99.755l50.545-21.04Z" fill="#2b3740"/><path d="M333.848,2296.584a99.436,99.436,0,0,1,7.653,38.373v-41.564Z" fill="#1b292d"/><path d="M292.291,2313.917l-50.545,21.04H341.5a99.436,99.436,0,0,0-7.653-38.373Z" fill="#222e33"/><path d="M374.753,2235.2v8.9a66.462,66.462,0,0,1,33.252,57.594v33.263h33.251v-33.263A66.5,66.5,0,0,0,374.753,2235.2Z" fill="#1b292d"/><path d="M341.5,2235.2v99.755h33.252V2244.1A66.2,66.2,0,0,0,341.5,2235.2Z" fill="#2b3740"/><path d="M374.753,2244.1v90.857h33.252v-33.263A66.462,66.462,0,0,0,374.753,2244.1Z" fill="#222e33"/><circle cx="49.878" cy="49.878" r="49.878" transform="translate(141.991 2334.957)" fill="#2b3740"/><circle cx="21.596" cy="21.596" r="21.596" transform="translate(170.382 2363.239)" fill="#222e33"/><path d="M291.624,2434.712H341.5v-99.755Z" fill="#1b292d"/><path d="M241.746,2434.713h49.878l-49.878-99.755Z" fill="#222e33"/><path d="M241.746,2334.957l49.878,99.755,49.878-99.755Z" fill="#2b3740"/><path d="M341.5,2384.835a49.881,49.881,0,0,0,49.874,49.878v-99.756A49.881,49.881,0,0,0,341.5,2384.835Z" fill="#2b3740"/><path d="M391.375,2334.957h0Z" fill="#333f48" style="mix-blend-mode:hard-light;isolation:isolate"/><path d="M391.375,2434.713h0Z" fill="#333f48" style="mix-blend-mode:hard-light;isolation:isolate"/><path d="M441.256,2384.255v-49.3H391.383A49.877,49.877,0,0,1,441.256,2384.255Z" fill="#1b292d"/><path d="M391.383,2434.713h49.873v-49.3A49.877,49.877,0,0,1,391.383,2434.713Z" fill="#1b292d"/><path d="M441.256,2385.415v-1.16a49.877,49.877,0,0,0-49.873-49.3h-.008v99.756h.008A49.877,49.877,0,0,0,441.256,2385.415Z" fill="#222e33"/><rect width="299.266" height="199.51" transform="translate(1339.054 2235.202)" fill="#151e22"/><rect width="66.51" height="33.252" transform="translate(1372.299 2301.706)" fill="#1b292d"/><rect width="66.51" height="66.494" transform="translate(1372.299 2235.212)" fill="#222e33"/><rect width="33.256" height="66.503" transform="translate(1339.054 2235.202)" fill="#2b3740"/><path d="M1530.911,2296.584a99.781,99.781,0,0,0-92.1-61.382v99.755l50.545-21.04Z" fill="#2b3740"/><path d="M1530.911,2296.584a99.436,99.436,0,0,1,7.653,38.373v-41.564Z" fill="#1b292d"/><path d="M1489.354,2313.917l-50.545,21.04h99.755a99.436,99.436,0,0,0-7.653-38.373Z" fill="#222e33"/><path d="M1571.816,2235.2v8.9a66.462,66.462,0,0,1,33.252,57.594v33.263h33.251v-33.263A66.5,66.5,0,0,0,1571.816,2235.2Z" fill="#1b292d"/><path d="M1538.564,2235.2v99.755h33.252V2244.1A66.2,66.2,0,0,0,1538.564,2235.2Z" fill="#2b3740"/><path d="M1571.816,2244.1v90.857h33.252v-33.263A66.462,66.462,0,0,0,1571.816,2244.1Z" fill="#222e33"/><circle cx="49.878" cy="49.878" r="49.878" transform="translate(1339.054 2334.957)" fill="#2b3740"/><circle cx="21.596" cy="21.596" r="21.596" transform="translate(1367.445 2363.239)" fill="#222e33"/><path d="M1488.687,2434.712h49.878v-99.755Z" fill="#1b292d"/><path d="M1438.809,2434.713h49.878l-49.878-99.755Z" fill="#222e33"/><path d="M1438.809,2334.957l49.878,99.755,49.878-99.755Z" fill="#2b3740"/><path d="M1538.564,2384.835a49.881,49.881,0,0,0,49.874,49.878v-99.756A49.881,49.881,0,0,0,1538.564,2384.835Z" fill="#2b3740"/><path d="M1588.438,2334.957h0Z" fill="#333f48" style="mix-blend-mode:hard-light;isolation:isolate"/><path d="M1588.438,2434.713h0Z" fill="#333f48" style="mix-blend-mode:hard-light;isolation:isolate"/><path d="M1638.319,2384.255v-49.3h-49.873A49.877,49.877,0,0,1,1638.319,2384.255Z" fill="#1b292d"/><path d="M1588.446,2434.713h49.873v-49.3A49.876,49.876,0,0,1,1588.446,2434.713Z" fill="#1b292d"/><path d="M1638.319,2385.415v-1.16a49.877,49.877,0,0,0-49.873-49.3h-.008v99.756h.008A49.876,49.876,0,0,0,1638.319,2385.415Z" fill="#222e33"/><rect width="299.266" height="199.51" transform="translate(1638.319 2137.612)" fill="#151e22"/><rect width="66.51" height="33.252" transform="translate(1671.564 2204.115)" fill="#1b292d"/><rect width="66.51" height="66.494" transform="translate(1671.565 2137.622)" fill="#222e33"/><rect width="33.256" height="66.503" transform="translate(1638.319 2137.612)" fill="#2b3740"/><path d="M1830.177,2198.994a99.781,99.781,0,0,0-92.1-61.382v99.755l50.545-21.04Z" fill="#2b3740"/><path d="M1830.177,2198.994a99.434,99.434,0,0,1,7.653,38.373V2195.8Z" fill="#1b292d"/><path d="M1788.62,2216.327l-50.545,21.04h99.755a99.434,99.434,0,0,0-7.653-38.373Z" fill="#222e33"/><path d="M1871.082,2137.612v8.9a66.46,66.46,0,0,1,33.251,57.594v33.263h33.252V2204.1A66.5,66.5,0,0,0,1871.082,2137.612Z" fill="#1b292d"/><path d="M1837.83,2137.612v99.755h33.252V2146.51A66.2,66.2,0,0,0,1837.83,2137.612Z" fill="#2b3740"/><path d="M1871.082,2146.51v90.857h33.251V2204.1A66.46,66.46,0,0,0,1871.082,2146.51Z" fill="#222e33"/><circle cx="49.878" cy="49.878" r="49.878" transform="translate(1638.319 2237.367)" fill="#2b3740"/><circle cx="21.596" cy="21.596" r="21.596" transform="translate(1666.711 2265.649)" fill="#222e33"/><path d="M1787.952,2337.122h49.878v-99.755Z" fill="#1b292d"/><path d="M1738.075,2337.123h49.878l-49.878-99.754Z" fill="#222e33"/><path d="M1738.075,2237.367l49.878,99.754,49.878-99.754Z" fill="#2b3740"/><path d="M1837.83,2287.245a49.879,49.879,0,0,0,49.874,49.877v-99.755A49.88,49.88,0,0,0,1837.83,2287.245Z" fill="#2b3740"/><path d="M1887.7,2237.367h0Z" fill="#333f48" style="mix-blend-mode:hard-light;isolation:isolate"/><path d="M1887.7,2337.123h0Z" fill="#333f48" style="mix-blend-mode:hard-light;isolation:isolate"/><path d="M1937.585,2286.665v-49.3h-49.874A49.877,49.877,0,0,1,1937.585,2286.665Z" fill="#1b292d"/><path d="M1887.711,2337.123h49.874v-49.3A49.877,49.877,0,0,1,1887.711,2337.123Z" fill="#1b292d"/><path d="M1937.585,2287.825v-1.16a49.877,49.877,0,0,0-49.874-49.3h-.007v99.755h.007A49.877,49.877,0,0,0,1937.585,2287.825Z" fill="#222e33"/><rect width="299.266" height="199.51" transform="translate(1638.319 2337.123)" fill="#151e22"/><rect width="66.51" height="33.252" transform="translate(1671.564 2403.626)" fill="#1b292d"/><rect width="66.51" height="66.494" transform="translate(1671.565 2337.133)" fill="#222e33"/><rect width="33.256" height="66.503" transform="translate(1638.319 2337.123)" fill="#2b3740"/><path d="M1830.177,2398.5a99.781,99.781,0,0,0-92.1-61.382v99.755l50.545-21.041Z" fill="#2b3740"/><path d="M1830.177,2398.5a99.434,99.434,0,0,1,7.653,38.373v-41.565Z" fill="#1b292d"/><path d="M1788.62,2415.837l-50.545,21.041h99.755a99.434,99.434,0,0,0-7.653-38.373Z" fill="#222e33"/><path d="M1871.082,2337.123v8.9a66.462,66.462,0,0,1,33.251,57.594v33.264h33.252v-33.264A66.5,66.5,0,0,0,1871.082,2337.123Z" fill="#1b292d"/><path d="M1837.83,2337.123v99.755h33.252V2346.02A66.2,66.2,0,0,0,1837.83,2337.123Z" fill="#2b3740"/><path d="M1871.082,2346.02v90.858h33.251v-33.264A66.462,66.462,0,0,0,1871.082,2346.02Z" fill="#222e33"/><circle cx="49.878" cy="49.878" r="49.878" transform="translate(1638.319 2436.878)" fill="#2b3740"/><circle cx="21.596" cy="21.596" r="21.596" transform="translate(1666.711 2465.159)" fill="#222e33"/><path d="M1787.952,2536.632h49.878v-99.755Z" fill="#1b292d"/><path d="M1738.075,2536.633h49.878l-49.878-99.754Z" fill="#222e33"/><path d="M1738.075,2436.878l49.878,99.754,49.878-99.754Z" fill="#2b3740"/><path d="M1837.83,2486.755a49.88,49.88,0,0,0,49.874,49.878v-99.755A49.879,49.879,0,0,0,1837.83,2486.755Z" fill="#2b3740"/><path d="M1887.7,2436.878h0Z" fill="#333f48" style="mix-blend-mode:hard-light;isolation:isolate"/><path d="M1887.7,2536.633h0Z" fill="#333f48" style="mix-blend-mode:hard-light;isolation:isolate"/><path d="M1937.585,2486.175v-49.3h-49.874A49.876,49.876,0,0,1,1937.585,2486.175Z" fill="#1b292d"/><path d="M1887.711,2536.633h49.874v-49.3A49.876,49.876,0,0,1,1887.711,2536.633Z" fill="#1b292d"/><path d="M1937.585,2487.336v-1.161a49.876,49.876,0,0,0-49.874-49.3h-.007v99.755h.007A49.876,49.876,0,0,0,1937.585,2487.336Z" fill="#222e33"/><rect width="299.266" height="199.51" transform="translate(740.522 2235.202)" fill="#151e22"/><rect width="66.51" height="33.252" transform="translate(773.767 2301.706)" fill="#1b292d"/><rect width="66.51" height="66.494" transform="translate(773.768 2235.212)" fill="#222e33"/><rect width="33.256" height="66.503" transform="translate(740.522 2235.202)" fill="#2b3740"/><path d="M932.38,2296.584a99.781,99.781,0,0,0-92.1-61.382v99.755l50.545-21.04Z" fill="#2b3740"/><path d="M932.38,2296.584a99.454,99.454,0,0,1,7.653,38.373v-41.564Z" fill="#1b292d"/><path d="M890.822,2313.917l-50.545,21.04h99.756a99.454,99.454,0,0,0-7.653-38.373Z" fill="#222e33"/><path d="M973.284,2235.2v8.9a66.46,66.46,0,0,1,33.252,57.594v33.263h33.252v-33.263A66.5,66.5,0,0,0,973.284,2235.2Z" fill="#1b292d"/><path d="M940.033,2235.2v99.755h33.251V2244.1A66.2,66.2,0,0,0,940.033,2235.2Z" fill="#2b3740"/><path d="M973.284,2244.1v90.857h33.252v-33.263A66.46,66.46,0,0,0,973.284,2244.1Z" fill="#222e33"/><circle cx="49.878" cy="49.878" r="49.878" transform="translate(740.522 2334.957)" fill="#2b3740"/><circle cx="21.596" cy="21.596" r="21.596" transform="translate(768.914 2363.239)" fill="#222e33"/><path d="M890.155,2434.712h49.878v-99.755Z" fill="#1b292d"/><path d="M840.277,2434.713h49.878l-49.878-99.755Z" fill="#222e33"/><path d="M840.277,2334.957l49.878,99.755,49.878-99.755Z" fill="#2b3740"/><path d="M940.033,2384.835a49.88,49.88,0,0,0,49.874,49.878v-99.756A49.88,49.88,0,0,0,940.033,2384.835Z" fill="#2b3740"/><path d="M989.907,2334.957h0Z" fill="#333f48" style="mix-blend-mode:hard-light;isolation:isolate"/><path d="M989.907,2434.713h0Z" fill="#333f48" style="mix-blend-mode:hard-light;isolation:isolate"/><path d="M1039.788,2384.255v-49.3H989.914A49.878,49.878,0,0,1,1039.788,2384.255Z" fill="#1b292d"/><path d="M989.914,2434.713h49.874v-49.3A49.877,49.877,0,0,1,989.914,2434.713Z" fill="#1b292d"/><path d="M1039.788,2385.415v-1.16a49.878,49.878,0,0,0-49.874-49.3h-.007v99.756h.007A49.877,49.877,0,0,0,1039.788,2385.415Z" fill="#222e33"/><rect width="299.266" height="199.51" transform="translate(1039.788 2137.612)" fill="#151e22"/><rect width="66.51" height="33.252" transform="translate(1073.033 2204.115)" fill="#1b292d"/><rect width="66.51" height="66.494" transform="translate(1073.033 2137.622)" fill="#222e33"/><rect width="33.256" height="66.503" transform="translate(1039.788 2137.612)" fill="#2b3740"/><path d="M1231.646,2198.994a99.782,99.782,0,0,0-92.1-61.382v99.755l50.545-21.04Z" fill="#2b3740"/><path d="M1231.646,2198.994a99.451,99.451,0,0,1,7.652,38.373V2195.8Z" fill="#1b292d"/><path d="M1190.088,2216.327l-50.545,21.04H1239.3a99.451,99.451,0,0,0-7.652-38.373Z" fill="#222e33"/><path d="M1272.55,2137.612v8.9A66.459,66.459,0,0,1,1305.8,2204.1v33.263h33.252V2204.1A66.5,66.5,0,0,0,1272.55,2137.612Z" fill="#1b292d"/><path d="M1239.3,2137.612v99.755h33.252V2146.51A66.2,66.2,0,0,0,1239.3,2137.612Z" fill="#2b3740"/><path d="M1272.55,2146.51v90.857H1305.8V2204.1A66.459,66.459,0,0,0,1272.55,2146.51Z" fill="#222e33"/><circle cx="49.878" cy="49.878" r="49.878" transform="translate(1039.788 2237.367)" fill="#2b3740"/><circle cx="21.596" cy="21.596" r="21.596" transform="translate(1068.179 2265.649)" fill="#222e33"/><path d="M1189.421,2337.122H1239.3v-99.755Z" fill="#1b292d"/><path d="M1139.543,2337.123h49.878l-49.878-99.754Z" fill="#222e33"/><path d="M1139.543,2237.367l49.878,99.754,49.878-99.754Z" fill="#2b3740"/><path d="M1239.3,2287.245a49.879,49.879,0,0,0,49.874,49.877v-99.755A49.88,49.88,0,0,0,1239.3,2287.245Z" fill="#2b3740"/><path d="M1289.172,2237.367h0Z" fill="#333f48" style="mix-blend-mode:hard-light;isolation:isolate"/><path d="M1289.172,2337.123h0Z" fill="#333f48" style="mix-blend-mode:hard-light;isolation:isolate"/><path d="M1339.054,2286.665v-49.3H1289.18A49.878,49.878,0,0,1,1339.054,2286.665Z" fill="#1b292d"/><path d="M1289.18,2337.123h49.874v-49.3A49.878,49.878,0,0,1,1289.18,2337.123Z" fill="#1b292d"/><path d="M1339.054,2287.825v-1.16a49.878,49.878,0,0,0-49.874-49.3h-.008v99.755h.008A49.878,49.878,0,0,0,1339.054,2287.825Z" fill="#222e33"/><rect width="299.266" height="199.51" transform="translate(1039.788 2337.123)" fill="#151e22"/><rect width="66.51" height="33.252" transform="translate(1073.033 2403.626)" fill="#1b292d"/><rect width="66.51" height="66.494" transform="translate(1073.033 2337.133)" fill="#222e33"/><rect width="33.256" height="66.503" transform="translate(1039.788 2337.123)" fill="#2b3740"/><path d="M1231.646,2398.5a99.782,99.782,0,0,0-92.1-61.382v99.755l50.545-21.041Z" fill="#2b3740"/><path d="M1231.646,2398.5a99.452,99.452,0,0,1,7.652,38.373v-41.565Z" fill="#1b292d"/><path d="M1190.088,2415.837l-50.545,21.041H1239.3a99.452,99.452,0,0,0-7.652-38.373Z" fill="#222e33"/><path d="M1272.55,2337.123v8.9a66.46,66.46,0,0,1,33.252,57.594v33.264h33.252v-33.264A66.5,66.5,0,0,0,1272.55,2337.123Z" fill="#1b292d"/><path d="M1239.3,2337.123v99.755h33.252V2346.02A66.2,66.2,0,0,0,1239.3,2337.123Z" fill="#2b3740"/><path d="M1272.55,2346.02v90.858H1305.8v-33.264A66.46,66.46,0,0,0,1272.55,2346.02Z" fill="#222e33"/><circle cx="49.878" cy="49.878" r="49.878" transform="translate(1039.788 2436.878)" fill="#2b3740"/><circle cx="21.596" cy="21.596" r="21.596" transform="translate(1068.179 2465.159)" fill="#222e33"/><path d="M1189.421,2536.632H1239.3v-99.755Z" fill="#1b292d"/><path d="M1139.543,2536.633h49.878l-49.878-99.754Z" fill="#222e33"/><path d="M1139.543,2436.878l49.878,99.754,49.878-99.754Z" fill="#2b3740"/><path d="M1239.3,2486.755a49.88,49.88,0,0,0,49.874,49.878v-99.755A49.879,49.879,0,0,0,1239.3,2486.755Z" fill="#2b3740"/><path d="M1289.172,2436.878h0Z" fill="#333f48" style="mix-blend-mode:hard-light;isolation:isolate"/><path d="M1289.172,2536.633h0Z" fill="#333f48" style="mix-blend-mode:hard-light;isolation:isolate"/><path d="M1339.054,2486.175v-49.3H1289.18A49.877,49.877,0,0,1,1339.054,2486.175Z" fill="#1b292d"/><path d="M1289.18,2536.633h49.874v-49.3A49.877,49.877,0,0,1,1289.18,2536.633Z" fill="#1b292d"/><path d="M1339.054,2487.336v-1.161a49.877,49.877,0,0,0-49.874-49.3h-.008v99.755h.008A49.877,49.877,0,0,0,1339.054,2487.336Z" fill="#222e33"/><rect width="299.266" height="199.51" transform="translate(441.257 2137.612)" fill="#151e22"/><rect width="66.51" height="33.252" transform="translate(474.501 2204.115)" fill="#1b292d"/><rect width="66.51" height="66.494" transform="translate(474.502 2137.622)" fill="#222e33"/><rect width="33.256" height="66.503" transform="translate(441.257 2137.612)" fill="#2b3740"/><path d="M633.114,2198.994a99.78,99.78,0,0,0-92.1-61.382v99.755l50.545-21.04Z" fill="#2b3740"/><path d="M633.114,2198.994a99.434,99.434,0,0,1,7.653,38.373V2195.8Z" fill="#1b292d"/><path d="M591.557,2216.327l-50.545,21.04h99.755a99.434,99.434,0,0,0-7.653-38.373Z" fill="#222e33"/><path d="M674.019,2137.612v8.9A66.46,66.46,0,0,1,707.27,2204.1v33.263h33.252V2204.1A66.5,66.5,0,0,0,674.019,2137.612Z" fill="#1b292d"/><path d="M640.767,2137.612v99.755h33.252V2146.51A66.2,66.2,0,0,0,640.767,2137.612Z" fill="#2b3740"/><path d="M674.019,2146.51v90.857H707.27V2204.1A66.46,66.46,0,0,0,674.019,2146.51Z" fill="#222e33"/><circle cx="49.878" cy="49.878" r="49.878" transform="translate(441.256 2237.367)" fill="#2b3740"/><circle cx="21.596" cy="21.596" r="21.596" transform="translate(469.648 2265.649)" fill="#222e33"/><path d="M590.889,2337.122h49.878v-99.755Z" fill="#1b292d"/><path d="M541.012,2337.123h49.878l-49.878-99.754Z" fill="#222e33"/><path d="M541.012,2237.367l49.878,99.754,49.878-99.754Z" fill="#2b3740"/><path d="M640.767,2287.245a49.879,49.879,0,0,0,49.874,49.877v-99.755A49.88,49.88,0,0,0,640.767,2287.245Z" fill="#2b3740"/><path d="M690.641,2237.367h0Z" fill="#333f48" style="mix-blend-mode:hard-light;isolation:isolate"/><path d="M690.641,2337.123h0Z" fill="#333f48" style="mix-blend-mode:hard-light;isolation:isolate"/><path d="M740.522,2286.665v-49.3H690.648A49.877,49.877,0,0,1,740.522,2286.665Z" fill="#1b292d"/><path d="M690.648,2337.123h49.874v-49.3A49.877,49.877,0,0,1,690.648,2337.123Z" fill="#1b292d"/><path d="M740.522,2287.825v-1.16a49.877,49.877,0,0,0-49.874-49.3h-.007v99.755h.007A49.877,49.877,0,0,0,740.522,2287.825Z" fill="#222e33"/><rect width="299.266" height="199.51" transform="translate(441.257 2337.123)" fill="#151e22"/><rect width="66.51" height="33.252" transform="translate(474.501 2403.626)" fill="#1b292d"/><rect width="66.51" height="66.494" transform="translate(474.502 2337.133)" fill="#222e33"/><rect width="33.256" height="66.503" transform="translate(441.257 2337.123)" fill="#2b3740"/><path d="M633.114,2398.5a99.78,99.78,0,0,0-92.1-61.382v99.755l50.545-21.041Z" fill="#2b3740"/><path d="M633.114,2398.5a99.434,99.434,0,0,1,7.653,38.373v-41.565Z" fill="#1b292d"/><path d="M591.557,2415.837l-50.545,21.041h99.755a99.434,99.434,0,0,0-7.653-38.373Z" fill="#222e33"/><path d="M674.019,2337.123v8.9a66.461,66.461,0,0,1,33.251,57.594v33.264h33.252v-33.264A66.5,66.5,0,0,0,674.019,2337.123Z" fill="#1b292d"/><path d="M640.767,2337.123v99.755h33.252V2346.02A66.2,66.2,0,0,0,640.767,2337.123Z" fill="#2b3740"/><path d="M674.019,2346.02v90.858H707.27v-33.264A66.461,66.461,0,0,0,674.019,2346.02Z" fill="#222e33"/><circle cx="49.878" cy="49.878" r="49.878" transform="translate(441.256 2436.878)" fill="#2b3740"/><circle cx="21.596" cy="21.596" r="21.596" transform="translate(469.648 2465.159)" fill="#222e33"/><path d="M590.889,2536.632h49.878v-99.755Z" fill="#1b292d"/><path d="M541.012,2536.633h49.878l-49.878-99.754Z" fill="#222e33"/><path d="M541.012,2436.878l49.878,99.754,49.878-99.754Z" fill="#2b3740"/><path d="M640.767,2486.755a49.88,49.88,0,0,0,49.874,49.878v-99.755A49.879,49.879,0,0,0,640.767,2486.755Z" fill="#2b3740"/><path d="M690.641,2436.878h0Z" fill="#333f48" style="mix-blend-mode:hard-light;isolation:isolate"/><path d="M690.641,2536.633h0Z" fill="#333f48" style="mix-blend-mode:hard-light;isolation:isolate"/><path d="M740.522,2486.175v-49.3H690.648A49.876,49.876,0,0,1,740.522,2486.175Z" fill="#1b292d"/><path d="M690.648,2536.633h49.874v-49.3A49.876,49.876,0,0,1,690.648,2536.633Z" fill="#1b292d"/><path d="M740.522,2487.336v-1.161a49.876,49.876,0,0,0-49.874-49.3h-.007v99.755h.007A49.876,49.876,0,0,0,740.522,2487.336Z" fill="#222e33"/><rect width="299.266" height="199.51" transform="translate(-456.541 2235.202)" fill="#151e22"/><rect width="66.51" height="33.252" transform="translate(-423.296 2301.706)" fill="#1b292d"/><rect width="66.51" height="66.494" transform="translate(-423.295 2235.212)" fill="#222e33"/><rect width="33.256" height="66.503" transform="translate(-456.541 2235.202)" fill="#2b3740"/><path d="M-264.683,2296.584a99.781,99.781,0,0,0-92.1-61.382v99.755l50.544-21.04Z" fill="#2b3740"/><path d="M-264.683,2296.584a99.454,99.454,0,0,1,7.653,38.373v-41.564Z" fill="#1b292d"/><path d="M-306.241,2313.917l-50.544,21.04h99.755a99.454,99.454,0,0,0-7.653-38.373Z" fill="#222e33"/><path d="M-223.778,2235.2v8.9a66.461,66.461,0,0,1,33.251,57.594v33.263h33.252v-33.263A66.5,66.5,0,0,0-223.778,2235.2Z" fill="#1b292d"/><path d="M-257.03,2235.2v99.755h33.252V2244.1A66.2,66.2,0,0,0-257.03,2235.2Z" fill="#2b3740"/><path d="M-223.778,2244.1v90.857h33.251v-33.263A66.461,66.461,0,0,0-223.778,2244.1Z" fill="#222e33"/><circle cx="49.878" cy="49.878" r="49.878" transform="translate(-456.541 2334.957)" fill="#2b3740"/><circle cx="21.596" cy="21.596" r="21.596" transform="translate(-428.149 2363.239)" fill="#222e33"/><path d="M-306.908,2434.712h49.878v-99.755Z" fill="#1b292d"/><path d="M-356.785,2434.713h49.878l-49.878-99.755Z" fill="#222e33"/><path d="M-356.785,2334.957l49.878,99.755,49.878-99.755Z" fill="#2b3740"/><path d="M-257.03,2384.835a49.88,49.88,0,0,0,49.874,49.878v-99.756A49.88,49.88,0,0,0-257.03,2384.835Z" fill="#2b3740"/><path d="M-207.156,2334.957h0Z" fill="#333f48" style="mix-blend-mode:hard-light;isolation:isolate"/><path d="M-207.156,2434.713h0Z" fill="#333f48" style="mix-blend-mode:hard-light;isolation:isolate"/><path d="M-157.275,2384.255v-49.3h-49.874A49.878,49.878,0,0,1-157.275,2384.255Z" fill="#1b292d"/><path d="M-207.149,2434.713h49.874v-49.3A49.877,49.877,0,0,1-207.149,2434.713Z" fill="#1b292d"/><path d="M-157.275,2385.415v-1.16a49.878,49.878,0,0,0-49.874-49.3h-.007v99.756h.007A49.877,49.877,0,0,0-157.275,2385.415Z" fill="#222e33"/><rect width="299.266" height="199.51" transform="translate(-157.275 2137.612)" fill="#151e22"/><rect width="66.51" height="33.252" transform="translate(-124.03 2204.115)" fill="#1b292d"/><rect width="66.51" height="66.494" transform="translate(-124.03 2137.622)" fill="#222e33"/><rect width="33.256" height="66.503" transform="translate(-157.275 2137.612)" fill="#2b3740"/><path d="M34.583,2198.994a99.781,99.781,0,0,0-92.1-61.382v99.755l50.545-21.04Z" fill="#2b3740"/><path d="M34.583,2198.994a99.451,99.451,0,0,1,7.652,38.373V2195.8Z" fill="#1b292d"/><path d="M-6.975,2216.327l-50.545,21.04H42.235a99.451,99.451,0,0,0-7.652-38.373Z" fill="#222e33"/><path d="M75.487,2137.612v8.9a66.459,66.459,0,0,1,33.252,57.594v33.263h33.252V2204.1A66.5,66.5,0,0,0,75.487,2137.612Z" fill="#1b292d"/><path d="M42.235,2137.612v99.755H75.487V2146.51A66.2,66.2,0,0,0,42.235,2137.612Z" fill="#2b3740"/><path d="M75.487,2146.51v90.857h33.252V2204.1A66.459,66.459,0,0,0,75.487,2146.51Z" fill="#222e33"/><circle cx="49.878" cy="49.878" r="49.878" transform="translate(-157.275 2237.367)" fill="#2b3740"/><circle cx="21.596" cy="21.596" r="21.596" transform="translate(-128.884 2265.649)" fill="#222e33"/><path d="M-7.642,2337.122H42.235v-99.755Z" fill="#1b292d"/><path d="M-57.52,2337.123H-7.642l-49.878-99.754Z" fill="#222e33"/><path d="M-57.52,2237.367l49.878,99.754,49.878-99.754Z" fill="#2b3740"/><path d="M42.235,2287.245a49.879,49.879,0,0,0,49.874,49.877v-99.755A49.88,49.88,0,0,0,42.235,2287.245Z" fill="#2b3740"/><path d="M92.109,2237.367h0Z" fill="#333f48" style="mix-blend-mode:hard-light;isolation:isolate"/><path d="M92.109,2337.123h0Z" fill="#333f48" style="mix-blend-mode:hard-light;isolation:isolate"/><path d="M141.991,2286.665v-49.3H92.117A49.878,49.878,0,0,1,141.991,2286.665Z" fill="#1b292d"/><path d="M92.117,2337.123h49.874v-49.3A49.878,49.878,0,0,1,92.117,2337.123Z" fill="#1b292d"/><path d="M141.991,2287.825v-1.16a49.878,49.878,0,0,0-49.874-49.3h-.008v99.755h.008A49.878,49.878,0,0,0,141.991,2287.825Z" fill="#222e33"/><rect width="299.266" height="199.51" transform="translate(-157.275 2337.123)" fill="#151e22"/><rect width="66.51" height="33.252" transform="translate(-124.03 2403.626)" fill="#1b292d"/><rect width="66.51" height="66.494" transform="translate(-124.03 2337.133)" fill="#222e33"/><rect width="33.256" height="66.503" transform="translate(-157.275 2337.123)" fill="#2b3740"/><path d="M34.583,2398.5a99.781,99.781,0,0,0-92.1-61.382v99.755l50.545-21.041Z" fill="#2b3740"/><path d="M34.583,2398.5a99.452,99.452,0,0,1,7.652,38.373v-41.565Z" fill="#1b292d"/><path d="M-6.975,2415.837l-50.545,21.041H42.235a99.452,99.452,0,0,0-7.652-38.373Z" fill="#222e33"/><path d="M75.487,2337.123v8.9a66.46,66.46,0,0,1,33.252,57.594v33.264h33.252v-33.264A66.5,66.5,0,0,0,75.487,2337.123Z" fill="#1b292d"/><path d="M42.235,2337.123v99.755H75.487V2346.02A66.2,66.2,0,0,0,42.235,2337.123Z" fill="#2b3740"/><path d="M75.487,2346.02v90.858h33.252v-33.264A66.46,66.46,0,0,0,75.487,2346.02Z" fill="#222e33"/><circle cx="49.878" cy="49.878" r="49.878" transform="translate(-157.275 2436.878)" fill="#2b3740"/><circle cx="21.596" cy="21.596" r="21.596" transform="translate(-128.884 2465.159)" fill="#222e33"/><path d="M-7.642,2536.632H42.235v-99.755Z" fill="#1b292d"/><path d="M-57.52,2536.633H-7.642l-49.878-99.754Z" fill="#222e33"/><path d="M-57.52,2436.878l49.878,99.754,49.878-99.754Z" fill="#2b3740"/><path d="M42.235,2486.755a49.88,49.88,0,0,0,49.874,49.878v-99.755A49.879,49.879,0,0,0,42.235,2486.755Z" fill="#2b3740"/><path d="M92.109,2436.878h0Z" fill="#333f48" style="mix-blend-mode:hard-light;isolation:isolate"/><path d="M92.109,2536.633h0Z" fill="#333f48" style="mix-blend-mode:hard-light;isolation:isolate"/><path d="M141.991,2486.175v-49.3H92.117A49.877,49.877,0,0,1,141.991,2486.175Z" fill="#1b292d"/><path d="M92.117,2536.633h49.874v-49.3A49.877,49.877,0,0,1,92.117,2536.633Z" fill="#1b292d"/><path d="M141.991,2487.336v-1.161a49.877,49.877,0,0,0-49.874-49.3h-.008v99.755h.008A49.877,49.877,0,0,0,141.991,2487.336Z" fill="#222e33"/></g></g></svg>