<svg xmlns="http://www.w3.org/2000/svg" xmlns:xlink="http://www.w3.org/1999/xlink" width="1944.56" height="190.551" viewBox="0 0 1944.56 190.551"><defs><clipPath id="a"><rect width="1944.56" height="190.551" transform="translate(-6.975 1442.979)" fill="none"/></clipPath></defs><g transform="translate(12.28 -1058.979)"><g transform="translate(-5.305 -384)" clip-path="url(#a)"><rect width="299.266" height="199.51" transform="translate(141.991 1438.854)" fill="#151e22"/><rect width="66.51" height="33.252" transform="translate(175.236 1505.357)" fill="#1b292d"/><rect width="66.51" height="66.494" transform="translate(175.236 1438.864)" fill="#222e33"/><rect width="33.256" height="66.503" transform="translate(141.991 1438.854)" fill="#2b3740"/><path d="M333.848,1500.236a99.781,99.781,0,0,0-92.1-61.382v99.755l50.545-21.04Z" fill="#2b3740"/><path d="M333.848,1500.236a99.433,99.433,0,0,1,7.653,38.373v-41.565Z" fill="#1b292d"/><path d="M292.291,1517.569l-50.545,21.04H341.5a99.433,99.433,0,0,0-7.653-38.373Z" fill="#222e33"/><path d="M374.753,1438.854v8.9a66.464,66.464,0,0,1,33.252,57.595v33.263h33.251v-33.263A66.5,66.5,0,0,0,374.753,1438.854Z" fill="#1b292d"/><path d="M341.5,1438.854v99.755h33.252v-90.858A66.212,66.212,0,0,0,341.5,1438.854Z" fill="#2b3740"/><path d="M374.753,1447.751v90.858h33.252v-33.263A66.464,66.464,0,0,0,374.753,1447.751Z" fill="#222e33"/><circle cx="49.878" cy="49.878" r="49.878" transform="translate(141.991 1538.609)" fill="#2b3740"/><circle cx="21.596" cy="21.596" r="21.596" transform="translate(170.382 1566.891)" fill="#222e33"/><path d="M291.624,1638.364H341.5v-99.755Z" fill="#1b292d"/><path d="M241.746,1638.364h49.878l-49.878-99.754Z" fill="#222e33"/><path d="M241.746,1538.609l49.878,99.754,49.878-99.754Z" fill="#2b3740"/><path d="M341.5,1588.487a49.879,49.879,0,0,0,49.874,49.877v-99.755A49.88,49.88,0,0,0,341.5,1588.487Z" fill="#2b3740"/><path d="M391.375,1538.609Z" fill="#333f48" style="mix-blend-mode:hard-light;isolation:isolate"/><path d="M391.375,1638.364h0Z" fill="#333f48" style="mix-blend-mode:hard-light;isolation:isolate"/><path d="M441.256,1587.906v-49.3H391.383A49.877,49.877,0,0,1,441.256,1587.906Z" fill="#1b292d"/><path d="M391.383,1638.364h49.873v-49.3A49.876,49.876,0,0,1,391.383,1638.364Z" fill="#1b292d"/><path d="M441.256,1589.067v-1.161a49.877,49.877,0,0,0-49.873-49.3h-.008v99.755h.008A49.876,49.876,0,0,0,441.256,1589.067Z" fill="#222e33"/><rect width="299.266" height="199.51" transform="translate(1339.054 1438.854)" fill="#151e22"/><rect width="66.51" height="33.252" transform="translate(1372.299 1505.357)" fill="#1b292d"/><rect width="66.51" height="66.494" transform="translate(1372.299 1438.864)" fill="#222e33"/><rect width="33.256" height="66.503" transform="translate(1339.054 1438.854)" fill="#2b3740"/><path d="M1530.911,1500.236a99.781,99.781,0,0,0-92.1-61.382v99.755l50.545-21.04Z" fill="#2b3740"/><path d="M1530.911,1500.236a99.433,99.433,0,0,1,7.653,38.373v-41.565Z" fill="#1b292d"/><path d="M1489.354,1517.569l-50.545,21.04h99.755a99.433,99.433,0,0,0-7.653-38.373Z" fill="#222e33"/><path d="M1571.816,1438.854v8.9a66.464,66.464,0,0,1,33.252,57.595v33.263h33.251v-33.263A66.5,66.5,0,0,0,1571.816,1438.854Z" fill="#1b292d"/><path d="M1538.564,1438.854v99.755h33.252v-90.858A66.212,66.212,0,0,0,1538.564,1438.854Z" fill="#2b3740"/><path d="M1571.816,1447.751v90.858h33.252v-33.263A66.464,66.464,0,0,0,1571.816,1447.751Z" fill="#222e33"/><circle cx="49.878" cy="49.878" r="49.878" transform="translate(1339.054 1538.609)" fill="#2b3740"/><circle cx="21.596" cy="21.596" r="21.596" transform="translate(1367.445 1566.891)" fill="#222e33"/><path d="M1488.687,1638.364h49.878v-99.755Z" fill="#1b292d"/><path d="M1438.809,1638.364h49.878l-49.878-99.754Z" fill="#222e33"/><path d="M1438.809,1538.609l49.878,99.754,49.878-99.754Z" fill="#2b3740"/><path d="M1538.564,1588.487a49.879,49.879,0,0,0,49.874,49.877v-99.755A49.88,49.88,0,0,0,1538.564,1588.487Z" fill="#2b3740"/><path d="M1588.438,1538.609Z" fill="#333f48" style="mix-blend-mode:hard-light;isolation:isolate"/><path d="M1588.438,1638.364h0Z" fill="#333f48" style="mix-blend-mode:hard-light;isolation:isolate"/><path d="M1638.319,1587.906v-49.3h-49.873A49.876,49.876,0,0,1,1638.319,1587.906Z" fill="#1b292d"/><path d="M1588.446,1638.364h49.873v-49.3A49.876,49.876,0,0,1,1588.446,1638.364Z" fill="#1b292d"/><path d="M1638.319,1589.067v-1.161a49.876,49.876,0,0,0-49.873-49.3h-.008v99.755h.008A49.876,49.876,0,0,0,1638.319,1589.067Z" fill="#222e33"/><rect width="299.266" height="199.51" transform="translate(1638.319 1341.264)" fill="#151e22"/><rect width="66.51" height="33.252" transform="translate(1671.564 1407.767)" fill="#1b292d"/><rect width="66.51" height="66.494" transform="translate(1671.565 1341.274)" fill="#222e33"/><rect width="33.256" height="66.503" transform="translate(1638.319 1341.264)" fill="#2b3740"/><path d="M1830.177,1402.646a99.78,99.78,0,0,0-92.1-61.382v99.755l50.545-21.04Z" fill="#2b3740"/><path d="M1830.177,1402.646a99.433,99.433,0,0,1,7.653,38.373v-41.565Z" fill="#1b292d"/><path d="M1788.62,1419.979l-50.545,21.04h99.755a99.433,99.433,0,0,0-7.653-38.373Z" fill="#222e33"/><path d="M1871.082,1341.264v8.9a66.463,66.463,0,0,1,33.251,57.595v33.263h33.252v-33.263A66.5,66.5,0,0,0,1871.082,1341.264Z" fill="#1b292d"/><path d="M1837.83,1341.264v99.755h33.252v-90.858A66.2,66.2,0,0,0,1837.83,1341.264Z" fill="#2b3740"/><path d="M1871.082,1350.161v90.858h33.251v-33.263A66.463,66.463,0,0,0,1871.082,1350.161Z" fill="#222e33"/><circle cx="49.878" cy="49.878" r="49.878" transform="translate(1638.319 1441.019)" fill="#2b3740"/><circle cx="21.596" cy="21.596" r="21.596" transform="translate(1666.711 1469.3)" fill="#222e33"/><path d="M1787.952,1540.773h49.878v-99.755Z" fill="#1b292d"/><path d="M1738.075,1540.774h49.878l-49.878-99.755Z" fill="#222e33"/><path d="M1738.075,1441.019l49.878,99.755,49.878-99.755Z" fill="#2b3740"/><path d="M1837.83,1490.9a49.879,49.879,0,0,0,49.874,49.877v-99.755A49.88,49.88,0,0,0,1837.83,1490.9Z" fill="#2b3740"/><path d="M1887.7,1441.019h0Z" fill="#333f48" style="mix-blend-mode:hard-light;isolation:isolate"/><path d="M1887.7,1540.774h0Z" fill="#333f48" style="mix-blend-mode:hard-light;isolation:isolate"/><path d="M1937.585,1490.316v-49.3h-49.874A49.877,49.877,0,0,1,1937.585,1490.316Z" fill="#1b292d"/><path d="M1887.711,1540.774h49.874v-49.3A49.876,49.876,0,0,1,1887.711,1540.774Z" fill="#1b292d"/><path d="M1937.585,1491.477v-1.161a49.877,49.877,0,0,0-49.874-49.3h-.007v99.755h.007A49.876,49.876,0,0,0,1937.585,1491.477Z" fill="#222e33"/><rect width="299.266" height="199.51" transform="translate(1638.319 1540.774)" fill="#151e22"/><rect width="66.51" height="33.252" transform="translate(1671.564 1607.277)" fill="#1b292d"/><rect width="66.51" height="66.494" transform="translate(1671.565 1540.784)" fill="#222e33"/><rect width="33.256" height="66.503" transform="translate(1638.319 1540.774)" fill="#2b3740"/><path d="M1830.177,1602.157a99.78,99.78,0,0,0-92.1-61.383v99.755l50.545-21.04Z" fill="#2b3740"/><path d="M1830.177,1602.157a99.432,99.432,0,0,1,7.653,38.372v-41.564Z" fill="#1b292d"/><path d="M1788.62,1619.489l-50.545,21.04h99.755a99.432,99.432,0,0,0-7.653-38.372Z" fill="#222e33"/><path d="M1871.082,1540.774v8.9a66.462,66.462,0,0,1,33.251,57.594v33.263h33.252v-33.263A66.5,66.5,0,0,0,1871.082,1540.774Z" fill="#1b292d"/><path d="M1837.83,1540.774v99.755h33.252v-90.857A66.2,66.2,0,0,0,1837.83,1540.774Z" fill="#2b3740"/><path d="M1871.082,1549.672v90.857h33.251v-33.263A66.462,66.462,0,0,0,1871.082,1549.672Z" fill="#222e33"/><circle cx="49.878" cy="49.878" r="49.878" transform="translate(1638.319 1640.529)" fill="#2b3740"/><circle cx="21.596" cy="21.596" r="21.596" transform="translate(1666.711 1668.811)" fill="#222e33"/><path d="M1787.952,1740.284h49.878v-99.755Z" fill="#1b292d"/><path d="M1738.075,1740.285h49.878l-49.878-99.755Z" fill="#222e33"/><path d="M1738.075,1640.529l49.878,99.755,49.878-99.755Z" fill="#2b3740"/><path d="M1837.83,1690.407a49.88,49.88,0,0,0,49.874,49.878V1640.53A49.879,49.879,0,0,0,1837.83,1690.407Z" fill="#2b3740"/><path d="M1887.7,1640.529h0Z" fill="#333f48" style="mix-blend-mode:hard-light;isolation:isolate"/><path d="M1887.7,1740.285h0Z" fill="#333f48" style="mix-blend-mode:hard-light;isolation:isolate"/><path d="M1937.585,1689.827v-49.3h-49.874A49.877,49.877,0,0,1,1937.585,1689.827Z" fill="#1b292d"/><path d="M1887.711,1740.285h49.874v-49.3A49.877,49.877,0,0,1,1887.711,1740.285Z" fill="#1b292d"/><path d="M1937.585,1690.987v-1.16a49.877,49.877,0,0,0-49.874-49.3h-.007v99.755h.007A49.877,49.877,0,0,0,1937.585,1690.987Z" fill="#222e33"/><rect width="299.266" height="199.51" transform="translate(740.522 1438.854)" fill="#151e22"/><rect width="66.51" height="33.252" transform="translate(773.767 1505.357)" fill="#1b292d"/><rect width="66.51" height="66.494" transform="translate(773.768 1438.864)" fill="#222e33"/><rect width="33.256" height="66.503" transform="translate(740.522 1438.854)" fill="#2b3740"/><path d="M932.38,1500.236a99.781,99.781,0,0,0-92.1-61.382v99.755l50.545-21.04Z" fill="#2b3740"/><path d="M932.38,1500.236a99.451,99.451,0,0,1,7.653,38.373v-41.565Z" fill="#1b292d"/><path d="M890.822,1517.569l-50.545,21.04h99.756a99.451,99.451,0,0,0-7.653-38.373Z" fill="#222e33"/><path d="M973.284,1438.854v8.9a66.462,66.462,0,0,1,33.252,57.595v33.263h33.252v-33.263A66.5,66.5,0,0,0,973.284,1438.854Z" fill="#1b292d"/><path d="M940.033,1438.854v99.755h33.251v-90.858A66.211,66.211,0,0,0,940.033,1438.854Z" fill="#2b3740"/><path d="M973.284,1447.751v90.858h33.252v-33.263A66.462,66.462,0,0,0,973.284,1447.751Z" fill="#222e33"/><circle cx="49.878" cy="49.878" r="49.878" transform="translate(740.522 1538.609)" fill="#2b3740"/><circle cx="21.596" cy="21.596" r="21.596" transform="translate(768.914 1566.891)" fill="#222e33"/><path d="M890.155,1638.364h49.878v-99.755Z" fill="#1b292d"/><path d="M840.277,1638.364h49.878l-49.878-99.754Z" fill="#222e33"/><path d="M840.277,1538.609l49.878,99.754,49.878-99.754Z" fill="#2b3740"/><path d="M940.033,1588.487a49.879,49.879,0,0,0,49.874,49.877v-99.755A49.88,49.88,0,0,0,940.033,1588.487Z" fill="#2b3740"/><path d="M989.907,1538.609Z" fill="#333f48" style="mix-blend-mode:hard-light;isolation:isolate"/><path d="M989.907,1638.364h0Z" fill="#333f48" style="mix-blend-mode:hard-light;isolation:isolate"/><path d="M1039.788,1587.906v-49.3H989.914A49.877,49.877,0,0,1,1039.788,1587.906Z" fill="#1b292d"/><path d="M989.914,1638.364h49.874v-49.3A49.877,49.877,0,0,1,989.914,1638.364Z" fill="#1b292d"/><path d="M1039.788,1589.067v-1.161a49.877,49.877,0,0,0-49.874-49.3h-.007v99.755h.007A49.877,49.877,0,0,0,1039.788,1589.067Z" fill="#222e33"/><rect width="299.266" height="199.51" transform="translate(1039.788 1341.264)" fill="#151e22"/><rect width="66.51" height="33.252" transform="translate(1073.033 1407.767)" fill="#1b292d"/><rect width="66.51" height="66.494" transform="translate(1073.033 1341.274)" fill="#222e33"/><rect width="33.256" height="66.503" transform="translate(1039.788 1341.264)" fill="#2b3740"/><path d="M1231.646,1402.646a99.782,99.782,0,0,0-92.1-61.382v99.755l50.545-21.04Z" fill="#2b3740"/><path d="M1231.646,1402.646a99.45,99.45,0,0,1,7.652,38.373v-41.565Z" fill="#1b292d"/><path d="M1190.088,1419.979l-50.545,21.04H1239.3a99.45,99.45,0,0,0-7.652-38.373Z" fill="#222e33"/><path d="M1272.55,1341.264v8.9a66.462,66.462,0,0,1,33.252,57.595v33.263h33.252v-33.263A66.5,66.5,0,0,0,1272.55,1341.264Z" fill="#1b292d"/><path d="M1239.3,1341.264v99.755h33.252v-90.858A66.2,66.2,0,0,0,1239.3,1341.264Z" fill="#2b3740"/><path d="M1272.55,1350.161v90.858H1305.8v-33.263A66.462,66.462,0,0,0,1272.55,1350.161Z" fill="#222e33"/><circle cx="49.878" cy="49.878" r="49.878" transform="translate(1039.788 1441.019)" fill="#2b3740"/><circle cx="21.596" cy="21.596" r="21.596" transform="translate(1068.179 1469.3)" fill="#222e33"/><path d="M1189.421,1540.773H1239.3v-99.755Z" fill="#1b292d"/><path d="M1139.543,1540.774h49.878l-49.878-99.755Z" fill="#222e33"/><path d="M1139.543,1441.019l49.878,99.755,49.878-99.755Z" fill="#2b3740"/><path d="M1239.3,1490.9a49.879,49.879,0,0,0,49.874,49.877v-99.755A49.879,49.879,0,0,0,1239.3,1490.9Z" fill="#2b3740"/><path d="M1289.172,1441.019h0Z" fill="#333f48" style="mix-blend-mode:hard-light;isolation:isolate"/><path d="M1289.172,1540.774h0Z" fill="#333f48" style="mix-blend-mode:hard-light;isolation:isolate"/><path d="M1339.054,1490.316v-49.3H1289.18A49.878,49.878,0,0,1,1339.054,1490.316Z" fill="#1b292d"/><path d="M1289.18,1540.774h49.874v-49.3A49.877,49.877,0,0,1,1289.18,1540.774Z" fill="#1b292d"/><path d="M1339.054,1491.477v-1.161a49.878,49.878,0,0,0-49.874-49.3h-.008v99.755h.008A49.877,49.877,0,0,0,1339.054,1491.477Z" fill="#222e33"/><rect width="299.266" height="199.51" transform="translate(1039.788 1540.774)" fill="#151e22"/><rect width="66.51" height="33.252" transform="translate(1073.033 1607.277)" fill="#1b292d"/><rect width="66.51" height="66.494" transform="translate(1073.033 1540.784)" fill="#222e33"/><rect width="33.256" height="66.503" transform="translate(1039.788 1540.774)" fill="#2b3740"/><path d="M1231.646,1602.157a99.781,99.781,0,0,0-92.1-61.383v99.755l50.545-21.04Z" fill="#2b3740"/><path d="M1231.646,1602.157a99.449,99.449,0,0,1,7.652,38.372v-41.564Z" fill="#1b292d"/><path d="M1190.088,1619.489l-50.545,21.04H1239.3a99.449,99.449,0,0,0-7.652-38.372Z" fill="#222e33"/><path d="M1272.55,1540.774v8.9a66.46,66.46,0,0,1,33.252,57.594v33.263h33.252v-33.263A66.5,66.5,0,0,0,1272.55,1540.774Z" fill="#1b292d"/><path d="M1239.3,1540.774v99.755h33.252v-90.857A66.2,66.2,0,0,0,1239.3,1540.774Z" fill="#2b3740"/><path d="M1272.55,1549.672v90.857H1305.8v-33.263A66.46,66.46,0,0,0,1272.55,1549.672Z" fill="#222e33"/><circle cx="49.878" cy="49.878" r="49.878" transform="translate(1039.788 1640.529)" fill="#2b3740"/><circle cx="21.596" cy="21.596" r="21.596" transform="translate(1068.179 1668.811)" fill="#222e33"/><path d="M1189.421,1740.284H1239.3v-99.755Z" fill="#1b292d"/><path d="M1139.543,1740.285h49.878l-49.878-99.755Z" fill="#222e33"/><path d="M1139.543,1640.529l49.878,99.755,49.878-99.755Z" fill="#2b3740"/><path d="M1239.3,1690.407a49.88,49.88,0,0,0,49.874,49.878V1640.53A49.879,49.879,0,0,0,1239.3,1690.407Z" fill="#2b3740"/><path d="M1289.172,1640.529h0Z" fill="#333f48" style="mix-blend-mode:hard-light;isolation:isolate"/><path d="M1289.172,1740.285h0Z" fill="#333f48" style="mix-blend-mode:hard-light;isolation:isolate"/><path d="M1339.054,1689.827v-49.3H1289.18A49.878,49.878,0,0,1,1339.054,1689.827Z" fill="#1b292d"/><path d="M1289.18,1740.285h49.874v-49.3A49.878,49.878,0,0,1,1289.18,1740.285Z" fill="#1b292d"/><path d="M1339.054,1690.987v-1.16a49.878,49.878,0,0,0-49.874-49.3h-.008v99.755h.008A49.878,49.878,0,0,0,1339.054,1690.987Z" fill="#222e33"/><rect width="299.266" height="199.51" transform="translate(441.257 1341.264)" fill="#151e22"/><rect width="66.51" height="33.252" transform="translate(474.501 1407.767)" fill="#1b292d"/><rect width="66.51" height="66.494" transform="translate(474.502 1341.274)" fill="#222e33"/><rect width="33.256" height="66.503" transform="translate(441.257 1341.264)" fill="#2b3740"/><path d="M633.114,1402.646a99.78,99.78,0,0,0-92.1-61.382v99.755l50.545-21.04Z" fill="#2b3740"/><path d="M633.114,1402.646a99.433,99.433,0,0,1,7.653,38.373v-41.565Z" fill="#1b292d"/><path d="M591.557,1419.979l-50.545,21.04h99.755a99.433,99.433,0,0,0-7.653-38.373Z" fill="#222e33"/><path d="M674.019,1341.264v8.9a66.463,66.463,0,0,1,33.251,57.595v33.263h33.252v-33.263A66.5,66.5,0,0,0,674.019,1341.264Z" fill="#1b292d"/><path d="M640.767,1341.264v99.755h33.252v-90.858A66.2,66.2,0,0,0,640.767,1341.264Z" fill="#2b3740"/><path d="M674.019,1350.161v90.858H707.27v-33.263A66.463,66.463,0,0,0,674.019,1350.161Z" fill="#222e33"/><circle cx="49.878" cy="49.878" r="49.878" transform="translate(441.256 1441.019)" fill="#2b3740"/><circle cx="21.596" cy="21.596" r="21.596" transform="translate(469.648 1469.3)" fill="#222e33"/><path d="M590.889,1540.773h49.878v-99.755Z" fill="#1b292d"/><path d="M541.012,1540.774h49.878l-49.878-99.755Z" fill="#222e33"/><path d="M541.012,1441.019l49.878,99.755,49.878-99.755Z" fill="#2b3740"/><path d="M640.767,1490.9a49.879,49.879,0,0,0,49.874,49.877v-99.755A49.879,49.879,0,0,0,640.767,1490.9Z" fill="#2b3740"/><path d="M690.641,1441.019h0Z" fill="#333f48" style="mix-blend-mode:hard-light;isolation:isolate"/><path d="M690.641,1540.774h0Z" fill="#333f48" style="mix-blend-mode:hard-light;isolation:isolate"/><path d="M740.522,1490.316v-49.3H690.648A49.877,49.877,0,0,1,740.522,1490.316Z" fill="#1b292d"/><path d="M690.648,1540.774h49.874v-49.3A49.876,49.876,0,0,1,690.648,1540.774Z" fill="#1b292d"/><path d="M740.522,1491.477v-1.161a49.877,49.877,0,0,0-49.874-49.3h-.007v99.755h.007A49.876,49.876,0,0,0,740.522,1491.477Z" fill="#222e33"/><rect width="299.266" height="199.51" transform="translate(441.257 1540.774)" fill="#151e22"/><rect width="66.51" height="33.252" transform="translate(474.501 1607.277)" fill="#1b292d"/><rect width="66.51" height="66.494" transform="translate(474.502 1540.784)" fill="#222e33"/><rect width="33.256" height="66.503" transform="translate(441.257 1540.774)" fill="#2b3740"/><path d="M633.114,1602.157a99.78,99.78,0,0,0-92.1-61.383v99.755l50.545-21.04Z" fill="#2b3740"/><path d="M633.114,1602.157a99.432,99.432,0,0,1,7.653,38.372v-41.564Z" fill="#1b292d"/><path d="M591.557,1619.489l-50.545,21.04h99.755a99.432,99.432,0,0,0-7.653-38.372Z" fill="#222e33"/><path d="M674.019,1540.774v8.9a66.461,66.461,0,0,1,33.251,57.594v33.263h33.252v-33.263A66.5,66.5,0,0,0,674.019,1540.774Z" fill="#1b292d"/><path d="M640.767,1540.774v99.755h33.252v-90.857A66.2,66.2,0,0,0,640.767,1540.774Z" fill="#2b3740"/><path d="M674.019,1549.672v90.857H707.27v-33.263A66.461,66.461,0,0,0,674.019,1549.672Z" fill="#222e33"/><circle cx="49.878" cy="49.878" r="49.878" transform="translate(441.256 1640.529)" fill="#2b3740"/><circle cx="21.596" cy="21.596" r="21.596" transform="translate(469.648 1668.811)" fill="#222e33"/><path d="M590.889,1740.284h49.878v-99.755Z" fill="#1b292d"/><path d="M541.012,1740.285h49.878l-49.878-99.755Z" fill="#222e33"/><path d="M541.012,1640.529l49.878,99.755,49.878-99.755Z" fill="#2b3740"/><path d="M640.767,1690.407a49.88,49.88,0,0,0,49.874,49.878V1640.53A49.879,49.879,0,0,0,640.767,1690.407Z" fill="#2b3740"/><path d="M690.641,1640.529h0Z" fill="#333f48" style="mix-blend-mode:hard-light;isolation:isolate"/><path d="M690.641,1740.285h0Z" fill="#333f48" style="mix-blend-mode:hard-light;isolation:isolate"/><path d="M740.522,1689.827v-49.3H690.648A49.877,49.877,0,0,1,740.522,1689.827Z" fill="#1b292d"/><path d="M690.648,1740.285h49.874v-49.3A49.877,49.877,0,0,1,690.648,1740.285Z" fill="#1b292d"/><path d="M740.522,1690.987v-1.16a49.877,49.877,0,0,0-49.874-49.3h-.007v99.755h.007A49.877,49.877,0,0,0,740.522,1690.987Z" fill="#222e33"/><rect width="299.266" height="199.51" transform="translate(-456.541 1438.854)" fill="#151e22"/><rect width="66.51" height="33.252" transform="translate(-423.296 1505.357)" fill="#1b292d"/><rect width="66.51" height="66.494" transform="translate(-423.295 1438.864)" fill="#222e33"/><rect width="33.256" height="66.503" transform="translate(-456.541 1438.854)" fill="#2b3740"/><path d="M-264.683,1500.236a99.78,99.78,0,0,0-92.1-61.382v99.755l50.544-21.04Z" fill="#2b3740"/><path d="M-264.683,1500.236a99.451,99.451,0,0,1,7.653,38.373v-41.565Z" fill="#1b292d"/><path d="M-306.241,1517.569l-50.544,21.04h99.755a99.451,99.451,0,0,0-7.653-38.373Z" fill="#222e33"/><path d="M-223.778,1438.854v8.9a66.463,66.463,0,0,1,33.251,57.595v33.263h33.252v-33.263A66.5,66.5,0,0,0-223.778,1438.854Z" fill="#1b292d"/><path d="M-257.03,1438.854v99.755h33.252v-90.858A66.215,66.215,0,0,0-257.03,1438.854Z" fill="#2b3740"/><path d="M-223.778,1447.751v90.858h33.251v-33.263A66.463,66.463,0,0,0-223.778,1447.751Z" fill="#222e33"/><circle cx="49.878" cy="49.878" r="49.878" transform="translate(-456.541 1538.609)" fill="#2b3740"/><circle cx="21.596" cy="21.596" r="21.596" transform="translate(-428.149 1566.891)" fill="#222e33"/><path d="M-306.908,1638.364h49.878v-99.755Z" fill="#1b292d"/><path d="M-356.785,1638.364h49.878l-49.878-99.754Z" fill="#222e33"/><path d="M-356.785,1538.609l49.878,99.754,49.878-99.754Z" fill="#2b3740"/><path d="M-257.03,1588.487a49.879,49.879,0,0,0,49.874,49.877v-99.755A49.88,49.88,0,0,0-257.03,1588.487Z" fill="#2b3740"/><path d="M-207.156,1538.609Z" fill="#333f48" style="mix-blend-mode:hard-light;isolation:isolate"/><path d="M-207.156,1638.364h0Z" fill="#333f48" style="mix-blend-mode:hard-light;isolation:isolate"/><path d="M-157.275,1587.906v-49.3h-49.874A49.877,49.877,0,0,1-157.275,1587.906Z" fill="#1b292d"/><path d="M-207.149,1638.364h49.874v-49.3A49.877,49.877,0,0,1-207.149,1638.364Z" fill="#1b292d"/><path d="M-157.275,1589.067v-1.161a49.877,49.877,0,0,0-49.874-49.3h-.007v99.755h.007A49.877,49.877,0,0,0-157.275,1589.067Z" fill="#222e33"/><rect width="299.266" height="199.51" transform="translate(-157.275 1341.264)" fill="#151e22"/><rect width="66.51" height="33.252" transform="translate(-124.03 1407.767)" fill="#1b292d"/><rect width="66.51" height="66.494" transform="translate(-124.03 1341.274)" fill="#222e33"/><rect width="33.256" height="66.503" transform="translate(-157.275 1341.264)" fill="#2b3740"/><path d="M34.583,1402.646a99.781,99.781,0,0,0-92.1-61.382v99.755l50.545-21.04Z" fill="#2b3740"/><path d="M34.583,1402.646a99.451,99.451,0,0,1,7.652,38.373v-41.565Z" fill="#1b292d"/><path d="M-6.975,1419.979l-50.545,21.04H42.235a99.451,99.451,0,0,0-7.652-38.373Z" fill="#222e33"/><path d="M75.487,1341.264v8.9a66.462,66.462,0,0,1,33.252,57.595v33.263h33.252v-33.263A66.5,66.5,0,0,0,75.487,1341.264Z" fill="#1b292d"/><path d="M42.235,1341.264v99.755H75.487v-90.858A66.2,66.2,0,0,0,42.235,1341.264Z" fill="#2b3740"/><path d="M75.487,1350.161v90.858h33.252v-33.263A66.462,66.462,0,0,0,75.487,1350.161Z" fill="#222e33"/><circle cx="49.878" cy="49.878" r="49.878" transform="translate(-157.275 1441.019)" fill="#2b3740"/><circle cx="21.596" cy="21.596" r="21.596" transform="translate(-128.884 1469.3)" fill="#222e33"/><path d="M-7.642,1540.773H42.235v-99.755Z" fill="#1b292d"/><path d="M-57.52,1540.774H-7.642l-49.878-99.755Z" fill="#222e33"/><path d="M-57.52,1441.019l49.878,99.755,49.878-99.755Z" fill="#2b3740"/><path d="M42.235,1490.9a49.879,49.879,0,0,0,49.874,49.877v-99.755A49.879,49.879,0,0,0,42.235,1490.9Z" fill="#2b3740"/><path d="M92.109,1441.019h0Z" fill="#333f48" style="mix-blend-mode:hard-light;isolation:isolate"/><path d="M92.109,1540.774h0Z" fill="#333f48" style="mix-blend-mode:hard-light;isolation:isolate"/><path d="M141.991,1490.316v-49.3H92.117A49.878,49.878,0,0,1,141.991,1490.316Z" fill="#1b292d"/><path d="M92.117,1540.774h49.874v-49.3A49.877,49.877,0,0,1,92.117,1540.774Z" fill="#1b292d"/><path d="M141.991,1491.477v-1.161a49.878,49.878,0,0,0-49.874-49.3h-.008v99.755h.008A49.877,49.877,0,0,0,141.991,1491.477Z" fill="#222e33"/><rect width="299.266" height="199.51" transform="translate(-157.275 1540.774)" fill="#151e22"/><rect width="66.51" height="33.252" transform="translate(-124.03 1607.277)" fill="#1b292d"/><rect width="66.51" height="66.494" transform="translate(-124.03 1540.784)" fill="#222e33"/><rect width="33.256" height="66.503" transform="translate(-157.275 1540.774)" fill="#2b3740"/><path d="M34.583,1602.157a99.78,99.78,0,0,0-92.1-61.383v99.755l50.545-21.04Z" fill="#2b3740"/><path d="M34.583,1602.157a99.449,99.449,0,0,1,7.652,38.372v-41.564Z" fill="#1b292d"/><path d="M-6.975,1619.489l-50.545,21.04H42.235a99.449,99.449,0,0,0-7.652-38.372Z" fill="#222e33"/><path d="M75.487,1540.774v8.9a66.46,66.46,0,0,1,33.252,57.594v33.263h33.252v-33.263A66.5,66.5,0,0,0,75.487,1540.774Z" fill="#1b292d"/><path d="M42.235,1540.774v99.755H75.487v-90.857A66.2,66.2,0,0,0,42.235,1540.774Z" fill="#2b3740"/><path d="M75.487,1549.672v90.857h33.252v-33.263A66.46,66.46,0,0,0,75.487,1549.672Z" fill="#222e33"/><circle cx="49.878" cy="49.878" r="49.878" transform="translate(-157.275 1640.529)" fill="#2b3740"/><circle cx="21.596" cy="21.596" r="21.596" transform="translate(-128.884 1668.811)" fill="#222e33"/><path d="M-7.642,1740.284H42.235v-99.755Z" fill="#1b292d"/><path d="M-57.52,1740.285H-7.642l-49.878-99.755Z" fill="#222e33"/><path d="M-57.52,1640.529l49.878,99.755,49.878-99.755Z" fill="#2b3740"/><path d="M42.235,1690.407a49.88,49.88,0,0,0,49.874,49.878V1640.53A49.879,49.879,0,0,0,42.235,1690.407Z" fill="#2b3740"/><path d="M92.109,1640.529h0Z" fill="#333f48" style="mix-blend-mode:hard-light;isolation:isolate"/><path d="M92.109,1740.285h0Z" fill="#333f48" style="mix-blend-mode:hard-light;isolation:isolate"/><path d="M141.991,1689.827v-49.3H92.117A49.878,49.878,0,0,1,141.991,1689.827Z" fill="#1b292d"/><path d="M92.117,1740.285h49.874v-49.3A49.878,49.878,0,0,1,92.117,1740.285Z" fill="#1b292d"/><path d="M141.991,1690.987v-1.16a49.878,49.878,0,0,0-49.874-49.3h-.008v99.755h.008A49.878,49.878,0,0,0,141.991,1690.987Z" fill="#222e33"/></g></g></svg>