<svg xmlns="http://www.w3.org/2000/svg" xmlns:xlink="http://www.w3.org/1999/xlink" width="66.122" height="427.547" viewBox="0 0 66.122 427.547"><defs><linearGradient id="a" y1="0.5" x2="1" y2="0.5" gradientUnits="objectBoundingBox"><stop offset="0" stop-color="#8046a7"/><stop offset="1" stop-color="#d9140a"/></linearGradient></defs><g transform="translate(-1741.788 -496.399)"><g transform="translate(-112.09 -1438.95)"><path d="M1899.7,2192.18c-1.848-6.01-4.206-9.667-6.9-9.667-2.189,0-4.222,2.466-5.906,6.688-1.681-4.217-3.717-6.688-5.928-6.688-2.663,0-5.022,3.648-6.878,9.667h-1.371l8.11-24.96,6.057,18.645,6.059-18.645,8.11,24.96Zm-12.816-30.045a20.378,20.378,0,1,0,20.381,20.377,20.372,20.372,0,0,0-20.381-20.377" fill="#fff"/><path d="M1892.946,2301.411v-.811h3.816v.811a7.976,7.976,0,0,1-7.963,7.964h-16.685v-3.817h4.992v-4.928h3.816v4.928h7.877a4.154,4.154,0,0,0,4.147-4.147" fill="#fff"/><path d="M1893.3,2255.174a6.372,6.372,0,1,1-6.373-6.37,6.375,6.375,0,0,1,6.373,6.37m-16.559,0a10.188,10.188,0,1,0,10.186-10.187,10.2,10.2,0,0,0-10.186,10.187" fill="#fff"/><path d="M1893.305,2225.82a6.371,6.371,0,1,1-6.372-6.37,6.373,6.373,0,0,1,6.372,6.37m-16.559,0a10.188,10.188,0,1,0,18-6.529h2.014v-3.65h-9.534c-.1,0-.2-.008-.3-.008a10.2,10.2,0,0,0-10.187,10.187" fill="#fff"/><path d="M1877.106,2268.451v-1.813h3.816v1.813a4.155,4.155,0,0,0,4.148,4.147h11.671v3.816H1885.07a7.977,7.977,0,0,1-7.964-7.963" fill="#fff"/><rect width="24.993" height="3.825" transform="translate(1872.129 2238.608)" fill="#fff"/><path d="M1884.652,2334.858h12.111v3.816h-12.111a4.147,4.147,0,0,0,0,8.294h12.111v3.816h-12.111a4.148,4.148,0,0,0,0,8.3h12.111v3.816h-12.111a138.745,138.745,0,0,0-7.963-20.074,7.977,7.977,0,0,1,7.963-7.963" fill="#fff"/><path d="M1893.3,2322.086a6.371,6.371,0,1,1-6.372-6.37,6.374,6.374,0,0,1,6.372,6.37m-16.559,0a10.188,10.188,0,1,0,10.187-10.156,10.2,10.2,0,0,0-10.187,10.156" fill="#fff"/><path d="M1893.3,2289.156a6.371,6.371,0,1,1-6.372-6.371,6.374,6.374,0,0,1,6.372,6.371m-16.559,0a10.188,10.188,0,1,0,10.187-10.187,10.2,10.2,0,0,0-10.187,10.187" fill="#fff"/></g><rect width="66.122" height="198.005" transform="translate(1741.788 496.399)" fill="url(#a)"/><path d="M4005,2047.478a10.607,10.607,0,0,0,4.1,8.329v0l-3.67,0v7.006h25.649v-7h-14.6a5.483,5.483,0,0,1-5.419-5.778c0-2.891,2.033-5.9,5.419-5.9h14.6v-7.006h-15.909c-5.9,0-10.171,4.189-10.171,10.35" transform="translate(-2242.797 -1443.926)" fill="#fff"/><path d="M4005.427,1987.332l17.477,6.335L4005.427,2000v8.015l25.649-10.513v-7.671l-25.649-10.5Z" transform="translate(-2242.797 -1443.926)" fill="#fff"/><path d="M4013.155,2083.715a6.5,6.5,0,0,1-2.561-5.382,5.856,5.856,0,0,1,3.6-5.428l5.09,12.226a8.225,8.225,0,0,1-6.126-1.416m10.033-13.449c2.2,2.939,2.724,4.638,2.724,7.317a7.732,7.732,0,0,1-2.086,5.65l-7.479-17.906a13.953,13.953,0,0,0-7.147,3.056c-2.753,2.35-4.216,5.833-4.216,10.076a13.109,13.109,0,0,0,13.261,13.516c7.737,0,13.269-5.826,13.269-14.293,0-4.733-2.264-9.581-4.9-11.856Z" transform="translate(-2242.797 -1443.926)" fill="#fff"/><path d="M4024.605,2092.633v15.925h-26.862v7.1h33.349v-23.022Z" transform="translate(-2242.797 -1443.926)" fill="#fff"/><path d="M4011.027,1966.758c0,3.917,2.983,6.748,7.218,6.748a6.979,6.979,0,0,0,7.237-6.851c0-3.9-3.071-6.751-7.237-6.751a6.96,6.96,0,0,0-7.218,6.854m20.487,0c0,7.647-5.744,13.669-13.269,13.669-7.419,0-13.249-6.05-13.249-13.772,0-7.656,5.726-13.657,13.249-13.657,7.444,0,13.269,6.049,13.269,13.76" transform="translate(-2242.797 -1443.926)" fill="#fff"/><path d="M4011.027,2020.683c0,3.917,2.983,6.763,7.218,6.763a6.985,6.985,0,0,0,7.237-6.849c0-3.917-3.071-6.764-7.237-6.764a6.966,6.966,0,0,0-7.218,6.85m20.487,0c0,7.669-5.744,13.669-13.269,13.669-7.419,0-13.249-6.04-13.249-13.754,0-7.649,5.726-13.674,13.249-13.674,7.444,0,13.269,6.053,13.269,13.759" transform="translate(-2242.797 -1443.926)" fill="#fff"/></g></svg>