<svg xmlns="http://www.w3.org/2000/svg" xmlns:xlink="http://www.w3.org/1999/xlink" viewBox="0 0 598.53 199.53"><defs><style>.cls-1{fill:none;}.cls-2{isolation:isolate;}.cls-3{fill:#151e22;}.cls-4{fill:#1b292d;}.cls-5{fill:#222e33;}.cls-6{fill:#2b3740;}.cls-7{mix-blend-mode:hard-light;}.cls-8{clip-path:url(#clip-path);}.cls-12,.cls-9{fill:#333f48;}.cls-10{clip-path:url(#clip-path-2);}.cls-11{clip-path:url(#clip-path-3);}.cls-12{opacity:0.85;mix-blend-mode:multiply;}</style><clipPath id="clip-path"><path class="cls-1" d="M249.39,99.78Z"/></clipPath><clipPath id="clip-path-2"><path class="cls-1" d="M548.65,0h0Z"/></clipPath><clipPath id="clip-path-3"><path class="cls-1" d="M548.65,99.76h0Z"/></clipPath></defs><title>Recurso 4</title><g class="cls-2"><g id="Capa_2" data-name="Capa 2"><g id="Capa_1-2" data-name="Capa 1"><rect class="cls-3" y="0.02" width="598.53" height="199.51"/><rect class="cls-4" x="33.25" y="66.53" width="66.51" height="33.25"/><rect class="cls-5" x="33.25" y="0.03" width="66.51" height="66.49"/><rect class="cls-6" y="0.02" width="33.26" height="66.5"/><path class="cls-6" d="M191.86,61.4A99.79,99.79,0,0,0,99.76,0V99.78l50.54-21Z"/><path class="cls-4" d="M191.86,61.4a99.45,99.45,0,0,1,7.65,38.38V58.21Z"/><path class="cls-5" d="M150.3,78.74l-50.54,21h99.75a99.45,99.45,0,0,0-7.65-38.38Z"/><path class="cls-4" d="M232.76,0v8.9A66.45,66.45,0,0,1,266,66.51V99.78h33.26V66.51A66.5,66.5,0,0,0,232.76,0"/><path class="cls-6" d="M199.51,0V99.78h33.25V8.92A66.18,66.18,0,0,0,199.51,0"/><path class="cls-5" d="M232.76,8.92V99.78H266V66.51A66.45,66.45,0,0,0,232.76,8.92"/><path class="cls-6" d="M49.88,199.53A49.88,49.88,0,1,0,0,149.65a49.88,49.88,0,0,0,49.88,49.88"/><path class="cls-5" d="M71.58,149.66A21.6,21.6,0,1,1,50,128.06a21.59,21.59,0,0,1,21.59,21.6"/><polygon class="cls-4" points="149.63 199.53 199.51 199.53 199.51 99.78 149.63 199.53"/><polygon class="cls-5" points="99.76 199.53 149.63 199.53 99.76 99.78 99.76 199.53"/><polygon class="cls-6" points="99.76 99.78 149.63 199.53 199.51 99.78 99.76 99.78"/><path class="cls-6" d="M199.51,149.66a49.87,49.87,0,0,0,49.87,49.87V99.78a49.88,49.88,0,0,0-49.87,49.88"/><g class="cls-7"><g class="cls-8"><polygon class="cls-9" points="249.38 99.78 249.38 99.78 249.39 99.78 249.38 99.78"/></g></g><path class="cls-4" d="M299.27,149.07V99.78H249.39a49.88,49.88,0,0,1,49.88,49.29"/><path class="cls-4" d="M249.39,199.53h49.88V150.24a49.88,49.88,0,0,1-49.88,49.29"/><path class="cls-5" d="M299.27,150.24v-1.17a49.88,49.88,0,0,0-49.88-49.29h0v99.75h0a49.88,49.88,0,0,0,49.88-49.29"/><path class="cls-6" d="M349.14,99.76a49.88,49.88,0,1,0-49.87-49.88,49.88,49.88,0,0,0,49.87,49.88"/><path class="cls-5" d="M370.85,49.88a21.6,21.6,0,1,1-21.6-21.6,21.59,21.59,0,0,1,21.6,21.6"/><polygon class="cls-4" points="448.9 99.75 498.78 99.76 498.78 0 448.9 99.75"/><polygon class="cls-5" points="399.02 99.75 448.9 99.75 399.02 0 399.02 99.75"/><polygon class="cls-6" points="399.02 0 448.9 99.75 498.78 0 399.02 0"/><path class="cls-6" d="M498.78,49.88a49.89,49.89,0,0,0,49.87,49.88V0a49.88,49.88,0,0,0-49.87,49.88"/><g class="cls-7"><g class="cls-10"><polygon class="cls-9" points="548.65 0 548.65 0 548.66 0 548.65 0"/></g></g><g class="cls-7"><g class="cls-11"><path class="cls-9" d="M548.65,99.76h0Z"/></g></g><path class="cls-4" d="M598.53,49.3V0H548.66a49.88,49.88,0,0,1,49.87,49.3"/><path class="cls-4" d="M548.66,99.76h49.87V50.46a49.88,49.88,0,0,1-49.87,49.3"/><path class="cls-5" d="M598.53,50.46V49.3A49.88,49.88,0,0,0,548.66,0h0V99.76h0a49.88,49.88,0,0,0,49.87-49.3"/><rect class="cls-4" x="332.51" y="166.26" width="66.51" height="33.25"/><rect class="cls-5" x="332.51" y="99.77" width="66.51" height="66.49"/><rect class="cls-6" x="299.27" y="99.76" width="33.26" height="66.5"/><path class="cls-6" d="M491.12,161.14A99.76,99.76,0,0,0,399,99.76v99.75l50.55-21Z"/><path class="cls-4" d="M491.12,161.14a99.37,99.37,0,0,1,7.66,38.37V158Z"/><path class="cls-5" d="M449.57,178.47l-50.55,21h99.76a99.37,99.37,0,0,0-7.66-38.37Z"/><path class="cls-4" d="M532,99.76v8.89a66.47,66.47,0,0,1,33.25,57.6v33.26h33.25V166.25A66.49,66.49,0,0,0,532,99.76"/><path class="cls-6" d="M498.78,99.76v99.75H532V108.65a66.28,66.28,0,0,0-33.25-8.89"/><path class="cls-5" d="M532,108.65v90.86h33.25V166.25A66.47,66.47,0,0,0,532,108.65"/><rect class="cls-12" width="598.53" height="199.53"/></g></g></g></svg>